COMMENT @(#)49	1.2  src/bos/usr/lpp/tls/fonts/Chtp123.bdf, cmdtw, bos411, 9428A410j 2/24/94 13:21:52
COMMENT
COMMENT   COMPONENT_NAME: cmdtw
COMMENT
COMMENT   FUNCTIONS: none
COMMENT
COMMENT   ORIGINS: 27
COMMENT
COMMENT   IBM CONFIDENTIAL -- (IBM Confidential Restricted when
COMMENT   combined with the aggregated modules for this product)
COMMENT                    SOURCE MATERIALS
COMMENT
COMMENT   (C) COPYRIGHT International Business Machines Corp. 1992
COMMENT   All Rights Reserved
COMMENT   US Government Users Restricted Rights - Use, duplication or
COMMENT   disclosure restricted by GSA ADP Schedule Contract with IBM Corp.
COMMENT
STARTFONT 2.1
FONT  -IBM_AIX-Sung-Medium-R-Normal--35-230-100-100-M-340-CNS11643.1986-1
SIZE 35 100 100
FONTBOUNDINGBOX 34 35 0 -4
STARTPROPERTIES 20
FONTNAME_REGISTRY "_"
FOUNDRY "IBM_AIX "
FAMILY_NAME "Sung"
WEIGHT_NAME "Medium "
SLANT "R"
SETWIDTH_NAME "Normal" 
ADD_STYLE_NAME ""
PIXEL_SIZE 35
POINT_SIZE 230
RESOLUTION_X 100
RESOLUTION_Y 100
SPACING "M"
AVERAGE_WIDTH 340
CHARSET_REGISTRY "CNS11643.1986" 
CHARSET_ENCODING "1" 
FONT_ASCENT 31
FONT_DESCENT 4
DEFAULT_CHAR 0
CAP_HEIGHT 35
COPYRIGHT "Copyright, 1992 by IBM."
ENDPROPERTIES
CHARS 6085
STARTCHAR 2121
ENCODING 8481
SWIDTH 1020 0
DWIDTH 34 0
BBX 34 35 0 -4
BITMAP
0000000000
0000000000
0000000000
0000000000
0000000000
0000000000
0000000000
0000000000
0000000000
0000000000
0000000000
0000000000
0000000000
0000000000
0000000000
0000000000
0000000000
0000000000
0000000000
0000000000
0000000000
0000000000
0000000000
0000000000
0000000000
0000000000
0000000000
0000000000
0000000000
0000000000
0000000000
0000000000
0000000000
0000000000
0000000000
ENDCHAR
STARTCHAR 2122
ENCODING 8482
SWIDTH 1020 0
DWIDTH 34 0
BBX 34 35 0 -4
BITMAP
0000000000
0000000000
0000000000
0000000000
0000000000
0000000000
0000000000
0000000000
0000000000
0000000000
0000000000
0000000000
0000000000
0000000000
0000000000
0000000000
0000000000
0000000000
0000000000
0000000000
0000000000
0000000000
0000000000
0000000000
0e00000000
1f00000000
1f00000000
1f00000000
0f00000000
0300000000
0600000000
0c00000000
1800000000
0000000000
0000000000
ENDCHAR
STARTCHAR 2123
ENCODING 8483
SWIDTH 1020 0
DWIDTH 34 0
BBX 34 35 0 -4
BITMAP
0000000000
0000000000
0000000000
0000000000
0000000000
0000000000
0000000000
0000000000
0000000000
0000000000
0000000000
0000000000
0000000000
0000000000
0000000000
0000000000
0000000000
0000000000
0000000000
0000000000
0000000000
0000000000
0000000000
0000000000
6000000000
3800000000
1c00000000
0e00000000
0700000000
0700000000
0380000000
0380000000
0100000000
0000000000
0000000000
ENDCHAR
STARTCHAR 2124
ENCODING 8484
SWIDTH 1020 0
DWIDTH 34 0
BBX 34 35 0 -4
BITMAP
0000000000
0000000000
0000000000
0000000000
0000000000
0000000000
0000000000
0000000000
0000000000
0000000000
0000000000
0000000000
0000000000
0000000000
0000000000
0000000000
0000000000
0000000000
0000000000
0000000000
0000000000
0000000000
0000000000
0000000000
3e00000000
4100000000
8080000000
8080000000
8080000000
8080000000
8080000000
4100000000
3e00000000
0000000000
0000000000
ENDCHAR
STARTCHAR 2125
ENCODING 8485
SWIDTH 1020 0
DWIDTH 34 0
BBX 34 35 0 -4
BITMAP
0000000000
0000000000
0000000000
0000000000
0000000000
0000000000
0000000000
0000000000
0000000000
0000000000
0000000000
0000000000
0000000000
0000000000
0000000000
0000000000
0000000000
0000000000
0000000000
0000000000
0000000000
0000000000
0000000000
0000000000
0000000000
0000000000
0e00000000
1f00000000
1f00000000
1f00000000
0e00000000
0000000000
0000000000
0000000000
0000000000
ENDCHAR
STARTCHAR 2126
ENCODING 8486
SWIDTH 1020 0
DWIDTH 34 0
BBX 34 35 0 -4
BITMAP
0000000000
0000000000
0000000000
0000000000
0000000000
0000000000
0000000000
0000000000
0000000000
0000000000
0000000000
0000000000
0000000000
0001c00000
0003e00000
0007f00000
0007f00000
0003e00000
0001c00000
0000000000
0000000000
0000000000
0000000000
0000000000
0000000000
0000000000
0000000000
0000000000
0000000000
0000000000
0000000000
0000000000
0000000000
0000000000
0000000000
ENDCHAR
STARTCHAR 2127
ENCODING 8487
SWIDTH 1020 0
DWIDTH 34 0
BBX 34 35 0 -4
BITMAP
0000000000
0000000000
0000000000
0000000000
0000000000
0000000000
0000000000
0003800000
0007c00000
0007c00000
0007c00000
0003800000
0000000000
0000000000
0000000000
0000000000
0000000000
0000000000
0000000000
0003800000
0007c00000
0007c00000
0007c00000
0003c00000
0000c00000
0001800000
0003000000
0006000000
0000000000
0000000000
0000000000
0000000000
0000000000
0000000000
0000000000
ENDCHAR
STARTCHAR 2128
ENCODING 8488
SWIDTH 1020 0
DWIDTH 34 0
BBX 34 35 0 -4
BITMAP
0000000000
0000000000
0000000000
0000000000
0000000000
0000000000
0000000000
0000000000
0001c00000
0003e00000
0003e00000
0003e00000
0001c00000
0000000000
0000000000
0000000000
0000000000
0000000000
0000000000
0000000000
0000000000
0001c00000
0003e00000
0003e00000
0003e00000
0001c00000
0000000000
0000000000
0000000000
0000000000
0000000000
0000000000
0000000000
0000000000
0000000000
ENDCHAR
STARTCHAR 2129
ENCODING 8489
SWIDTH 1020 0
DWIDTH 34 0
BBX 34 35 0 -4
BITMAP
0000000000
0000000000
0007c00000
001c700000
00701c0000
00e00e0000
00c00e0000
01e0070000
01f0070000
01f0070000
00e0070000
00000e0000
00000e0000
00001c0000
0000380000
0000300000
0000600000
0000400000
0000c00000
0000800000
0001800000
0001000000
0001000000
0001000000
0000000000
0000000000
0000000000
0003800000
0007c00000
0007c00000
0007c00000
0003800000
0000000000
0000000000
0000000000
ENDCHAR
STARTCHAR 212a
ENCODING 8490
SWIDTH 1020 0
DWIDTH 34 0
BBX 34 35 0 -4
BITMAP
0000000000
0000000000
0003800000
0003800000
0007c00000
0007c00000
0007c00000
0007c00000
0007c00000
0007c00000
0007c00000
0007c00000
0003800000
0003800000
0003800000
0003800000
0003800000
0003800000
0003800000
0001000000
0001000000
0001000000
0001000000
0001000000
0000000000
0000000000
0000000000
0003800000
0007c00000
0007c00000
0007c00000
0003800000
0000000000
0000000000
0000000000
ENDCHAR
STARTCHAR 212b
ENCODING 8491
SWIDTH 1020 0
DWIDTH 34 0
BBX 34 35 0 -4
BITMAP
0000000000
0000000000
0000000000
0000000000
0000000000
0001000000
0003800000
0007c00000
0007c00000
000fe00000
0007c00000
0007c00000
0003800000
0001000000
0000000000
0000000000
0000000000
0000000000
0000000000
0000000000
0000000000
0001000000
0003800000
0007c00000
0007c00000
000fe00000
0007c00000
0007c00000
0003800000
0001000000
0000000000
0000000000
0000000000
0000000000
0000000000
ENDCHAR
STARTCHAR 212c
ENCODING 8492
SWIDTH 1020 0
DWIDTH 34 0
BBX 34 35 0 -4
BITMAP
0000000000
0000000000
0000000000
0000000000
0000000000
0000000000
0000000000
0000000000
0000000000
0000000000
0000000000
0000000000
0000000000
0000000000
0701c07000
0f83e0f800
0f83e0f800
0f83e0f800
0701c07000
0000000000
0000000000
0000000000
0000000000
0000000000
0000000000
0000000000
0000000000
0000000000
0000000000
0000000000
0000000000
0000000000
0000000000
0000000000
0000000000
ENDCHAR
STARTCHAR 212d
ENCODING 8493
SWIDTH 1020 0
DWIDTH 34 0
BBX 34 35 0 -4
BITMAP
0000000000
0000000000
0000000000
0000000000
0000000000
0000000000
0000000000
0000000000
0000000000
0000000000
0000000000
0000000000
0000000000
0000000000
01c0038000
03e007c000
03e007c000
03e007c000
01c0038000
0000000000
0000000000
0000000000
0000000000
0000000000
0000000000
0000000000
0000000000
0000000000
0000000000
0000000000
0000000000
0000000000
0000000000
0000000000
0000000000
ENDCHAR
STARTCHAR 212e
ENCODING 8494
SWIDTH 1020 0
DWIDTH 34 0
BBX 34 35 0 -4
BITMAP
0000000000
0000000000
0000000000
0000000000
0000000000
0000000000
0000000000
0000000000
0000000000
0000000000
0000000000
0000000000
0000000000
0000000000
0000000000
0000000000
0000000000
0000000000
0000000000
0000000000
0000000000
0000000000
0000000000
3800000000
7c00000000
3c00000000
1c00000000
1800000000
1800000000
3000000000
6000000000
0000000000
0000000000
0000000000
0000000000
ENDCHAR
STARTCHAR 212f
ENCODING 8495
SWIDTH 1020 0
DWIDTH 34 0
BBX 34 35 0 -4
BITMAP
0000000000
0000000000
0000000000
0000000000
0000000000
0000000000
0000000000
0000000000
0000000000
0000000000
0000000000
0000000000
0000000000
0000000000
0000000000
0000000000
0000000000
0000000000
0000000000
0000000000
7000000000
1c00000000
0e00000000
0700000000
0780000000
0380000000
03c0000000
03c0000000
03c0000000
0180000000
0000000000
0000000000
0000000000
0000000000
0000000000
ENDCHAR
STARTCHAR 2130
ENCODING 8496
SWIDTH 1020 0
DWIDTH 34 0
BBX 34 35 0 -4
BITMAP
0000000000
0000000000
0000000000
0000000000
0000000000
0000000000
0000000000
0000000000
0000000000
0000000000
0000000000
0000000000
0000000000
0000000000
0000000000
0000000000
0000000000
0000000000
0000000000
0000000000
0000000000
0000000000
0000000000
1c00000000
3e00000000
3e00000000
3e00000000
1c00000000
0000000000
0000000000
0000000000
0000000000
0000000000
0000000000
0000000000
ENDCHAR
STARTCHAR 2131
ENCODING 8497
SWIDTH 1020 0
DWIDTH 34 0
BBX 34 35 0 -4
BITMAP
0000000000
0000000000
0000000000
0000000000
0000000000
0000000000
0000000000
0000000000
0000000000
0000000000
0000000000
0001800000
0007e00000
000ff00000
001ff80000
001ff80000
001ff80000
001ff80000
001ff80000
000ff00000
0007e00000
0001800000
0000000000
0000000000
0000000000
0000000000
0000000000
0000000000
0000000000
0000000000
0000000000
0000000000
0000000000
0000000000
0000000000
ENDCHAR
STARTCHAR 2132
ENCODING 8498
SWIDTH 1020 0
DWIDTH 34 0
BBX 34 35 0 -4
BITMAP
0000000000
0000000000
0000000000
0000000000
0000000000
0000000000
0000000000
0000000000
0700000000
0f80000000
0700000000
0000000000
0000000000
0000000000
0000000000
0000000000
0000000000
0000000000
0000000000
0000000000
0000000000
0700000000
0f80000000
0f80000000
0780000000
0180000000
0300000000
0600000000
0000000000
0000000000
0000000000
0000000000
0000000000
0000000000
0000000000
ENDCHAR
STARTCHAR 2133
ENCODING 8499
SWIDTH 1020 0
DWIDTH 34 0
BBX 34 35 0 -4
BITMAP
0000000000
0000000000
0000000000
0000000000
0000000000
0000000000
0180000000
03c0000000
07e0000000
07e0000000
03c0000000
0180000000
0000000000
0000000000
0000000000
0000000000
0000000000
0000000000
0000000000
0000000000
0000000000
0000000000
0180000000
03c0000000
07e0000000
07e0000000
03c0000000
0180000000
0000000000
0000000000
0000000000
0000000000
0000000000
0000000000
0000000000
ENDCHAR
STARTCHAR 2134
ENCODING 8500
SWIDTH 1020 0
DWIDTH 34 0
BBX 34 35 0 -4
BITMAP
0000000000
0000000000
0000000000
0000000000
07c0000000
1c70000000
3838000000
3018000000
781c000000
781c000000
301c000000
0018000000
0038000000
0060000000
00c0000000
0080000000
0180000000
0100000000
0100000000
0100000000
0100000000
0000000000
0000000000
0000000000
0380000000
07c0000000
0380000000
0000000000
0000000000
0000000000
0000000000
0000000000
0000000000
0000000000
0000000000
ENDCHAR
STARTCHAR 2135
ENCODING 8501
SWIDTH 1020 0
DWIDTH 34 0
BBX 34 35 0 -4
BITMAP
0000000000
0000000000
0000000000
0000000000
0100000000
0380000000
07c0000000
07c0000000
07c0000000
07c0000000
07c0000000
0380000000
0380000000
0380000000
0380000000
0380000000
0100000000
0100000000
0100000000
0100000000
0100000000
0000000000
0000000000
0000000000
0380000000
07c0000000
0380000000
0000000000
0000000000
0000000000
0000000000
0000000000
0000000000
0000000000
0000000000
ENDCHAR
STARTCHAR 2136
ENCODING 8502
SWIDTH 1020 0
DWIDTH 34 0
BBX 34 35 0 -4
BITMAP
0000000000
0001800000
0001800000
0001800000
0001800000
0001800000
0001800000
0001800000
0001800000
0001800000
0001800000
0001800000
0001800000
0001800000
0001800000
0001800000
0001800000
0001800000
0001800000
0001800000
0001800000
0001800000
0001800000
0001800000
0001800000
0001800000
0001800000
0001800000
0001800000
0001800000
0001800000
0001800000
0000000000
0000000000
0000000000
ENDCHAR
STARTCHAR 2137
ENCODING 8503
SWIDTH 1020 0
DWIDTH 34 0
BBX 34 35 0 -4
BITMAP
0000000000
0000000000
0000000000
0000000000
0000000000
0000000000
0000000000
0000000000
0000000000
0000000000
0000000000
0000000000
0000000000
0000000000
0000000000
3ffffffc00
3ffffffc00
0000000000
0000000000
0000000000
0000000000
0000000000
0000000000
0000000000
0000000000
0000000000
0000000000
0000000000
0000000000
0000000000
0000000000
0000000000
0000000000
0000000000
0000000000
ENDCHAR
STARTCHAR 2138
ENCODING 8504
SWIDTH 1020 0
DWIDTH 34 0
BBX 34 35 0 -4
BITMAP
0000000000
0000000000
0000000000
0000000000
0000000000
0000000000
0000000000
0000000000
0000000000
0003000000
0003000000
0003000000
0003000000
0003000000
0003000000
0003000000
0003000000
0003000000
0003000000
0003000000
0003000000
0003000000
0003000000
0003000000
0003000000
0003000000
0003000000
0000000000
0000000000
0000000000
0000000000
0000000000
0000000000
0000000000
0000000000
ENDCHAR
STARTCHAR 2139
ENCODING 8505
SWIDTH 1020 0
DWIDTH 34 0
BBX 34 35 0 -4
BITMAP
0000000000
0000000000
0000000000
0000000000
0000000000
0000000000
0000000000
0000000000
0000000000
0000000000
0000000000
0000000000
0000000000
0000000000
0000000000
00ffff0000
0000000000
0000000000
0000000000
0000000000
0000000000
0000000000
0000000000
0000000000
0000000000
0000000000
0000000000
0000000000
0000000000
0000000000
0000000000
0000000000
0000000000
0000000000
0000000000
ENDCHAR
STARTCHAR 213a
ENCODING 8506
SWIDTH 1020 0
DWIDTH 34 0
BBX 34 35 0 -4
BITMAP
0000000000
0000000300
0000000300
0000000300
0000000300
0000000300
0000000300
0000000300
0000000300
0000000300
0000000300
0000000300
0000000300
0000000300
0000000300
0000000300
0000000300
0000000300
0000000300
0000000300
0000000300
0000000300
0000000300
0000000300
0000000300
0000000300
0000000300
0000000300
0000000300
0000000300
0000000300
0000000300
0000000300
0000000000
0000000000
ENDCHAR
STARTCHAR 213b
ENCODING 8507
SWIDTH 1020 0
DWIDTH 34 0
BBX 34 35 0 -4
BITMAP
0000000000
ffffffff00
ffffffff00
0000000000
0000000000
0000000000
0000000000
0000000000
0000000000
0000000000
0000000000
0000000000
0000000000
0000000000
0000000000
0000000000
0000000000
0000000000
0000000000
0000000000
0000000000
0000000000
0000000000
0000000000
0000000000
0000000000
0000000000
0000000000
0000000000
0000000000
0000000000
0000000000
0000000000
0000000000
0000000000
ENDCHAR
STARTCHAR 213c
ENCODING 8508
SWIDTH 1020 0
DWIDTH 34 0
BBX 34 35 0 -4
BITMAP
0000000000
0000006000
0000003000
0000001800
0000000c00
0000000600
0000000300
0000000600
0000000c00
0000001800
0000003000
0000006000
0000006000
0000003000
0000001800
0000000c00
0000000600
0000000300
0000000600
0000000c00
0000001800
0000003000
0000006000
0000006000
0000003000
0000001800
0000000c00
0000000600
0000000300
0000000600
0000000c00
0000001800
0000003000
0000000000
0000000000
ENDCHAR
STARTCHAR 213d
ENCODING 8509
SWIDTH 1020 0
DWIDTH 34 0
BBX 34 35 0 -4
BITMAP
0000000000
0400801000
0e01c03800
1b03606c00
318630c600
60cc198300
c0780f0100
8030060000
0000000000
0000000000
0000000000
0000000000
0000000000
0000000000
0000000000
0000000000
0000000000
0000000000
0000000000
0000000000
0000000000
0000000000
0000000000
0000000000
0000000000
0000000000
0000000000
0000000000
0000000000
0000000000
0000000000
0000000000
0000000000
0000000000
0000000000
ENDCHAR
STARTCHAR 213e
ENCODING 8510
SWIDTH 1020 0
DWIDTH 34 0
BBX 34 35 0 -4
BITMAP
0000000000
0000000800
0000001000
0000003000
0000006000
0000006000
000000c000
000000c000
0000018000
0000018000
0000038000
0000038000
0000030000
0000030000
0000070000
0000070000
0000070000
0000070000
0000070000
0000070000
0000030000
0000030000
0000038000
0000038000
0000018000
0000018000
000000c000
000000c000
0000006000
0000006000
0000003000
0000001000
0000000800
0000000000
0000000000
ENDCHAR
STARTCHAR 213f
ENCODING 8511
SWIDTH 1020 0
DWIDTH 34 0
BBX 34 35 0 -4
BITMAP
0000000000
1000000000
0800000000
0c00000000
0600000000
0600000000
0300000000
0300000000
0180000000
0180000000
01c0000000
01c0000000
00c0000000
00c0000000
00e0000000
00e0000000
00e0000000
00e0000000
00e0000000
00e0000000
00c0000000
00c0000000
01c0000000
01c0000000
0180000000
0180000000
0300000000
0300000000
0600000000
0600000000
0c00000000
0800000000
1000000000
0000000000
0000000000
ENDCHAR
STARTCHAR 2140
ENCODING 8512
SWIDTH 1020 0
DWIDTH 34 0
BBX 34 35 0 -4
BITMAP
0000000000
0000000000
0000000000
0000000000
0000000000
0000000000
0000000000
0000000000
0000000000
0000000000
0000000000
0000000000
0000000000
0000000000
0000000000
0000000000
0000000000
0000000000
0000000000
0000000000
0000000000
0000000000
0003c00000
003ffc0000
01ffff8000
03e00fc000
0f0001f000
1c00007800
3800001c00
7000000e00
6000000600
0000000000
0000000000
0000000000
0000000000
ENDCHAR
STARTCHAR 2141
ENCODING 8513
SWIDTH 1020 0
DWIDTH 34 0
BBX 34 35 0 -4
BITMAP
0000000000
0000000000
0000000000
6000000600
7000000e00
3800001c00
1c00003800
0f0000f000
03e007c000
01ffff8000
003ffc0000
0003c00000
0000000000
0000000000
0000000000
0000000000
0000000000
0000000000
0000000000
0000000000
0000000000
0000000000
0000000000
0000000000
0000000000
0000000000
0000000000
0000000000
0000000000
0000000000
0000000000
0000000000
0000000000
0000000000
0000000000
ENDCHAR
STARTCHAR 2142
ENCODING 8514
SWIDTH 1020 0
DWIDTH 34 0
BBX 34 35 0 -4
BITMAP
0000000000
0000003c00
0000006000
000000c000
000000c000
000001c000
000001c000
000001c000
000001c000
000000c000
000000e000
000000e000
000000e000
000000e000
000000c000
000000c000
0000078000
0000078000
000000c000
000000c000
000000e000
000000e000
000000e000
000000e000
000000c000
000001c000
000001c000
000001c000
000001c000
000000c000
000000c000
0000006000
0000003c00
0000000000
0000000000
ENDCHAR
STARTCHAR 2143
ENCODING 8515
SWIDTH 1020 0
DWIDTH 34 0
BBX 34 35 0 -4
BITMAP
0000000000
3c00000000
0600000000
0300000000
0300000000
0380000000
0380000000
0380000000
0380000000
0300000000
0700000000
0700000000
0700000000
0700000000
0300000000
0300000000
01e0000000
01e0000000
0300000000
0300000000
0700000000
0700000000
0700000000
0700000000
0300000000
0380000000
0380000000
0380000000
0380000000
0300000000
0300000000
0600000000
3c00000000
0000000000
0000000000
ENDCHAR
STARTCHAR 2144
ENCODING 8516
SWIDTH 1020 0
DWIDTH 34 0
BBX 34 35 0 -4
BITMAP
0000000000
0000000000
0000000000
0000000000
0000000000
0000000000
0000000000
0000000000
0000000000
0000000000
0000000000
0000000000
0000000000
0000000000
0000000000
0000000000
0000000000
0000000000
0000000000
0000000000
0000000000
0000000000
0000000000
0000000000
0003800000
0007c00000
001ef00000
0ffe7ff000
3ff81ffc00
7000000e00
6000000600
0000000000
0000000000
0000000000
0000000000
ENDCHAR
STARTCHAR 2145
ENCODING 8517
SWIDTH 1020 0
DWIDTH 34 0
BBX 34 35 0 -4
BITMAP
0000000000
0000000000
0000000000
6000000600
7000000e00
3ffc3ffc00
0ffe7ff000
001ef00000
0007c00000
0003800000
0000000000
0000000000
0000000000
0000000000
0000000000
0000000000
0000000000
0000000000
0000000000
0000000000
0000000000
0000000000
0000000000
0000000000
0000000000
0000000000
0000000000
0000000000
0000000000
0000000000
0000000000
0000000000
0000000000
0000000000
0000000000
ENDCHAR
STARTCHAR 2146
ENCODING 8518
SWIDTH 1020 0
DWIDTH 34 0
BBX 34 35 0 -4
BITMAP
0000000000
0000000c00
0000003800
000000e000
0000038000
0000020000
0000020000
0000020000
0000020000
0000020000
0000020000
0000020000
0000020000
0000020000
0000020000
0000020000
0000020000
0000020000
0000020000
0000020000
0000020000
0000020000
0000020000
0000020000
0000020000
0000020000
0000020000
0000020000
0000020000
0000038000
000000e000
0000003800
0000000c00
0000000000
0000000000
ENDCHAR
STARTCHAR 2147
ENCODING 8519
SWIDTH 1020 0
DWIDTH 34 0
BBX 34 35 0 -4
BITMAP
0000000000
3000000000
1c00000000
0700000000
01c0000000
0040000000
0040000000
0040000000
0040000000
0040000000
0040000000
0040000000
0040000000
0040000000
0040000000
0040000000
0040000000
0040000000
0040000000
0040000000
0040000000
0040000000
0040000000
0040000000
0040000000
0040000000
0040000000
0040000000
0040000000
01c0000000
0700000000
1c00000000
3000000000
0000000000
0000000000
ENDCHAR
STARTCHAR 2148
ENCODING 8520
SWIDTH 1020 0
DWIDTH 34 0
BBX 34 35 0 -4
BITMAP
0000000000
0000000000
0000000000
0000000000
0000000000
0000000000
0000000000
0000000000
0000000000
0000000000
0000000000
0000000000
0000000000
0000000000
0000000000
0000000000
0000000000
0000000000
0000000000
0000000000
0000000000
0000000000
0ffffff000
0ffffff000
1c00003800
1800001800
3800001c00
3000000c00
7000000e00
6000000600
6000000600
0000000000
0000000000
0000000000
0000000000
ENDCHAR
STARTCHAR 2149
ENCODING 8521
SWIDTH 1020 0
DWIDTH 34 0
BBX 34 35 0 -4
BITMAP
0000000000
0000000000
0000000000
6000000600
6000000600
7000000e00
3000000c00
3800001c00
1800001800
1c00003800
0ffffff000
0ffffff000
0000000000
0000000000
0000000000
0000000000
0000000000
0000000000
0000000000
0000000000
0000000000
0000000000
0000000000
0000000000
0000000000
0000000000
0000000000
0000000000
0000000000
0000000000
0000000000
0000000000
0000000000
0000000000
0000000000
ENDCHAR
STARTCHAR 214a
ENCODING 8522
SWIDTH 1020 0
DWIDTH 34 0
BBX 34 35 0 -4
BITMAP
0000000000
00001ff800
00001ff000
00001fe000
00001fc000
00001fc000
00001f8000
00001f8000
00001f0000
00001f0000
00001e0000
00001e0000
00001e0000
00001c0000
00001c0000
00001c0000
00001c0000
00001c0000
00001c0000
00001c0000
00001c0000
00001e0000
00001e0000
00001e0000
00001f0000
00001f0000
00001f8000
00001f8000
00001fc000
00001fc000
00001fe000
00001ff000
00001ff800
0000000000
0000000000
ENDCHAR
STARTCHAR 214b
ENCODING 8523
SWIDTH 1020 0
DWIDTH 34 0
BBX 34 35 0 -4
BITMAP
0000000000
1ff8000000
0ff8000000
07f8000000
03f8000000
03f8000000
01f8000000
00f8000000
00f8000000
0078000000
0078000000
0078000000
0038000000
0038000000
0038000000
0038000000
0038000000
0038000000
0038000000
0038000000
0038000000
0078000000
0078000000
0078000000
00f8000000
00f8000000
01f8000000
01f8000000
03f8000000
03f8000000
07f8000000
0ff8000000
1ff8000000
0000000000
0000000000
ENDCHAR
STARTCHAR 214c
ENCODING 8524
SWIDTH 1020 0
DWIDTH 34 0
BBX 34 35 0 -4
BITMAP
0000000000
0000000000
0000000000
0000000000
0000000000
0000000000
0000000000
0000000000
0000000000
0000000000
0000000000
0000000000
0000000000
0000000000
0000000000
0000000000
0000000000
0000000000
0000000000
0000000000
0000000000
0000000000
0000000000
7ffffffe00
7ffffffe00
7ffffffe00
7fe007fe00
7f0000fe00
7800001e00
7000000e00
6000000600
0000000000
0000000000
0000000000
0000000000
ENDCHAR
STARTCHAR 214d
ENCODING 8525
SWIDTH 1020 0
DWIDTH 34 0
BBX 34 35 0 -4
BITMAP
0000000000
0000000000
0000000000
6000000600
7000000e00
7800001e00
7f0000fe00
7fe007fe00
7ffffffe00
7ffffffe00
7ffffffe00
0000000000
0000000000
0000000000
0000000000
0000000000
0000000000
0000000000
0000000000
0000000000
0000000000
0000000000
0000000000
0000000000
0000000000
0000000000
0000000000
0000000000
0000000000
0000000000
0000000000
0000000000
0000000000
0000000000
0000000000
ENDCHAR
STARTCHAR 214e
ENCODING 8526
SWIDTH 1020 0
DWIDTH 34 0
BBX 34 35 0 -4
BITMAP
0000000000
0000010800
0000031800
0000021000
0000063000
0000042000
00000c6000
0000084000
000018c000
0000108000
0000318000
0000210000
0000630000
0000420000
0000c60000
0000840000
00018c0000
00018c0000
0000840000
0000c60000
0000420000
0000630000
0000210000
0000318000
0000108000
000018c000
0000084000
00000c6000
0000042000
0000063000
0000021000
0000031800
0000010800
0000000000
0000000000
ENDCHAR
STARTCHAR 214f
ENCODING 8527
SWIDTH 1020 0
DWIDTH 34 0
BBX 34 35 0 -4
BITMAP
0000000000
1080000000
18c0000000
0840000000
0c60000000
0420000000
0630000000
0210000000
0318000000
0108000000
018c000000
0084000000
00c6000000
0042000000
0063000000
0021000000
0031800000
0031800000
0021000000
0063000000
0042000000
00c6000000
0084000000
018c000000
0108000000
0318000000
0210000000
0630000000
0420000000
0c60000000
0840000000
18c0000000
1080000000
0000000000
0000000000
ENDCHAR
STARTCHAR 2150
ENCODING 8528
SWIDTH 1020 0
DWIDTH 34 0
BBX 34 35 0 -4
BITMAP
0000000000
0000000000
0000000000
0000000000
0000000000
0000000000
0000000000
0000000000
0000000000
0000000000
0000000000
0000000000
0000000000
0000000000
0000000000
0001800000
0007e00000
000ff00000
003c3c0000
00799e0000
01e7e78000
03cff3c000
0f3c3cf000
0e781e7000
09e0079000
03c003c000
0f0000f000
0e00007000
0800001000
0000000000
0000000000
0000000000
0000000000
0000000000
0000000000
ENDCHAR
STARTCHAR 2151
ENCODING 8529
SWIDTH 1020 0
DWIDTH 34 0
BBX 34 35 0 -4
BITMAP
0000000000
0000000000
0000000000
0000000000
0800001000
0e00007000
0f0000f000
03c003c000
09e0079000
0e781e7000
0f3c3cf000
03cff3c000
01e7e78000
00799e0000
003c3c0000
000ff00000
0007e00000
0001800000
0000000000
0000000000
0000000000
0000000000
0000000000
0000000000
0000000000
0000000000
0000000000
0000000000
0000000000
0000000000
0000000000
0000000000
0000000000
0000000000
0000000000
ENDCHAR
STARTCHAR 2152
ENCODING 8530
SWIDTH 1020 0
DWIDTH 34 0
BBX 34 35 0 -4
BITMAP
0000000000
0000000800
0000001800
0000001000
0000003000
0000002000
0000006000
0000004000
000000c000
0000008000
0000018000
0000010000
0000030000
0000020000
0000060000
0000040000
00000c0000
00000c0000
0000040000
0000060000
0000020000
0000030000
0000010000
0000018000
0000008000
000000c000
0000004000
0000006000
0000002000
0000003000
0000001000
0000001800
0000000800
0000000000
0000000000
ENDCHAR
STARTCHAR 2153
ENCODING 8531
SWIDTH 1020 0
DWIDTH 34 0
BBX 34 35 0 -4
BITMAP
0000000000
1000000000
1800000000
0800000000
0c00000000
0400000000
0600000000
0200000000
0300000000
0100000000
0180000000
0080000000
00c0000000
0040000000
0060000000
0020000000
0030000000
0030000000
0020000000
0060000000
0040000000
00c0000000
0080000000
0180000000
0100000000
0300000000
0200000000
0600000000
0400000000
0c00000000
0800000000
1800000000
1000000000
0000000000
0000000000
ENDCHAR
STARTCHAR 2154
ENCODING 8532
SWIDTH 1020 0
DWIDTH 34 0
BBX 34 35 0 -4
BITMAP
0000000000
0000000000
0000000000
0000000000
0000000000
0000000000
0000000000
0000000000
0000000000
0000000000
0000000000
0000000000
0000000000
0000000000
0000000000
0000000000
0000000000
0000000000
0000000000
0001800000
0007e00000
000ff00000
003c3c0000
00781e0000
01e0078000
03c003c000
0f0000f000
0e00007000
0800001000
0000000000
0000000000
0000000000
0000000000
0000000000
0000000000
ENDCHAR
STARTCHAR 2155
ENCODING 8533
SWIDTH 1020 0
DWIDTH 34 0
BBX 34 35 0 -4
BITMAP
0000000000
0000000000
0000000000
0000000000
0800001000
0e00007000
0f0000f000
03c003c000
01e0078000
00781e0000
003c3c0000
000ff00000
0007e00000
0001800000
0000000000
0000000000
0000000000
0000000000
0000000000
0000000000
0000000000
0000000000
0000000000
0000000000
0000000000
0000000000
0000000000
0000000000
0000000000
0000000000
0000000000
0000000000
0000000000
0000000000
0000000000
ENDCHAR
STARTCHAR 2156
ENCODING 8534
SWIDTH 1020 0
DWIDTH 34 0
BBX 34 35 0 -4
BITMAP
0000000000
00003ff800
00003ff800
0000300000
0000300000
0000300000
0000300000
0000300000
0000300000
0000300000
0000300000
0000300000
0000300000
0000300000
0000300000
0000300000
0000300000
0000300000
0000300000
0000300000
0000300000
0000000000
0000000000
0000000000
0000000000
0000000000
0000000000
0000000000
0000000000
0000000000
0000000000
0000000000
0000000000
0000000000
0000000000
ENDCHAR
STARTCHAR 2157
ENCODING 8535
SWIDTH 1020 0
DWIDTH 34 0
BBX 34 35 0 -4
BITMAP
0000000000
0000000000
0000000000
0000000000
0000000000
0000000000
0000000000
0000000000
0000000000
0000000000
0000000000
0000000000
0000000000
000c000000
000c000000
000c000000
000c000000
000c000000
000c000000
000c000000
000c000000
000c000000
000c000000
000c000000
000c000000
000c000000
000c000000
000c000000
000c000000
000c000000
000c000000
1ffc000000
1ffc000000
0000000000
0000000000
ENDCHAR
STARTCHAR 2158
ENCODING 8536
SWIDTH 1020 0
DWIDTH 34 0
BBX 34 35 0 -4
BITMAP
0000000000
0000000000
0000000000
0000000000
0000000000
0000000000
0000000000
0000000000
0000000000
0000000000
0000000000
0000000000
0000000000
0000000000
0000000000
0000000000
0000000000
7fffffe000
7fffffe000
0000006000
0000006000
0000006000
0000006000
0000006000
0000006000
0000006000
0000006000
0000006000
0000006000
0000006000
0000006000
0000000000
0000000000
0000000000
0000000000
ENDCHAR
STARTCHAR 2159
ENCODING 8537
SWIDTH 1020 0
DWIDTH 34 0
BBX 34 35 0 -4
BITMAP
0000000000
0000000000
0000000000
0600000000
0600000000
0600000000
0600000000
0600000000
0600000000
0600000000
0600000000
0600000000
0600000000
0600000000
0600000000
07fffffe00
07fffffe00
0000000000
0000000000
0000000000
0000000000
0000000000
0000000000
0000000000
0000000000
0000000000
0000000000
0000000000
0000000000
0000000000
0000000000
0000000000
0000000000
0000000000
0000000000
ENDCHAR
STARTCHAR 215a
ENCODING 8538
SWIDTH 1020 0
DWIDTH 34 0
BBX 34 35 0 -4
BITMAP
0000000000
0000fff800
0000800800
0000800800
0000800800
00008ff800
0000880000
0000880000
0000880000
0000880000
0000880000
0000880000
0000880000
0000880000
0000880000
0000880000
0000880000
0000880000
0000880000
0000880000
0000880000
0000f80000
0000000000
0000000000
0000000000
0000000000
0000000000
0000000000
0000000000
0000000000
0000000000
0000000000
0000000000
0000000000
0000000000
ENDCHAR
STARTCHAR 215b
ENCODING 8539
SWIDTH 1020 0
DWIDTH 34 0
BBX 34 35 0 -4
BITMAP
0000000000
0000000000
0000000000
0000000000
0000000000
0000000000
0000000000
0000000000
0000000000
0000000000
0000000000
0000000000
001f000000
0011000000
0011000000
0011000000
0011000000
0011000000
0011000000
0011000000
0011000000
0011000000
0011000000
0011000000
0011000000
0011000000
0011000000
0011000000
1ff1000000
1001000000
1001000000
1001000000
1fff000000
0000000000
0000000000
ENDCHAR
STARTCHAR 215c
ENCODING 8540
SWIDTH 1020 0
DWIDTH 34 0
BBX 34 35 0 -4
BITMAP
0000000000
0000000000
0000000000
0000000000
0000000000
0000000000
0000000000
0000000000
0000000000
0000000000
0000000000
0000000000
0000000000
0000000000
0000000000
0000000000
0000000000
7fffffe000
7fffffe000
7000006000
7000006000
7ffffe6000
7ffffe6000
0000066000
0000066000
0000066000
0000066000
0000066000
0000066000
000007e000
000007e000
0000000000
0000000000
0000000000
0000000000
ENDCHAR
STARTCHAR 215d
ENCODING 8541
SWIDTH 1020 0
DWIDTH 34 0
BBX 34 35 0 -4
BITMAP
0000000000
0000000000
0000000000
07e0000000
07e0000000
0660000000
0660000000
0660000000
0660000000
0660000000
0660000000
067ffffe00
067ffffe00
0600000e00
0600000e00
07fffffe00
07fffffe00
0000000000
0000000000
0000000000
0000000000
0000000000
0000000000
0000000000
0000000000
0000000000
0000000000
0000000000
0000000000
0000000000
0000000000
0000000000
0000000000
0000000000
0000000000
ENDCHAR
STARTCHAR 215e
ENCODING 8542
SWIDTH 1020 0
DWIDTH 34 0
BBX 34 35 0 -4
BITMAP
0000000000
0000000000
0000000000
0000300000
0000e00000
0001800000
0003000000
0007000000
0006000000
000e000000
000c000000
001c000000
0018000000
0018000000
0038000000
0038000000
0038000000
0038000000
0018000000
0018000000
001c000000
000c000000
000e000000
0006000000
0007000000
0003000000
0001800000
0000e00000
0000300000
0000000000
0000000000
0000000000
0000000000
0000000000
0000000000
ENDCHAR
STARTCHAR 215f
ENCODING 8543
SWIDTH 1020 0
DWIDTH 34 0
BBX 34 35 0 -4
BITMAP
0000000000
0000000000
0000000000
0030000000
001c000000
0006000000
0003000000
0003800000
0001800000
0001c00000
0000c00000
0000e00000
0000600000
0000600000
0000700000
0000700000
0000700000
0000700000
0000600000
0000600000
0000e00000
0000c00000
0001c00000
0001800000
0003800000
0003000000
0006000000
001c000000
0030000000
0000000000
0000000000
0000000000
0000000000
0000000000
0000000000
ENDCHAR
STARTCHAR 2160
ENCODING 8544
SWIDTH 1020 0
DWIDTH 34 0
BBX 34 35 0 -4
BITMAP
0000000000
0000000000
0000000000
0000000000
0000700000
0000c00000
0001800000
0003800000
0003000000
0003000000
0003000000
0003000000
0003000000
0006000000
000c000000
0018000000
000c000000
0006000000
0003000000
0003000000
0003000000
0003000000
0003000000
0003800000
0001800000
0000c00000
0000700000
0000000000
0000000000
0000000000
0000000000
0000000000
0000000000
0000000000
0000000000
ENDCHAR
STARTCHAR 2161
ENCODING 8545
SWIDTH 1020 0
DWIDTH 34 0
BBX 34 35 0 -4
BITMAP
0000000000
0000000000
0000000000
0000000000
0000000000
0038000000
000c000000
0006000000
0007000000
0003000000
0003000000
0003000000
0003000000
0003000000
0001800000
0000c00000
0000600000
0000c00000
0001800000
0003000000
0003000000
0003000000
0003000000
0003000000
0007000000
0006000000
000c000000
0038000000
0000000000
0000000000
0000000000
0000000000
0000000000
0000000000
0000000000
ENDCHAR
STARTCHAR 2162
ENCODING 8546
SWIDTH 1020 0
DWIDTH 34 0
BBX 34 35 0 -4
BITMAP
0000000000
0000000000
0000000000
0000000000
0000000000
0003000000
000f000000
003c000000
0030000000
0030000000
0030000000
0030000000
0030000000
0030000000
0030000000
0030000000
0030000000
0030000000
0030000000
0030000000
0030000000
003c000000
000f000000
0003000000
0000000000
0000000000
0000000000
0000000000
0000000000
0000000000
0000000000
0000000000
0000000000
0000000000
0000000000
ENDCHAR
STARTCHAR 2163
ENCODING 8547
SWIDTH 1020 0
DWIDTH 34 0
BBX 34 35 0 -4
BITMAP
0000000000
0000000000
0000000000
0000000000
0000000000
0003000000
0003c00000
0000f00000
0000300000
0000300000
0000300000
0000300000
0000300000
0000300000
0000300000
0000300000
0000300000
0000300000
0000300000
0000300000
0000300000
0000f00000
0003c00000
0003000000
0000000000
0000000000
0000000000
0000000000
0000000000
0000000000
0000000000
0000000000
0000000000
0000000000
0000000000
ENDCHAR
STARTCHAR 2164
ENCODING 8548
SWIDTH 1020 0
DWIDTH 34 0
BBX 34 35 0 -4
BITMAP
0000000000
0000003000
0000006000
000000c000
0000018000
000001e000
000001f000
000001f000
000001f000
000000e000
0000000000
0000000000
0000000000
0000000000
0000000000
0000000000
0000000000
0000000000
0000000000
0000000000
0000000000
0000000000
0000000000
0000000000
0000000000
0000000000
0000000000
0000000000
0000000000
0000000000
0000000000
0000000000
0000000000
0000000000
0000000000
ENDCHAR
STARTCHAR 2165
ENCODING 8549
SWIDTH 1020 0
DWIDTH 34 0
BBX 34 35 0 -4
BITMAP
0000000000
0700000000
0f80000000
0f80000000
0f80000000
0780000000
0180000000
0300000000
0600000000
0c00000000
0000000000
0000000000
0000000000
0000000000
0000000000
0000000000
0000000000
0000000000
0000000000
0000000000
0000000000
0000000000
0000000000
0000000000
0000000000
0000000000
0000000000
0000000000
0000000000
0000000000
0000000000
0000000000
0000000000
0000000000
0000000000
ENDCHAR
STARTCHAR 2166
ENCODING 8550
SWIDTH 1020 0
DWIDTH 34 0
BBX 34 35 0 -4
BITMAP
0000000000
0000181800
0000303000
0000606000
0000c0c000
0000f0f000
0000f8f800
0000f8f800
0000f8f800
0000707000
0000000000
0000000000
0000000000
0000000000
0000000000
0000000000
0000000000
0000000000
0000000000
0000000000
0000000000
0000000000
0000000000
0000000000
0000000000
0000000000
0000000000
0000000000
0000000000
0000000000
0000000000
0000000000
0000000000
0000000000
0000000000
ENDCHAR
STARTCHAR 2167
ENCODING 8551
SWIDTH 1020 0
DWIDTH 34 0
BBX 34 35 0 -4
BITMAP
0000000000
0e0e000000
1f1f000000
1f1f000000
1f1f000000
0f0f000000
0303000000
0606000000
0c0c000000
1818000000
0000000000
0000000000
0000000000
0000000000
0000000000
0000000000
0000000000
0000000000
0000000000
0000000000
0000000000
0000000000
0000000000
0000000000
0000000000
0000000000
0000000000
0000000000
0000000000
0000000000
0000000000
0000000000
0000000000
0000000000
0000000000
ENDCHAR
STARTCHAR 2168
ENCODING 8552
SWIDTH 1020 0
DWIDTH 34 0
BBX 34 35 0 -4
BITMAP
0000000000
0000000000
0000000000
79e0000000
1e78000000
0f3c000000
079e000000
07df000000
03cf000000
03cf000000
038e000000
0000000000
0000000000
0000000000
0000000000
0000000000
0000000000
0000000000
0000000000
0000000000
0000000000
0000000000
0000000000
0000000000
0000000000
0000000000
0000000000
0000000000
0000000000
0000000000
0000000000
0000000000
0000000000
0000000000
0000000000
ENDCHAR
STARTCHAR 2169
ENCODING 8553
SWIDTH 1020 0
DWIDTH 34 0
BBX 34 35 0 -4
BITMAP
0000000000
0000000000
0000000000
0000071c00
0000079e00
0000079e00
00000fbe00
00000f3c00
00001e7800
00003cf000
0000f3c000
0000000000
0000000000
0000000000
0000000000
0000000000
0000000000
0000000000
0000000000
0000000000
0000000000
0000000000
0000000000
0000000000
0000000000
0000000000
0000000000
0000000000
0000000000
0000000000
0000000000
0000000000
0000000000
0000000000
0000000000
ENDCHAR
STARTCHAR 216a
ENCODING 8554
SWIDTH 1020 0
DWIDTH 34 0
BBX 34 35 0 -4
BITMAP
0000000000
000c000000
001f000000
0007c00000
0000f80000
00000f0000
0000000000
0000000000
0000000000
0000000000
0000000000
0000000000
0000000000
0000000000
0000000000
0000000000
0000000000
0000000000
0000000000
0000000000
0000000000
0000000000
0000000000
0000000000
0000000000
0000000000
0000000000
0000000000
0000000000
0000000000
0000000000
0000000000
0000000000
0000000000
0000000000
ENDCHAR
STARTCHAR 216b
ENCODING 8555
SWIDTH 1020 0
DWIDTH 34 0
BBX 34 35 0 -4
BITMAP
0000000000
0000300000
0000f80000
0003e00000
001f000000
00f0000000
0000000000
0000000000
0000000000
0000000000
0000000000
0000000000
0000000000
0000000000
0000000000
0000000000
0000000000
0000000000
0000000000
0000000000
0000000000
0000000000
0000000000
0000000000
0000000000
0000000000
0000000000
0000000000
0000000000
0000000000
0000000000
0000000000
0000000000
0000000000
0000000000
ENDCHAR
STARTCHAR 216c
ENCODING 8556
SWIDTH 1020 0
DWIDTH 34 0
BBX 34 35 0 -4
BITMAP
0000000000
0000000000
0030180000
0030180000
0030180000
0030180000
0030180000
0030180000
0030180000
0030180000
00301fe000
003ff80000
0ff0180000
0030180000
0030180000
0030180000
0030180000
0030180000
0030180000
0030180000
00301fe000
003ff80000
0ff0180000
0030180000
0030180000
0030180000
0030180000
0030180000
0030180000
0030180000
0030180000
0030180000
0000000000
0000000000
0000000000
ENDCHAR
STARTCHAR 216d
ENCODING 8557
SWIDTH 1020 0
DWIDTH 34 0
BBX 34 35 0 -4
BITMAP
0000000000
0000000000
0000000000
001e000000
0073800000
00e1c00000
00e1c00000
01c0e00000
01c0e00000
01c0e00000
01c0c00000
00e1c00000
00f3800000
0077000000
003c000000
003c000000
007e000000
01ce000000
038707f000
0707808000
0703c18000
0e01c10000
0e00e30000
0e00f20000
0e007e0000
0e003c0000
07001c0000
07003e0000
03806f0000
01c1c78000
007f01f800
0000000000
0000000000
0000000000
0000000000
ENDCHAR
STARTCHAR 216e
ENCODING 8558
SWIDTH 1020 0
DWIDTH 34 0
BBX 34 35 0 -4
BITMAP
0000000000
0000000000
0000000000
0000000000
0001800000
0001800000
0e01807000
070180e000
038181c000
01c1838000
00e1870000
00718e0000
00399c0000
001db80000
000ff00000
3ffffffc00
3ffffffc00
000ff00000
001db80000
00399c0000
00718e0000
00e1870000
01c1838000
038181c000
070180e000
0e01807000
0c01803000
0001800000
0001800000
0000000000
0000000000
0000000000
0000000000
0000000000
0000000000
ENDCHAR
STARTCHAR 216f
ENCODING 8559
SWIDTH 1020 0
DWIDTH 34 0
BBX 34 35 0 -4
BITMAP
0000000000
0000000000
0000000000
0000000000
0801800800
0c03c01800
0603c03000
0301806000
018000c000
00c0018000
0060030000
0030060000
00180c0000
000c180000
0006300000
0c03603000
1e01c07800
1e01c07800
0c03603000
0006300000
000c180000
00180c0000
0030060000
0060030000
00c0018000
018000c000
0301806000
0603c03000
0c03c01800
0801800000
0000000000
0000000000
0000000000
0000000000
0000000000
ENDCHAR
STARTCHAR 2170
ENCODING 8560
SWIDTH 1020 0
DWIDTH 34 0
BBX 34 35 0 -4
BITMAP
0000000000
0000000000
0003c00000
000e700000
0008180000
00180c0000
00181c0000
00183c0000
00083c0000
000c180000
0006000000
0003800000
0007e00000
000c300000
0008180000
0018080000
00180c0000
00180c0000
00080c0000
000c080000
0006180000
0003f00000
0000e00000
0000700000
0000180000
000c0c0000
001e0c0000
001e0c0000
001c0c0000
000c080000
0007380000
0001e00000
0000000000
0000000000
0000000000
ENDCHAR
STARTCHAR 2171
ENCODING 8561
SWIDTH 1020 0
DWIDTH 34 0
BBX 34 35 0 -4
BITMAP
0000000000
0000000000
0000000000
0000000000
0000000000
0000000000
0000000000
0000000000
000fe3f800
000fc3f000
000f83e000
001f87c000
001f07c000
003e0f8000
003c0f0000
007c1f0000
00781e0000
00f03c0000
00e0380000
01c0700000
0380e00000
0380e00000
0701c00000
0601800000
0c03000000
0802000000
0000000000
0000000000
0000000000
0000000000
0000000000
0000000000
0000000000
0000000000
0000000000
ENDCHAR
STARTCHAR 2172
ENCODING 8562
SWIDTH 1020 0
DWIDTH 34 0
BBX 34 35 0 -4
BITMAP
0000000000
0000000000
0000000000
0007e00000
003ffc0000
00f81f0000
01c0038000
038001c000
070000e000
0e00007000
0c00003000
1800001800
1800001800
1800001800
3000000c00
3000000c00
3000000c00
3000000c00
3000000c00
3000000c00
1800001800
1800001800
1800001800
0c00003000
0e00007000
070000e000
038001c000
01c0038000
00f81f0000
003ffc0000
0007e00000
0000000000
0000000000
0000000000
0000000000
ENDCHAR
STARTCHAR 2173
ENCODING 8563
SWIDTH 1020 0
DWIDTH 34 0
BBX 34 35 0 -4
BITMAP
0000000000
0000000000
0000000000
0007e00000
003ffc0000
00ffff0000
01ffff8000
03ffffc000
07ffffe000
0ffffff000
0ffffff000
1ffffff800
1ffffff800
1ffffff800
3ffffffc00
3ffffffc00
3ffffffc00
3ffffffc00
3ffffffc00
3ffffffc00
1ffffff800
1ffffff800
1ffffff800
0ffffff000
0ffffff000
07ffffe000
03ffffc000
01ffff8000
00ffff0000
003ffc0000
0007e00000
0000000000
0000000000
0000000000
0000000000
ENDCHAR
STARTCHAR 2174
ENCODING 8564
SWIDTH 1020 0
DWIDTH 34 0
BBX 34 35 0 -4
BITMAP
0000000000
0000000000
0000000000
0001800000
0001800000
0003c00000
0002400000
0006600000
0004200000
000c300000
0008100000
0018180000
0010080000
00300c0000
0020040000
0060060000
0040020000
00c0030000
0080010000
0180018000
0100008000
030000c000
0200004000
0600006000
0400002000
0c00003000
0800001000
1800001800
1000000800
3ffffffc00
0000000000
0000000000
0000000000
0000000000
0000000000
ENDCHAR
STARTCHAR 2175
ENCODING 8565
SWIDTH 1020 0
DWIDTH 34 0
BBX 34 35 0 -4
BITMAP
0000000000
0000000000
0000000000
0001800000
0001800000
0003c00000
0003c00000
0007e00000
0007e00000
000ff00000
000ff00000
001ff80000
001ff80000
003ffc0000
003ffc0000
007ffe0000
007ffe0000
00ffff0000
00ffff0000
01ffff8000
01ffff8000
03ffffc000
03ffffc000
07ffffe000
07ffffe000
0ffffff000
0ffffff000
1ffffff800
1ffffff800
3ffffffc00
0000000000
0000000000
0000000000
0000000000
0000000000
ENDCHAR
STARTCHAR 2176
ENCODING 8566
SWIDTH 1020 0
DWIDTH 34 0
BBX 34 35 0 -4
BITMAP
0000000000
0000000000
000ff00000
007ffe0000
01f00f8000
038001c000
070000e000
0e07e07000
1c1ff83800
18781e1800
30e0070c00
30c0030c00
3180018c00
6180018600
630000c600
630000c600
630000c600
630000c600
630000c600
630000c600
6180018600
3180018c00
30c0030c00
30e0070c00
18781e1800
1c1ff83800
0e07e07000
070000e000
038001c000
01f00f8000
007ffe0000
000ff00000
0000000000
0000000000
0000000000
ENDCHAR
STARTCHAR 2177
ENCODING 8567
SWIDTH 1020 0
DWIDTH 34 0
BBX 34 35 0 -4
BITMAP
0000000000
0000800000
0001c00000
0001400000
0001400000
0003600000
0002200000
0006300000
0004100000
0004100000
000c180000
0008080000
00180c0000
fff007ff00
6000000600
1000000800
0800001000
0600006000
0100008000
0080010000
0040020000
0040020000
0040020000
00c1830000
0082410000
0184218000
0108108000
031008c000
0220044000
0240024000
078001e000
0600006000
0400002000
0000000000
0000000000
ENDCHAR
STARTCHAR 2178
ENCODING 8568
SWIDTH 1020 0
DWIDTH 34 0
BBX 34 35 0 -4
BITMAP
0000000000
0000800000
0001c00000
0001c00000
0001c00000
0003e00000
0003e00000
0007f00000
0007f00000
0007f00000
000ff80000
000ff80000
001ffc0000
ffffffff00
7ffffffe00
1ffffff800
0ffffff000
07ffffe000
01ffff8000
00ffff0000
007ffe0000
007ffe0000
007ffe0000
00ffff0000
00fe7f0000
01fc3f8000
01f81f8000
03f00fc000
03e007c000
03c003c000
078001e000
0600006000
0400002000
0000000000
0000000000
ENDCHAR
STARTCHAR 2179
ENCODING 8569
SWIDTH 1020 0
DWIDTH 34 0
BBX 34 35 0 -4
BITMAP
0000000000
0000000000
0000800000
0001c00000
0003600000
0006300000
000c180000
00180c0000
0030060000
0060030000
00c0018000
018000c000
0300006000
0600003000
0c00001800
1800000c00
3000000600
6000000300
3000000600
1800000c00
0c00001800
0600003000
0300006000
018000c000
00c0018000
0060030000
0030060000
00180c0000
000c180000
0006300000
0003600000
0001c00000
0000800000
0000000000
0000000000
ENDCHAR
STARTCHAR 217a
ENCODING 8570
SWIDTH 1020 0
DWIDTH 34 0
BBX 34 35 0 -4
BITMAP
0000000000
0000000000
0000800000
0001c00000
0003e00000
0007f00000
000ff80000
001ffc0000
003ffe0000
007fff0000
00ffff8000
01ffffc000
03ffffe000
07fffff000
0ffffff800
1ffffffc00
3ffffffe00
7fffffff00
3ffffffe00
1ffffffc00
0ffffff800
07fffff000
03ffffe000
01ffffc000
00ffff8000
007fff0000
003ffe0000
001ffc0000
000ff80000
0007f00000
0003e00000
0001c00000
0000800000
0000000000
0000000000
ENDCHAR
STARTCHAR 217b
ENCODING 8571
SWIDTH 1020 0
DWIDTH 34 0
BBX 34 35 0 -4
BITMAP
0000000000
0000000000
0000000000
0000000000
0000000000
0ffffff000
0800001000
0800001000
0800001000
0800001000
0800001000
0800001000
0800001000
0800001000
0800001000
0800001000
0800001000
0800001000
0800001000
0800001000
0800001000
0800001000
0800001000
0800001000
0800001000
0800001000
0800001000
0800001000
0ffffff000
0000000000
0000000000
0000000000
0000000000
0000000000
0000000000
ENDCHAR
STARTCHAR 217c
ENCODING 8572
SWIDTH 1020 0
DWIDTH 34 0
BBX 34 35 0 -4
BITMAP
0000000000
0000000000
0000000000
0000000000
0000000000
0ffffff000
0ffffff000
0ffffff000
0ffffff000
0ffffff000
0ffffff000
0ffffff000
0ffffff000
0ffffff000
0ffffff000
0ffffff000
0ffffff000
0ffffff000
0ffffff000
0ffffff000
0ffffff000
0ffffff000
0ffffff000
0ffffff000
0ffffff000
0ffffff000
0ffffff000
0ffffff000
0ffffff000
0000000000
0000000000
0000000000
0000000000
0000000000
0000000000
ENDCHAR
STARTCHAR 217d
ENCODING 8573
SWIDTH 1020 0
DWIDTH 34 0
BBX 34 35 0 -4
BITMAP
0000000000
0000000000
0000000000
0000000000
0000000000
ffffffff00
4000000200
6000000600
2000000400
3000000c00
1000000800
1800001800
0800001000
0c00003000
0400002000
0600006000
0200004000
030000c000
0180018000
0080010000
00c0030000
0040020000
0060060000
0020040000
00300c0000
0010080000
0018180000
0008100000
000c300000
0006600000
0002400000
0003c00000
0001800000
0000000000
0000000000
ENDCHAR
STARTCHAR 217e
ENCODING 8574
SWIDTH 1020 0
DWIDTH 34 0
BBX 34 35 0 -4
BITMAP
0000000000
0000000000
0000000000
0000000000
0000000000
ffffffff00
7ffffffe00
7ffffffe00
3ffffffc00
3ffffffc00
1ffffff800
1ffffff800
0ffffff000
0ffffff000
07ffffe000
07ffffe000
03ffffc000
03ffffc000
01ffff8000
00ffff0000
00ffff0000
007ffe0000
007ffe0000
003ffc0000
003ffc0000
001ff80000
001ff80000
000ff00000
000ff00000
0007e00000
0003c00000
0003c00000
0001800000
0000000000
0000000000
ENDCHAR
STARTCHAR 2221
ENCODING 8737
SWIDTH 1020 0
DWIDTH 34 0
BBX 34 35 0 -4
BITMAP
0000000000
0000000000
0000000000
0000000000
0003c00000
001ff80000
007ffe0000
00f00f0000
01c0038000
038001c000
077ffee000
070180e000
0e01807000
0e01807000
1c01803800
1c31803800
1c31fc3800
1c31803800
0e31807000
0e31807000
0e31807000
073180e000
07ffffe000
038001c000
01c0038000
00f00f0000
007ffe0000
001ff80000
0003c00000
0000000000
0000000000
0000000000
0000000000
0000000000
0000000000
ENDCHAR
STARTCHAR 2222
ENCODING 8738
SWIDTH 1020 0
DWIDTH 34 0
BBX 34 35 0 -4
BITMAP
0000000000
0000000000
0000000000
0000000000
0038000000
00fe000000
01c7007000
038700e000
070f01c000
0e06038000
0e00070000
0e000e0000
0e001c0000
0e00380000
070c700000
03f8e00000
00e1c00000
0003878000
00071fe000
000e78f000
001cf07000
0038e07000
0071c0e000
00e1c0e000
01c1c1c000
0381e78000
0700ff0000
06007c0000
0000000000
0000000000
0000000000
0000000000
0000000000
0000000000
0000000000
ENDCHAR
STARTCHAR 2223
ENCODING 8739
SWIDTH 1020 0
DWIDTH 34 0
BBX 34 35 0 -4
BITMAP
0000000000
ffffffff00
0000000000
0000000000
0000000000
0000000000
0000000000
0000000000
0000000000
0000000000
0000000000
0000000000
0000000000
0000000000
0000000000
0000000000
0000000000
0000000000
0000000000
0000000000
0000000000
0000000000
0000000000
0000000000
0000000000
0000000000
0000000000
0000000000
0000000000
0000000000
0000000000
0000000000
0000000000
0000000000
0000000000
ENDCHAR
STARTCHAR 2224
ENCODING 8740
SWIDTH 1020 0
DWIDTH 34 0
BBX 34 35 0 -4
BITMAP
0000000000
0000000000
0000000000
0000000000
0000000000
3ffffff000
3ffffff000
3ffffff000
0000000000
0000000000
0000000000
0000000000
0000000000
0000000000
0000000000
0000000000
0000000000
0000000000
0000000000
0000000000
0000000000
0000000000
0000000000
0000000000
0000000000
0000000000
0000000000
0000000000
0000000000
0000000000
0000000000
0000000000
0000000000
0000000000
0000000000
ENDCHAR
STARTCHAR 2225
ENCODING 8741
SWIDTH 1020 0
DWIDTH 34 0
BBX 34 35 0 -4
BITMAP
0000000000
0000000000
0000000000
0000000000
0000000000
0000000000
0000000000
0000000000
0000000000
0000000000
0000000000
0000000000
0000000000
0000000000
0000000000
0000000000
0000000000
0000000000
0000000000
0000000000
0000000000
0000000000
0000000000
0000000000
0000000000
0000000000
0000000000
0000000000
0000000000
0000000000
0000000000
0000000000
ffffffff00
0000000000
0000000000
ENDCHAR
STARTCHAR 2226
ENCODING 8742
SWIDTH 1020 0
DWIDTH 34 0
BBX 34 35 0 -4
BITMAP
0000000000
0000000000
0000000000
0000000000
0000000000
0000000000
0000000000
0000000000
0000000000
0000000000
0000000000
0000000000
0000000000
0000000000
0000000000
0000000000
0000000000
0000000000
0000000000
0000000000
0000000000
0000000000
0000000000
0000000000
3ffffff000
3ffffff000
3ffffff000
0000000000
0000000000
0000000000
0000000000
0000000000
0000000000
0000000000
0000000000
ENDCHAR
STARTCHAR 2227
ENCODING 8743
SWIDTH 1020 0
DWIDTH 34 0
BBX 34 35 0 -4
BITMAP
0000000000
0000000000
7f8ff1fe00
7f8ff1fe00
0000000000
0000000000
0000000000
0000000000
0000000000
0000000000
0000000000
0000000000
0000000000
0000000000
0000000000
0000000000
0000000000
0000000000
0000000000
0000000000
0000000000
0000000000
0000000000
0000000000
0000000000
0000000000
0000000000
0000000000
0000000000
0000000000
0000000000
0000000000
0000000000
0000000000
0000000000
ENDCHAR
STARTCHAR 2228
ENCODING 8744
SWIDTH 1020 0
DWIDTH 34 0
BBX 34 35 0 -4
BITMAP
0000000000
0000000000
7ff3cffe00
7ff3cffe00
0000000000
0000000000
0000000000
0000000000
0000000000
0000000000
0000000000
0000000000
0000000000
0000000000
0000000000
0000000000
0000000000
0000000000
0000000000
0000000000
0000000000
0000000000
0000000000
0000000000
0000000000
0000000000
0000000000
0000000000
0000000000
0000000000
0000000000
0000000000
0000000000
0000000000
0000000000
ENDCHAR
STARTCHAR 2229
ENCODING 8745
SWIDTH 1020 0
DWIDTH 34 0
BBX 34 35 0 -4
BITMAP
0000000000
0000000000
0000000000
0000000000
0000000000
0000000000
0000000000
0000000000
0000000000
0000000000
0000000000
0000000000
0000000000
0000000000
0000000000
0000000000
0000000000
0000000000
0000000000
0000000000
0000000000
0000000000
0000000000
0000000000
0000000000
0000000000
0000000000
0000000000
0000000000
0000000000
7f8ff1fe00
7f8ff1fe00
0000000000
0000000000
0000000000
ENDCHAR
STARTCHAR 222a
ENCODING 8746
SWIDTH 1020 0
DWIDTH 34 0
BBX 34 35 0 -4
BITMAP
0000000000
0000000000
0000000000
0000000000
0000000000
0000000000
0000000000
0000000000
0000000000
0000000000
0000000000
0000000000
0000000000
0000000000
0000000000
0000000000
0000000000
0000000000
0000000000
0000000000
0000000000
0000000000
0000000000
0000000000
0000000000
0000000000
0000000000
0000000000
0000000000
0000000000
7ff3cffe00
7ff3cffe00
0000000000
0000000000
0000000000
ENDCHAR
STARTCHAR 222b
ENCODING 8747
SWIDTH 1020 0
DWIDTH 34 0
BBX 34 35 0 -4
BITMAP
0000000000
0000000000
0000000000
00c0030000
01e0078000
03300cc000
0618186000
0c0c303000
1806601800
3003c00c00
6001800600
0000000000
0000000000
0000000000
0000000000
0000000000
0000000000
0000000000
0000000000
0000000000
0000000000
0000000000
0000000000
0000000000
0000000000
0000000000
0000000000
0000000000
0000000000
0000000000
0000000000
0000000000
0000000000
0000000000
0000000000
ENDCHAR
STARTCHAR 222c
ENCODING 8748
SWIDTH 1020 0
DWIDTH 34 0
BBX 34 35 0 -4
BITMAP
0000000000
0000000000
0000000000
03c003c000
07e007e000
0ff00ff000
1e781e7800
3c3c3c3c00
781e781e00
f00ff00f00
e007e00700
c003c00300
0000000000
0000000000
0000000000
0000000000
0000000000
0000000000
0000000000
0000000000
0000000000
0000000000
0000000000
0000000000
0000000000
0000000000
0000000000
0000000000
0000000000
0000000000
0000000000
0000000000
0000000000
0000000000
0000000000
ENDCHAR
STARTCHAR 222d
ENCODING 8749
SWIDTH 1020 0
DWIDTH 34 0
BBX 34 35 0 -4
BITMAP
0000000000
0000000000
0000000000
0c60000000
0c60000000
0c60000000
0c60000000
0c60000000
0c60000000
0c7c000000
0ffc000000
7ffc000000
7fe0000000
7c60000000
0c60000000
0c60000000
0c60000000
0c60000000
0c7c000000
0ffc000000
7ffc000000
7fe0000000
7c60000000
0c60000000
0c60000000
0c60000000
0c60000000
0c60000000
0c60000000
0000000000
0000000000
0000000000
0000000000
0000000000
0000000000
ENDCHAR
STARTCHAR 222e
ENCODING 8750
SWIDTH 1020 0
DWIDTH 34 0
BBX 34 35 0 -4
BITMAP
0000000000
0000000000
0000000000
0000000000
0780000000
0cc0000000
1860000000
1860000000
1860000000
1c60000000
1cc0000000
1d80000000
0f00000000
0e00000000
1e7c000000
1738000000
3710000000
6710000000
63b0000000
63a0000000
63a0000000
61e0000000
71c0000000
71c4000000
70c4000000
39cc000000
1f78000000
0e30000000
0000000000
0000000000
0000000000
0000000000
0000000000
0000000000
0000000000
ENDCHAR
STARTCHAR 222f
ENCODING 8751
SWIDTH 1020 0
DWIDTH 34 0
BBX 34 35 0 -4
BITMAP
0000000000
0000000000
0000000000
0000000000
0000000000
0000000000
0001800000
030180c000
038181c000
01c1838000
00e1870000
00718e0000
00399c0000
001db80000
000ff00000
0007e00000
0003e00000
0003c00000
0007e00000
000ff00000
001db80000
00399c0000
00718e0000
00e1870000
01c1838000
038181c000
0001800000
0001800000
0000000000
0000000000
0000000000
0000000000
0000000000
0000000000
0000000000
ENDCHAR
STARTCHAR 2230
ENCODING 8752
SWIDTH 1020 0
DWIDTH 34 0
BBX 34 35 0 -4
BITMAP
0000000000
0000000000
0000000000
0000000000
0000000000
0000000000
0001800000
0001800000
0001800000
0001800000
0001800000
0001800000
0001800000
0001800000
0001800000
0001800000
07ffffe000
07ffffe000
0001800000
0001800000
0001800000
0001800000
0001800000
0001800000
0001800000
0001800000
0001800000
0001800000
0000000000
0000000000
0000000000
0000000000
0000000000
0000000000
0000000000
ENDCHAR
STARTCHAR 2231
ENCODING 8753
SWIDTH 1020 0
DWIDTH 34 0
BBX 34 35 0 -4
BITMAP
0000000000
0000000000
0000000000
0000000000
0000000000
0000000000
0000000000
0000000000
0000000000
0000000000
0000000000
0000000000
0000000000
0000000000
0000000000
0000000000
07ffffe000
07ffffe000
0000000000
0000000000
0000000000
0000000000
0000000000
0000000000
0000000000
0000000000
0000000000
0000000000
0000000000
0000000000
0000000000
0000000000
0000000000
0000000000
0000000000
ENDCHAR
STARTCHAR 2232
ENCODING 8754
SWIDTH 1020 0
DWIDTH 34 0
BBX 34 35 0 -4
BITMAP
0000000000
0000000000
0000000000
0000000000
0000000000
0000000000
0200004000
070000e000
038001c000
01c0038000
00e0070000
00700e0000
00381c0000
001c380000
000e700000
0007e00000
0003c00000
0003c00000
0007e00000
000e700000
001c380000
00381c0000
00700e0000
00e0070000
01c0038000
038001c000
070000e000
0200004000
0000000000
0000000000
0000000000
0000000000
0000000000
0000000000
0000000000
ENDCHAR
STARTCHAR 2233
ENCODING 8755
SWIDTH 1020 0
DWIDTH 34 0
BBX 34 35 0 -4
BITMAP
0000000000
0000000000
0000000000
0000000000
0003800000
0007c00000
000fe00000
000fe00000
0007c00000
0003800000
0000000000
0000000000
0000000000
0000000000
0000000000
1ffffff800
1ffffff800
0000000000
0000000000
0000000000
0000000000
0000000000
0003800000
0007c00000
000fe00000
000fe00000
0007c00000
0003800000
0000000000
0000000000
0000000000
0000000000
0000000000
0000000000
0000000000
ENDCHAR
STARTCHAR 2234
ENCODING 8756
SWIDTH 1020 0
DWIDTH 34 0
BBX 34 35 0 -4
BITMAP
0000000000
0000000000
0000000000
0001800000
0001800000
0001800000
0001800000
0001800000
0001800000
0001800000
0001800000
0001800000
0001800000
07ffffe000
07ffffe000
0001800000
0001800000
0001800000
0001800000
0001800000
0001800000
0001800000
0001800000
0001800000
0001800000
0000000000
0000000000
0000000000
07ffffe000
07ffffe000
0000000000
0000000000
0000000000
0000000000
0000000000
ENDCHAR
STARTCHAR 2235
ENCODING 8757
SWIDTH 1020 0
DWIDTH 34 0
BBX 34 35 0 -4
BITMAP
0000000000
0000ffff00
0000800000
0000800000
0000800000
0001000000
0001000000
0001000000
0001000000
0002000000
0002000000
0002000000
0002000000
0004000000
0004000000
0004000000
0004000000
0008000000
0008000000
0408000000
0e08000000
1610000000
2610000000
4310000000
8310000000
0320000000
01a0000000
01a0000000
01a0000000
00c0000000
00c0000000
00c0000000
0040000000
0000000000
0000000000
ENDCHAR
STARTCHAR 2236
ENCODING 8758
SWIDTH 1020 0
DWIDTH 34 0
BBX 34 35 0 -4
BITMAP
0000000000
0000000000
0000000000
0000000000
0000000000
0000018000
0000070000
00000c0000
0000380000
0000600000
0001c00000
0003000000
000e000000
0018000000
0070000000
00c0000000
0380000000
0380000000
00c0000000
0070000000
0018000000
000e000000
0003000000
0001c00000
0000600000
0000380000
00000c0000
0000070000
0000018000
0000000000
0000000000
0000000000
0000000000
0000000000
0000000000
ENDCHAR
STARTCHAR 2237
ENCODING 8759
SWIDTH 1020 0
DWIDTH 34 0
BBX 34 35 0 -4
BITMAP
0000000000
0000000000
0000000000
0000000000
0000000000
0180000000
00e0000000
0030000000
001c000000
0006000000
0003800000
0000c00000
0000700000
0000180000
00000e0000
0000030000
000001c000
000001c000
0000030000
00000e0000
0000180000
0000700000
0000c00000
0003800000
0006000000
001c000000
0030000000
00e0000000
0180000000
0000000000
0000000000
0000000000
0000000000
0000000000
0000000000
ENDCHAR
STARTCHAR 2238
ENCODING 8760
SWIDTH 1020 0
DWIDTH 34 0
BBX 34 35 0 -4
BITMAP
0000000000
0000000000
0000000000
0000000000
0000000000
0000000000
0000000000
0000000000
0000000000
0000000000
0000000000
0000000000
07ffffe000
07ffffe000
0000000000
0000000000
0000000000
0000000000
0000000000
07ffffe000
07ffffe000
0000000000
0000000000
0000000000
0000000000
0000000000
0000000000
0000000000
0000000000
0000000000
0000000000
0000000000
0000000000
0000000000
0000000000
ENDCHAR
STARTCHAR 2239
ENCODING 8761
SWIDTH 1020 0
DWIDTH 34 0
BBX 34 35 0 -4
BITMAP
0000000000
0000000000
0000000000
0000000000
0000007000
000003f000
00001f8000
0000fc0000
0007e00000
003f000000
01f8000000
0fc0000000
0fc0000000
01f8000000
003f000000
0007e00000
0000fc0000
00001f8000
000003f000
0000007000
0000000000
0000000000
0000000000
0ffffff000
0ffffff000
0000000000
0000000000
0000000000
0ffffff000
0ffffff000
0000000000
0000000000
0000000000
0000000000
0000000000
ENDCHAR
STARTCHAR 223a
ENCODING 8762
SWIDTH 1020 0
DWIDTH 34 0
BBX 34 35 0 -4
BITMAP
0000000000
0000000000
0000000000
0000000000
0e00000000
0fc0000000
01f8000000
003f000000
0007e00000
0000fc0000
00001f8000
000003f000
000003f000
00001f8000
0000fc0000
0007e00000
003f000000
01f8000000
0fc0000000
0e00000000
0000000000
0000000000
0000000000
0ffffff000
0ffffff000
0000000000
0000000000
0000000000
0ffffff000
0ffffff000
0000000000
0000000000
0000000000
0000000000
0000000000
ENDCHAR
STARTCHAR 223b
ENCODING 8763
SWIDTH 1020 0
DWIDTH 34 0
BBX 34 35 0 -4
BITMAP
0000000000
0000000000
0000000000
0000000000
0000000000
0000000000
00000c0000
00000c0000
0000180000
0000180000
0000300000
0000300000
07ffffe000
07ffffe000
0000c00000
0000c00000
0001800000
0001800000
0003000000
07ffffe000
07ffffe000
0006000000
000c000000
000c000000
0018000000
0018000000
0030000000
0030000000
0000000000
0000000000
0000000000
0000000000
0000000000
0000000000
0000000000
ENDCHAR
STARTCHAR 223c
ENCODING 8764
SWIDTH 1020 0
DWIDTH 34 0
BBX 34 35 0 -4
BITMAP
0000000000
0000000000
0000000000
0000000000
0000000000
0000000000
0000000000
0000000000
0000000000
0000000000
0000000000
01e0078000
07f81fe000
0e1c387000
0c0e703000
1807e01800
1803c01800
1803c01800
1807e01800
0c0e703000
0e1c387000
07f81fe000
01e0078000
0000000000
0000000000
0000000000
0000000000
0000000000
0000000000
0000000000
0000000000
0000000000
0000000000
0000000000
0000000000
ENDCHAR
STARTCHAR 223d
ENCODING 8765
SWIDTH 1020 0
DWIDTH 34 0
BBX 34 35 0 -4
BITMAP
0000000000
0000000000
0000000000
0000000000
0038000000
007c000000
007c000000
007c000000
0038000000
0000000000
0000000000
0000000000
07ffffe000
07ffffe000
0000000000
0000000000
0000000000
0000000000
0000000000
07ffffe000
07ffffe000
0000000000
0000000000
0000000000
00001c0000
00003e0000
00003e0000
00003e0000
00001c0000
0000000000
0000000000
0000000000
0000000000
0000000000
0000000000
ENDCHAR
STARTCHAR 223e
ENCODING 8766
SWIDTH 1020 0
DWIDTH 34 0
BBX 34 35 0 -4
BITMAP
0000000000
0000000000
0000000000
0000000000
0000000000
0000000000
0000000000
0000000000
07ffffe000
07ffffe000
0000000000
0000000000
0000000000
0000000000
0000000000
0000000000
07ffffe000
07ffffe000
0000000000
0000000000
0000000000
0000000000
0000000000
0000000000
07ffffe000
07ffffe000
0000000000
0000000000
0000000000
0000000000
0000000000
0000000000
0000000000
0000000000
0000000000
ENDCHAR
STARTCHAR 223f
ENCODING 8767
SWIDTH 1020 0
DWIDTH 34 0
BBX 34 35 0 -4
BITMAP
0000000000
0000000000
0000000000
0000000000
0000000000
0000000000
0000000000
0000000000
0000000000
0180000000
0180000000
0180000000
0180000000
0180000000
0180000000
3ffc000000
3ffc000000
0180000000
0180000000
0180000000
0180000000
0180000000
0180000000
0000000000
0000000000
0000000000
0000000000
0000000000
0000000000
0000000000
0000000000
0000000000
0000000000
0000000000
0000000000
ENDCHAR
STARTCHAR 2240
ENCODING 8768
SWIDTH 1020 0
DWIDTH 34 0
BBX 34 35 0 -4
BITMAP
0000000000
0000000000
0000000000
0000000000
0000000000
0000000000
0000000000
0000000000
0000000000
0000000000
0000000000
0000000000
0000000000
0000000000
0000000000
1ff0000000
1ff0000000
0000000000
0000000000
0000000000
0000000000
0000000000
0000000000
0000000000
0000000000
0000000000
0000000000
0000000000
0000000000
0000000000
0000000000
0000000000
0000000000
0000000000
0000000000
ENDCHAR
STARTCHAR 2241
ENCODING 8769
SWIDTH 1020 0
DWIDTH 34 0
BBX 34 35 0 -4
BITMAP
0000000000
0000000000
0000000000
0000000000
0000000000
0000000000
0000000000
0000000000
0000000000
0000000000
001c000000
007c000000
01e0000000
0780000000
1e00000000
7800000000
7800000000
1e00000000
0780000000
01e0000000
007c000000
001c000000
0000000000
0000000000
0000000000
0000000000
0000000000
0000000000
0000000000
0000000000
0000000000
0000000000
0000000000
0000000000
0000000000
ENDCHAR
STARTCHAR 2242
ENCODING 8770
SWIDTH 1020 0
DWIDTH 34 0
BBX 34 35 0 -4
BITMAP
0000000000
0000000000
0000000000
0000000000
0000000000
0000000000
0000000000
0000000000
0000000000
0000000000
7000000000
7c00000000
0f00000000
03c0000000
00f0000000
003c000000
003c000000
00f0000000
03c0000000
0f00000000
7c00000000
7000000000
0000000000
0000000000
0000000000
0000000000
0000000000
0000000000
0000000000
0000000000
0000000000
0000000000
0000000000
0000000000
0000000000
ENDCHAR
STARTCHAR 2243
ENCODING 8771
SWIDTH 1020 0
DWIDTH 34 0
BBX 34 35 0 -4
BITMAP
0000000000
0000000000
0000000000
0000000000
0000000000
0000000000
0000000000
0000000000
0000000000
0000000000
0000000000
0000000000
7ffc000000
7ffc000000
0000000000
0000000000
0000000000
0000000000
7ffc000000
7ffc000000
0000000000
0000000000
0000000000
0000000000
0000000000
0000000000
0000000000
0000000000
0000000000
0000000000
0000000000
0000000000
0000000000
0000000000
0000000000
ENDCHAR
STARTCHAR 2244
ENCODING 8772
SWIDTH 1020 0
DWIDTH 34 0
BBX 34 35 0 -4
BITMAP
0000000000
0000000000
0000000000
0000000000
0000000000
0000000000
0000000000
0000000000
0000000000
0000000000
0000000000
0000000000
0000000000
01f8000000
07fe000c00
0e07801800
1801e07000
30007fe000
00001f8000
0000000000
0000000000
0000000000
0000000000
0000000000
0000000000
0000000000
0000000000
0000000000
0000000000
0000000000
0000000000
0000000000
0000000000
0000000000
0000000000
ENDCHAR
STARTCHAR 2245
ENCODING 8773
SWIDTH 1020 0
DWIDTH 34 0
BBX 34 35 0 -4
BITMAP
0000000000
0000000000
0000000000
0000000000
0000000000
0007e00000
001ff80000
00781e0000
0060060000
00c0030000
00c0030000
0180018000
0180018000
0180018000
0180018000
0180018000
0180018000
0180018000
0180018000
0180018000
0180018000
0180018000
0180018000
0180018000
0180018000
0180018000
0180018000
0180018000
0180018000
0000000000
0000000000
0000000000
0000000000
0000000000
0000000000
ENDCHAR
STARTCHAR 2246
ENCODING 8774
SWIDTH 1020 0
DWIDTH 34 0
BBX 34 35 0 -4
BITMAP
0000000000
0000000000
0000000000
0000000000
0000000000
0180018000
0180018000
0180018000
0180018000
0180018000
0180018000
0180018000
0180018000
0180018000
0180018000
0180018000
0180018000
0180018000
0180018000
0180018000
0180018000
0180018000
0180018000
00c0030000
00c0030000
0060060000
00781e0000
001ff80000
0007e00000
0000000000
0000000000
0000000000
0000000000
0000000000
0000000000
ENDCHAR
STARTCHAR 2247
ENCODING 8775
SWIDTH 1020 0
DWIDTH 34 0
BBX 34 35 0 -4
BITMAP
0000000000
0000000000
0000000000
0000000000
0000000000
0001000000
0001000000
0001000000
0001000000
0001000000
0001000000
0001000000
0001000000
0001000000
0001000000
0001000000
0001000000
0001000000
0001000000
0001000000
0001000000
0001000000
0001000000
0001000000
0001000000
0001000000
0001000000
0ffffff000
0000000000
0000000000
0000000000
0000000000
0000000000
0000000000
0000000000
ENDCHAR
STARTCHAR 2248
ENCODING 8776
SWIDTH 1020 0
DWIDTH 34 0
BBX 34 35 0 -4
BITMAP
0000000000
0000000000
0000000000
0000000000
0000000000
0000002000
0000004000
0000008000
0000010000
0000020000
0000040000
0000080000
0000100000
0000200000
0000400000
0000800000
0001000000
0002000000
0004000000
0008000000
0010000000
0020000000
0040000000
0080000000
0100000000
0200000000
0400000000
0ffffff000
0000000000
0000000000
0000000000
0000000000
0000000000
0000000000
0000000000
ENDCHAR
STARTCHAR 2249
ENCODING 8777
SWIDTH 1020 0
DWIDTH 34 0
BBX 34 35 0 -4
BITMAP
0000000000
0000000000
0000000000
0000000000
0c00000000
0c00000000
0c00000000
0c00000000
0c00000000
0c00000000
0c00000000
0c00000000
0c00000000
0c00000000
0c00000000
0c00000000
0c00000000
0c00000000
0c00000000
0c00000000
0c00000000
0c00000000
0c00000000
0c00000000
0c00000000
0c00000000
0ffffff000
0ffffff000
0ffffff000
0000000000
0000000000
0000000000
0000000000
0000000000
0000000000
ENDCHAR
STARTCHAR 224a
ENCODING 8778
SWIDTH 1020 0
DWIDTH 34 0
BBX 34 35 0 -4
BITMAP
0000000000
0000000000
0000000000
0000000000
0000003000
0000007000
000000f000
000001f000
000003b000
0000073000
00000e3000
00001c3000
0000383000
0000703000
0000e03000
0001c03000
0003803000
0007003000
000e003000
001c003000
0038003000
0070003000
00e0003000
01c0003000
0380003000
0700003000
0ffffff000
0ffffff000
0ffffff000
0000000000
0000000000
0000000000
0000000000
0000000000
0000000000
ENDCHAR
STARTCHAR 224b
ENCODING 8779
SWIDTH 1020 0
DWIDTH 34 0
BBX 34 35 0 -4
BITMAP
0000000000
0000000000
0000000000
0000000000
3800000000
7800000000
f800000000
f800000000
3800000000
3800000000
3800000000
3800000000
3800000000
381c01e600
387f07ff00
38e38e3f00
38e38e3800
39c1cc1800
39c1cc1800
39c1ce3800
39c1c77800
39c1c7f000
39c1cf0000
39c1cfc000
38c18ff800
38e38ffc00
7ce39e1e00
fe7f1c0e00
fe1c180e00
00001c1c00
00000ff800
000003e000
0000000000
0000000000
0000000000
ENDCHAR
STARTCHAR 224c
ENCODING 8780
SWIDTH 1020 0
DWIDTH 34 0
BBX 34 35 0 -4
BITMAP
0000000000
0000000000
0000000000
0000000000
0380000000
0780000000
0f80000000
0f80000000
0380000000
0380000000
0380000000
0380000000
0380000000
03839c0000
0387ff0000
038fe78000
038fc3c000
038381c000
038381c000
038381c000
038381c000
038381c000
038381c000
038381c000
038381c000
038381c000
038381c000
0fe7c3f000
0fe7c3f000
0000000000
0000000000
0000000000
0000000000
0000000000
0000000000
ENDCHAR
STARTCHAR 224d
ENCODING 8781
SWIDTH 1020 0
DWIDTH 34 0
BBX 34 35 0 -4
BITMAP
0000000000
0000380000
00005c0000
0000d80000
0000800000
0001800000
0001800000
0001800000
0001800000
0001800000
0001800000
0001800000
0001800000
0001800000
0001800000
0001800000
0001800000
0001800000
0001800000
0001800000
0001800000
0001800000
0001800000
0001800000
0001800000
0001800000
0001800000
0001800000
0001800000
0001000000
001b000000
003a000000
001c000000
0000000000
0000000000
ENDCHAR
STARTCHAR 224e
ENCODING 8782
SWIDTH 1020 0
DWIDTH 34 0
BBX 34 35 0 -4
BITMAP
0000000000
0000000000
0000600000
0001f80000
0001f80000
0003b80000
0003980000
0003000000
0003000000
0003000000
000ff00000
003ffc0000
00738e0000
00e3870000
00c3830000
00c1830000
00c1830000
00c1830000
00c1c30000
00e1c70000
0071ce0000
003ffc0000
000ff00000
0000c00000
0000c00000
0000c00000
0000c00000
001dc00000
001dc00000
001f800000
001f800000
0006000000
0000000000
0000000000
0000000000
ENDCHAR
STARTCHAR 224f
ENCODING 8783
SWIDTH 1020 0
DWIDTH 34 0
BBX 34 35 0 -4
BITMAP
0000000000
0000000000
0000000000
0000000000
0000000000
0000000000
0000000000
0000000000
0000000000
0180018000
03c003c000
03c003c000
0180018000
0000000000
0000000000
0000000000
0000000000
0000000000
0000000000
0000000000
0000000000
0000000000
0000000000
0001800000
0003c00000
0003c00000
0001800000
0000000000
0000000000
0000000000
0000000000
0000000000
0000000000
0000000000
0000000000
ENDCHAR
STARTCHAR 2250
ENCODING 8784
SWIDTH 1020 0
DWIDTH 34 0
BBX 34 35 0 -4
BITMAP
0000000000
0000000000
0000000000
0000000000
0000000000
0000000000
0000000000
0001800000
0003c00000
0003c00000
0001800000
0000000000
0000000000
0000000000
0000000000
0000000000
0000000000
0000000000
0000000000
0000000000
0000000000
0180018000
03c003c000
03c003c000
0180018000
0000000000
0000000000
0000000000
0000000000
0000000000
0000000000
0000000000
0000000000
0000000000
0000000000
ENDCHAR
STARTCHAR 2251
ENCODING 8785
SWIDTH 1020 0
DWIDTH 34 0
BBX 34 35 0 -4
BITMAP
0000000000
0000000000
0000000000
0000000000
0003c00000
000ff00000
001c380000
00300c0000
00300c0000
0060060000
0060060000
0060060000
0060060000
00300c0000
00300c0000
001c380000
000ff00000
0003c00000
0001800000
0001800000
0001800000
03ffffc000
03ffffc000
0001800000
0001800000
0001800000
0001800000
0001800000
0001800000
0001800000
0001800000
0000000000
0000000000
0000000000
0000000000
ENDCHAR
STARTCHAR 2252
ENCODING 8786
SWIDTH 1020 0
DWIDTH 34 0
BBX 34 35 0 -4
BITMAP
0000000000
0000000000
0000000000
0001800000
0003c00000
0007e00000
000ff00000
001db80000
00399c0000
00718e0000
00e1870000
01c1838000
038181c000
070180e000
0001800000
0001800000
0003c00000
000ff00000
001c380000
00300c0000
00300c0000
0060060000
0060060000
0060060000
0060060000
00300c0000
00300c0000
001c380000
000ff00000
0003c00000
0000000000
0000000000
0000000000
0000000000
0000000000
ENDCHAR
STARTCHAR 2253
ENCODING 8787
SWIDTH 1020 0
DWIDTH 34 0
BBX 34 35 0 -4
BITMAP
0000000000
0000000000
0000000000
0000000000
0000000000
000ff00000
003ffc0000
007dbe0000
00f18f0000
01c1838000
038181c000
038181c000
070180e000
070180e000
0601806000
07ffffe000
07ffffe000
07ffffe000
0601806000
070180e000
070180e000
038181c000
038181c000
01c1838000
00f18f0000
007dbe0000
003ffc0000
000ff00000
0000000000
0000000000
0000000000
0000000000
0000000000
0000000000
0000000000
ENDCHAR
STARTCHAR 2254
ENCODING 8788
SWIDTH 1020 0
DWIDTH 34 0
BBX 34 35 0 -4
BITMAP
0000000000
0000000000
0000000000
0000000000
0000000000
000ff00000
003ffc0000
007c3e0000
00f00f0000
01e0078000
03c003c000
038001c000
070000e000
070180e000
0707e0e000
0607e06000
0607e06000
0607e06000
0707e0e000
070180e000
070000e000
038001c000
03c003c000
01e0078000
00f00f0000
007c3e0000
003ffc0000
000ff00000
0000000000
0000000000
0000000000
0000000000
0000000000
0000000000
0000000000
ENDCHAR
STARTCHAR 2255
ENCODING 8789
SWIDTH 1020 0
DWIDTH 34 0
BBX 34 35 0 -4
BITMAP
0000000000
0001000000
0001000000
0003800000
0007c00000
000d600000
0019300000
0031180000
00610c0000
00c1060000
0001000000
0001000000
0001000000
0001000000
0001000000
0001000000
0001000000
0001000000
0001000000
0001000000
0001000000
0001000000
0001000000
0001000000
0001000000
0001000000
0001000000
0001000000
0001000000
0001000000
0001000000
0001000000
0001000000
0000000000
0000000000
ENDCHAR
STARTCHAR 2256
ENCODING 8790
SWIDTH 1020 0
DWIDTH 34 0
BBX 34 35 0 -4
BITMAP
0000000000
0001000000
0001000000
0001000000
0001000000
0001000000
0001000000
0001000000
0001000000
0001000000
0001000000
0001000000
0001000000
0001000000
0001000000
0001000000
0001000000
0001000000
0001000000
0001000000
0001000000
0001000000
0001000000
0001000000
00c1060000
00610c0000
0031180000
0019300000
000d600000
0007c00000
0003800000
0001000000
0001000000
0000000000
0000000000
ENDCHAR
STARTCHAR 2257
ENCODING 8791
SWIDTH 1020 0
DWIDTH 34 0
BBX 34 35 0 -4
BITMAP
0000000000
0000000000
0000000000
0000000000
0000000000
0000000000
0000000000
0000000000
0000010000
0000018000
000000c000
0000006000
0000003000
0000001800
0000000c00
ffffffff00
0000000c00
0000001800
0000003000
0000006000
000000c000
0000018000
0000010000
0000000000
0000000000
0000000000
0000000000
0000000000
0000000000
0000000000
0000000000
0000000000
0000000000
0000000000
0000000000
ENDCHAR
STARTCHAR 2258
ENCODING 8792
SWIDTH 1020 0
DWIDTH 34 0
BBX 34 35 0 -4
BITMAP
0000000000
0000000000
0000000000
0000000000
0000000000
0000000000
0000000000
0000000000
0080000000
0180000000
0300000000
0600000000
0c00000000
1800000000
3000000000
ffffffff00
3000000000
1800000000
0c00000000
0600000000
0300000000
0180000000
0080000000
0000000000
0000000000
0000000000
0000000000
0000000000
0000000000
0000000000
0000000000
0000000000
0000000000
0000000000
0000000000
ENDCHAR
STARTCHAR 2259
ENCODING 8793
SWIDTH 1020 0
DWIDTH 34 0
BBX 34 35 0 -4
BITMAP
0000000000
c000000000
f800000000
7e00000000
7fc0000000
7ff0000000
3ffe000000
3f1f800000
1f83c00000
1dc0000000
1ce0000000
0c70000000
0e38000000
061c000000
060e000000
0707000000
0303800000
0301c00000
0100e00000
0000700000
0000380000
00001c0000
00000e0000
0000070000
0000038000
000001c000
000000e000
0000007000
0000003800
0000001c00
0000000e00
0000000700
0000000300
0000000000
0000000000
ENDCHAR
STARTCHAR 225a
ENCODING 8794
SWIDTH 1020 0
DWIDTH 34 0
BBX 34 35 0 -4
BITMAP
0000000000
0000000300
0000001f00
0000007e00
000003fe00
00000ffe00
00007ffc00
0001f8fc00
0003c1f800
000003b800
0000073800
00000e3000
00001c7000
0000386000
0000706000
0000e0e000
0001c0c000
000380c000
0007008000
000e000000
001c000000
0038000000
0070000000
00e0000000
01c0000000
0380000000
0700000000
0e00000000
1c00000000
3800000000
7000000000
e000000000
c000000000
0000000000
0000000000
ENDCHAR
STARTCHAR 225b
ENCODING 8795
SWIDTH 1020 0
DWIDTH 34 0
BBX 34 35 0 -4
BITMAP
0000000000
0000000300
0000000700
0000000e00
0000001c00
0000003800
0000007000
000000e000
000001c000
0000038000
0000070000
00000e0000
00001c0000
0000380000
0000700000
0100e00000
0301c00000
0303800000
0707000000
060e000000
061c000000
0e38000000
0c70000000
1ce0000000
1dc0000000
1f83c00000
3f1f800000
3ffe000000
7ff0000000
7fc0000000
7e00000000
f800000000
c000000000
0000000000
0000000000
ENDCHAR
STARTCHAR 225c
ENCODING 8796
SWIDTH 1020 0
DWIDTH 34 0
BBX 34 35 0 -4
BITMAP
0000000000
c000000000
e000000000
7000000000
3800000000
1c00000000
0e00000000
0700000000
0380000000
01c0000000
00e0000000
0070000000
0038000000
001c000000
000e000000
0007008000
000380c000
0001c0c000
0000e0e000
0000706000
0000386000
00001c7000
00000e3000
0000073800
000003b800
0003c1f800
0001f8fc00
00007ffc00
00000ffe00
000003fe00
0000007e00
0000001f00
0000000300
0000000000
0000000000
ENDCHAR
STARTCHAR 225d
ENCODING 8797
SWIDTH 1020 0
DWIDTH 34 0
BBX 34 35 0 -4
BITMAP
0000000000
000c300000
000c300000
000c300000
000c300000
000c300000
000c300000
000c300000
000c300000
000c300000
000c300000
000c300000
000c300000
000c300000
000c300000
000c300000
000c300000
000c300000
000c300000
000c300000
000c300000
000c300000
000c300000
000c300000
000c300000
000c300000
000c300000
000c300000
000c300000
000c300000
000c300000
000c300000
000c300000
0000000000
0000000000
ENDCHAR
STARTCHAR 225e
ENCODING 8798
SWIDTH 1020 0
DWIDTH 34 0
BBX 34 35 0 -4
BITMAP
0000000000
0001800000
0001800000
0001800000
0001800000
0001800000
0001800000
0001800000
0001800000
0001800000
0001800000
0001800000
0001800000
0001800000
0001800000
0001800000
0001800000
0001800000
0001800000
0001800000
0001800000
0001800000
0001800000
0001800000
0001800000
0001800000
0001800000
0001800000
0001800000
0001800000
0001800000
0001800000
0001800000
0000000000
0000000000
ENDCHAR
STARTCHAR 225f
ENCODING 8799
SWIDTH 1020 0
DWIDTH 34 0
BBX 34 35 0 -4
BITMAP
0000000000
0000000300
0000000600
0000000c00
0000001800
0000003000
0000006000
000000c000
0000018000
0000030000
0000060000
00000c0000
0000180000
0000300000
0000600000
0000c00000
0001800000
0003000000
0006000000
000c000000
0018000000
0030000000
0060000000
00c0000000
0180000000
0300000000
0600000000
0c00000000
1800000000
3000000000
6000000000
c000000000
8000000000
0000000000
0000000000
ENDCHAR
STARTCHAR 2260
ENCODING 8800
SWIDTH 1020 0
DWIDTH 34 0
BBX 34 35 0 -4
BITMAP
0000000000
0000000000
c000000000
6000000000
3000000000
1800000000
0c00000000
0600000000
0300000000
0180000000
00c0000000
0060000000
0030000000
0018000000
000c000000
0006000000
0003000000
0001800000
0000c00000
0000600000
0000300000
0000180000
00000c0000
0000060000
0000030000
0000018000
000000c000
0000006000
0000003000
0000001800
0000000c00
0000000600
0000000000
0000000000
0000000000
ENDCHAR
STARTCHAR 2261
ENCODING 8801
SWIDTH 1020 0
DWIDTH 34 0
BBX 34 35 0 -4
BITMAP
0000000000
0000000000
0000000000
0000000000
0000018000
0000038000
0000030000
0000070000
00000e0000
00000c0000
00001c0000
0000380000
0000300000
0000700000
0000e00000
0000c00000
0001c00000
0003800000
0003000000
0007000000
000e000000
000c000000
001c000000
0038000000
0030000000
0070000000
00e0000000
00c0000000
01c0000000
0180000000
0000000000
0000000000
0000000000
0000000000
0000000000
ENDCHAR
STARTCHAR 2262
ENCODING 8802
SWIDTH 1020 0
DWIDTH 34 0
BBX 34 35 0 -4
BITMAP
0000000000
0000000000
0000000000
0000000000
0000000000
1c00000000
0e00000000
0700000000
0380000000
01c0000000
00e0000000
0070000000
0038000000
001c000000
000e000000
0007000000
0003800000
0001c00000
0000e00000
0000700000
0000380000
00001c0000
00000e0000
0000070000
0000038000
000001c000
000000e000
0000000000
0000000000
0000000000
0000000000
0000000000
0000000000
0000000000
0000000000
ENDCHAR
STARTCHAR 2263
ENCODING 8803
SWIDTH 1020 0
DWIDTH 34 0
BBX 34 35 0 -4
BITMAP
0000000000
0001800000
0001800000
0001800000
0001800000
000ff00000
00399c0000
0071860000
0071870000
00e18f0000
00e18f0000
00e1860000
00e1800000
0071800000
0031800000
001d800000
0007800000
0001f00000
00019c0000
0001870000
0001830000
00c1838000
01e1838000
01e1838000
01c1838000
0181830000
00c1870000
00718e0000
001ff80000
0001800000
0001800000
0001800000
0001800000
0000000000
0000000000
ENDCHAR
STARTCHAR 2264
ENCODING 8804
SWIDTH 1020 0
DWIDTH 34 0
BBX 34 35 0 -4
BITMAP
0000000000
0000000000
0000000000
3fe003f800
0700004000
038000c000
03c0018000
01e0030000
00e0020000
0070060000
00780c0000
0038180000
001c100000
001e300000
000f600000
0007c00000
0fffffe000
0003800000
0003800000
0003800000
0003800000
0003800000
0fffffe000
0003800000
0003800000
0003800000
0003800000
0003800000
0003800000
0003800000
001ff00000
0000000000
0000000000
0000000000
0000000000
ENDCHAR
STARTCHAR 2265
ENCODING 8805
SWIDTH 1020 0
DWIDTH 34 0
BBX 34 35 0 -4
BITMAP
0000000000
0000000000
0000000000
1ffffff800
1ffffff800
0000000000
0000000000
0000000000
0000000000
0000000000
0000000000
1ffffff800
1ffffff800
0001800000
0001800000
0001800000
0001800000
0001800000
0001800000
0001800000
0001800000
0001800000
0001800000
0001800000
0001800000
0001800000
0001800000
0001800000
0001800000
0001800000
0001800000
0000000000
0000000000
0000000000
0000000000
ENDCHAR
STARTCHAR 2266
ENCODING 8806
SWIDTH 1020 0
DWIDTH 34 0
BBX 34 35 0 -4
BITMAP
0000000000
0000010000
0000010000
0000030000
0000020000
0000fe0000
0003870000
000e0d8000
001808c000
003008e000
007019e000
006011e000
00e030c000
00e0200000
01c0200000
01c0600000
01c0400000
01c0c00000
01c0800000
01c0800000
01c1804000
01c1004000
01c100c000
00e3008000
00e2018000
0076030000
003c0e0000
001c380000
000fe00000
0018000000
0010000000
0030000000
0020000000
0000000000
0000000000
ENDCHAR
STARTCHAR 2267
ENCODING 8807
SWIDTH 1020 0
DWIDTH 34 0
BBX 34 35 0 -4
BITMAP
0000000000
0000000000
0000000000
0003f00000
000e1c0000
001c060000
0038070000
0038030000
0070078000
00700f8000
00700f8000
0070070000
0070000000
0070000000
0070000000
07fff00000
0070000000
0038000000
0038000000
0038000000
0018000000
001c000000
03fc000000
063c001000
0c1e001000
1c1f002000
1c1fc06000
1c39e1c000
0c38ffc000
06703f8000
03c01e0000
0000000000
0000000000
0000000000
0000000000
ENDCHAR
STARTCHAR 2268
ENCODING 8808
SWIDTH 1020 0
DWIDTH 34 0
BBX 34 35 0 -4
BITMAP
0000000000
0000000000
0000000000
01e0000000
0738000c00
0e08001800
1c0c003000
180c006000
380c00c000
380c018000
301c030000
301c060000
30180c0000
3038180000
1070300000
1ce0600000
0780c00000
000181e000
0003073800
00060e0800
000c1c0c00
0018180c00
0030380c00
0060380c00
00c0301c00
0180301c00
0300301800
0600303800
0c00107000
18001ce000
0000078000
0000000000
0000000000
0000000000
0000000000
ENDCHAR
STARTCHAR 2269
ENCODING 8809
SWIDTH 1020 0
DWIDTH 34 0
BBX 34 35 0 -4
BITMAP
0000000000
0000000000
0000000000
000fe00000
0038380000
00e00e0000
0180030000
0300018000
060000c000
0407884000
0c1c5c6000
08303c2000
18701c3000
1060181000
10e0381000
10c0381000
11c0381000
11c0301000
11c0703000
11c0702000
10c0706000
18e0f0c000
08713b8000
0c1e0e0000
0400000000
0600002000
0300004000
0180018000
00e0070000
00383c0000
000fe00000
0000000000
0000000000
0000000000
0000000000
ENDCHAR
STARTCHAR 226a
ENCODING 8810
SWIDTH 1020 0
DWIDTH 34 0
BBX 34 35 0 -4
BITMAP
0000000000
0000000000
3c00000000
6600000000
c300000000
8100fe1000
81038f9000
c30e03f000
661c00f000
3c38007000
0070003000
0070003000
00e0001000
00e0001000
00e0000000
01c0000000
01c0000000
01c0000000
01c0000000
01c0000000
01c0000000
00e0000000
00e0000800
00e0000800
0070001800
0070001000
0038003000
001c006000
000e00c000
0003838000
0000fe0000
0000000000
0000000000
0000000000
0000000000
ENDCHAR
STARTCHAR 226b
ENCODING 8811
SWIDTH 1020 0
DWIDTH 34 0
BBX 34 35 0 -4
BITMAP
0000000000
0000000000
0000000000
0000000000
0600000000
0f80000000
1dbfffe000
18fffff000
18c700f000
1d87007800
0f87003800
0607001800
0007000800
0007030000
0007030000
0007070000
0007ff0000
0007ff0000
0007070000
0007030000
0007030000
0007000000
0007000000
0007000000
0007000000
0007000000
0007800000
003ff00000
003ff00000
0000000000
0000000000
0000000000
0000000000
0000000000
0000000000
ENDCHAR
STARTCHAR 226c
ENCODING 8812
SWIDTH 1020 0
DWIDTH 34 0
BBX 34 35 0 -4
BITMAP
0000000000
0000000000
0000000000
0300000000
0300000000
0300000000
0fe0000000
3ff0000000
3318000000
6338000000
6338000000
6310000000
6300000000
7300000000
3f00000000
1fc0000000
0ff0000000
03f8000000
033c000000
030c000000
230c000000
730c000000
730c000000
6318000000
3ff8000000
1fe0000000
0300000000
0300000000
0300000000
0000000000
0000000000
0000000000
0000000000
0000000000
0000000000
ENDCHAR
STARTCHAR 226d
ENCODING 8813
SWIDTH 1020 0
DWIDTH 34 0
BBX 34 35 0 -4
BITMAP
0000000000
0000000000
0018000000
1818000000
3c30000000
2430000000
6630000000
6660000000
6660000000
6660000000
66c0000000
24c0000000
3cc0000000
1980000000
0180000000
0180000000
0300000000
0330000000
0378000000
0648000000
06cc000000
06cc000000
0ccc000000
0ccc000000
0ccc000000
18cc000000
1848000000
1878000000
3030000000
3000000000
0000000000
0000000000
0000000000
0000000000
0000000000
ENDCHAR
STARTCHAR 226e
ENCODING 8814
SWIDTH 1020 0
DWIDTH 34 0
BBX 34 35 0 -4
BITMAP
0000000000
0000000000
0000000000
0000000000
0000000000
07c0000000
1c70000000
3018000000
2008000000
600c000000
4724000000
4ce4000000
4c64000000
4c64000000
4c64000000
4c64000000
4c64000000
4c64000000
4c64000000
4cec000000
4f78000000
4630000000
6004000000
200c000000
3018000000
1c70000000
07c0000000
0000000000
0000000000
0000000000
0000000000
0000000000
0000000000
0000000000
0000000000
ENDCHAR
STARTCHAR 226f
ENCODING 8815
SWIDTH 1020 0
DWIDTH 34 0
BBX 34 35 0 -4
BITMAP
0000000000
0000000000
0000000000
0000000000
0000000c00
0000001c00
0000003c00
0000067c00
00000f0c00
00000f0c00
0000060c00
0000000c00
0000000c00
130e030c00
3fdf870c00
7dfbcf0c00
f0e1df0c00
3060c30c00
3060c30c00
3060c30c00
3060c30c00
3060c30c00
3060c30c00
3060c30c00
3060c30c00
3060c30c00
3060c30c00
78f1e79e00
fdfbf7bf00
0000000000
0000000000
0000000000
0000000000
0000000000
0000000000
ENDCHAR
STARTCHAR 2270
ENCODING 8816
SWIDTH 1020 0
DWIDTH 34 0
BBX 34 35 0 -4
BITMAP
0000000000
0000000000
0000000000
0000000000
0000000000
0000000000
0000000000
0000000000
0000000000
0000000000
0000000000
0000000000
0000000000
3630363000
7ffc7ffc00
fbdefbde00
f18ef18e00
718e718e00
718e718e00
718e718e00
718e718e00
718e718e00
718e718e00
718e718e00
718e718e00
718e718e00
718e718e00
ffffffff00
ffffffff00
0000000000
0000000000
0000000000
0000000000
0000000000
0000000000
ENDCHAR
STARTCHAR 2271
ENCODING 8817
SWIDTH 1020 0
DWIDTH 34 0
BBX 34 35 0 -4
BITMAP
0000000000
0000000000
0000000000
0000000000
0000000000
0000000000
0000000000
0000000000
0000000000
0000000000
0000000000
0000000000
0000000000
03c0dc7000
0ff5fff800
3c3fe79c00
781fc30c00
780cc30c00
f004c30c00
f004c30c00
f000c30c00
f000c30c00
f000c30c00
f006c30c00
7806c30c00
7c0cc30c00
3e38c30c00
1ff3ffff00
07c3ffff00
0000000000
0000000000
0000000000
0000000000
0000000000
0000000000
ENDCHAR
STARTCHAR 2272
ENCODING 8818
SWIDTH 1020 0
DWIDTH 34 0
BBX 34 35 0 -4
BITMAP
0000000000
0000000000
0000000000
0000000000
3800000000
7800000000
f800000000
f800000000
3800000000
3800000000
3800000000
3800000000
3800000000
38fc363000
38fc7ffc00
3870fbde00
38e0f18e00
39c0718e00
3b80718e00
3f00718e00
3f00718e00
3f80718e00
3bc0718e00
39e0718e00
38f0718e00
3878718e00
383c718e00
7e7fffff00
7e7fffff00
0000000000
0000000000
0000000000
0000000000
0000000000
0000000000
ENDCHAR
STARTCHAR 2273
ENCODING 8819
SWIDTH 1020 0
DWIDTH 34 0
BBX 34 35 0 -4
BITMAP
0000000000
0000000000
0000000000
0000000000
fcffc01f00
fcffc01f00
3071c01c00
3061e01c00
30c1e03c00
31c1e03c00
3181f03c00
3301f06c00
3701b06c00
3601b86c00
3f01b84c00
3f0198cc00
3b019ccc00
33819ccc00
33818d8c00
31818f8c00
31c18f8c00
31c1870c00
30c1870c00
30e1870c00
30e1820c00
3061820c00
3071800c00
fdffe03f00
fdffe03f00
0000000000
0000000000
0000000000
0000000000
0000000000
0000000000
ENDCHAR
STARTCHAR 2274
ENCODING 8820
SWIDTH 1020 0
DWIDTH 34 0
BBX 34 35 0 -4
BITMAP
0000000000
000003c000
00000ff800
00001e7c00
00001c1c00
00001c1c00
00001c3c00
0000007c00
000001f800
000007c000
00000f0400
00001c0c00
00001ffc00
0dc31ffc00
1fefdff800
3f7de00000
3c38e00000
1c30e00000
1c30e00000
1c30e00000
1c30e00000
1c30e00000
1c30e00000
1c30e00000
1c30e00000
1c30e00000
1c30e00000
3efdf00000
3efdf00000
0000000000
0000000000
0000000000
0000000000
0000000000
0000000000
ENDCHAR
STARTCHAR 2275
ENCODING 8821
SWIDTH 1020 0
DWIDTH 34 0
BBX 34 35 0 -4
BITMAP
0000000000
0000000000
0000000000
0000000000
0000000000
0000000000
0000000000
0000000000
0000000000
0000000000
0000000000
0000000000
0000000000
330e01e600
7fdf07ff00
fdfb8e3f00
f8e18e3800
30e18c1800
30e18c1800
30e18e3800
30e1877800
30e187f000
30e18f0000
30e18fc000
30e18ff800
30e18ffc00
30e19e1e00
fdf7fc0e00
fdf7f80e00
00001c1c00
00000ff800
000003e000
0000000000
0000000000
0000000000
ENDCHAR
STARTCHAR 2276
ENCODING 8822
SWIDTH 1020 0
DWIDTH 34 0
BBX 34 35 0 -4
BITMAP
0000000000
0000000000
0000000000
0000000000
1c00000000
3c00000000
7c00000000
7c00000000
1c00000000
1c00000000
1c00000000
1c00000000
1c00000000
1c7e07cc00
1c7e0ffe00
1c381c7e00
1c70387000
1ce0383000
1dc0383000
1f80187000
1f801cf000
1fc00fe000
1de01e0000
1cf03f8000
1c783ff000
1c3c1ff800
1c1e383c00
3f3ff01c00
3f3ff01c00
0000383800
00003ff000
000007c000
0000000000
0000000000
0000000000
ENDCHAR
STARTCHAR 2277
ENCODING 8823
SWIDTH 1020 0
DWIDTH 34 0
BBX 34 35 0 -4
BITMAP
0000000000
0000000000
0000000000
0000000000
0000000000
0000000000
0000000000
0000000000
0000000000
0000000000
0000000000
0000000000
0000000000
03e003e000
0ffa0ffe00
1e1e3c1e00
3c0e780e00
7806780600
7802f00600
7002f00200
7000f00000
7000f00000
7800f00000
7803f00200
7803780600
3c067c0e00
1f1c3e3c00
0ff81ff800
03e007e000
0000000000
0000000000
0000000000
0000000000
0000000000
0000000000
ENDCHAR
STARTCHAR 2278
ENCODING 8824
SWIDTH 1020 0
DWIDTH 34 0
BBX 34 35 0 -4
BITMAP
0000000000
3e00000000
6300000000
c180000000
8080000000
8080000000
8080000000
c180000000
6300000000
3e00000000
0000000000
0000000000
0000000000
0000000000
0000000000
0000000000
0000000000
0000000000
0000000000
0000000000
0000000000
0000000000
0000000000
0000000000
0000000000
0000000000
0000000000
0000000000
0000000000
0000000000
0000000000
0000000000
0000000000
0000000000
0000000000
ENDCHAR
STARTCHAR 2279
ENCODING 8825
SWIDTH 1020 0
DWIDTH 34 0
BBX 34 35 0 -4
BITMAP
0000000000
01c0000000
01e0010000
01c001c000
01c301c000
01c7818000
7fff818000
01c0018000
01c0018000
01c0018000
31c6018c00
3fff7ffe00
3fff7ffe00
3806018000
3806018000
3806018000
3806018000
3ffe018000
3ffe018000
3f76018000
37f0018000
0770018000
0770018000
0670018000
0e70018200
0e70018200
0c70018200
1c70000600
1870000600
3078000700
703fffff00
603fffff00
c000000000
0000000000
0000000000
ENDCHAR
STARTCHAR 227a
ENCODING 8826
SWIDTH 1020 0
DWIDTH 34 0
BBX 34 35 0 -4
BITMAP
0000000000
01c0000000
01e0000000
01c0003c00
01c301fe00
01c78ff800
7fffbfc000
01c001c000
01c001c000
01c001c000
31c601c000
3fff01c400
3fff01ce00
38067fff00
380601c000
380601c000
380601c000
3ffe01c000
3ffe01c000
3f7601c000
37f001c000
077001c000
077001c000
067001c000
0e7001c200
0e7001c200
0c7001c200
1c70000600
1870000600
3078000700
703fffff00
603fffff00
c000000000
0000000000
0000000000
ENDCHAR
STARTCHAR 227b
ENCODING 8827
SWIDTH 1020 0
DWIDTH 34 0
BBX 34 35 0 -4
BITMAP
0000000000
01c0000000
01e001e000
01c007f000
01c31fc000
01c7fe0000
7fff860000
01c0060000
01c0060000
01c0066000
31c67ff000
3fff7ff000
3fff060000
3806060000
3806063000
3806fff800
38067ff800
3ffe060000
3ffe060800
3f76060800
37f0060800
0770061800
0770071800
067007fc00
0e7007fc00
0e7001fe00
0c70000200
1c70000200
1870000600
3078000700
703fffff00
603fffff00
c000000000
0000000000
0000000000
ENDCHAR
STARTCHAR 227c
ENCODING 8828
SWIDTH 1020 0
DWIDTH 34 0
BBX 34 35 0 -4
BITMAP
0000000000
01c0000000
01e0018000
01c001c000
01c30ce000
01c78e6000
7fff8f6000
01c00e7000
01c00c3000
01c01c3800
31c6181c00
3fff381e00
3fff300f00
3806601f00
3806fffc00
38061ffc00
3806061800
3ffe061800
3ffe0e1800
3f760e1800
37f01c3800
07701c3800
0770383800
0670767000
0e70e7f200
0e71c1e200
0c70004200
1c70000600
1870000600
3078000700
703fffff00
603fffff00
c000000000
0000000000
0000000000
ENDCHAR
STARTCHAR 227d
ENCODING 8829
SWIDTH 1020 0
DWIDTH 34 0
BBX 34 35 0 -4
BITMAP
0000000000
01c0000000
01e0000600
01c0ffff00
01c37fff00
01c781c000
7fff818000
01c0030800
01c03b1c00
01c03ffe00
31c6381c00
3fff381c00
3fff381c00
3806381c00
3806381c00
38063ffc00
38063ffc00
3ffe381c00
3ffe381c00
3f76381c00
37f0381c00
0770381c00
07703ffc00
06703ffc00
0e70381e00
0e70381a00
0c70300200
1c70000600
1870000600
3078000700
703fffff00
603fffff00
c000000000
0000000000
0000000000
ENDCHAR
STARTCHAR 227e
ENCODING 8830
SWIDTH 1020 0
DWIDTH 34 0
BBX 34 35 0 -4
BITMAP
0000000000
01c0000000
01e0600600
01c07fff00
01c67fff00
01cf600800
7fffec1c00
01c06ffe00
01c06cce00
01c06ccc00
31c66ccc00
3fff6ffc00
3fff6ccc00
38066ccc00
38066ccc00
38066ffc00
38066ccc00
3ffeeccc00
3ffee0c800
3f76c0dc00
37f0cffe00
0770c0c000
0771c0c000
067180c600
0e71bfff00
0e711fff00
0c70000200
1c70000200
1870000600
3078000700
703fffff00
603fffff00
c000000000
0000000000
0000000000
ENDCHAR
STARTCHAR 2321
ENCODING 8993
SWIDTH 1020 0
DWIDTH 34 0
BBX 34 35 0 -4
BITMAP
0000000000
01c0000000
01e0000000
01c2301800
01c73ffc00
7fffbffc00
0183b81800
0383381800
0387381800
0307381800
070e3ff800
0efe3ff800
1c7db81800
381bf00000
f007e00000
001e700000
003c3c0000
00f00fc000
03e00fff00
0f801cff00
3e7ffc3c00
f000004000
060000e000
07fffff000
061c30e000
061c30e000
061c30e000
07ffffe000
061c30e000
061c30e000
061c3fe000
061c37e000
061833c000
0000000000
0000000000
ENDCHAR
STARTCHAR 2322
ENCODING 8994
SWIDTH 1020 0
DWIDTH 34 0
BBX 34 35 0 -4
BITMAP
0000000000
0004000000
000e006000
ffff03f800
7fff1ff800
0c00ff0000
0c00070000
0c00070000
1c00070000
1c08070000
1c1c070000
1ffe071800
1c1dfffc00
1c1cfffc00
1c1c070000
1c1c070000
1f1c070000
1b9c070000
19dc070000
18fc070000
18fc070000
18fc070000
181c070000
1818070200
3818070200
3818070200
3818070200
3818070600
39f8060600
3f9c000700
3f1fffff00
3c0fffff00
3800000000
0000000000
0000000000
ENDCHAR
STARTCHAR 2323
ENCODING 8995
SWIDTH 1020 0
DWIDTH 34 0
BBX 34 35 0 -4
BITMAP
0000000000
0600000400
0786000e00
0707ffff00
c736000000
673e000000
6776000800
7766601c00
77667ffe00
3766638c00
37c6638c00
2796638c00
0736638c00
fff6638c00
07067ffc00
0f86638c00
0fc6638c00
0f66638c00
1f76638c00
1f767ffc00
3776638c00
3736638800
6736038000
6706038800
c70c039c00
c70c7ffe00
870c038000
0718038000
0718038000
0710038200
0720038700
0723ffff00
0600000000
0000000000
0000000000
ENDCHAR
STARTCHAR 2324
ENCODING 8996
SWIDTH 1020 0
DWIDTH 34 0
BBX 34 35 0 -4
BITMAP
0000000000
0000000000
0000000000
0000000000
0000000000
0000000000
0000000000
0000000000
0000000000
0000000000
0000000000
0000000000
0000000000
0000000000
0000000000
0000000000
0000000000
0000000000
0000000000
0000000000
0000000000
0000000000
0000000000
0000000000
0000000000
0000000000
0000000000
0000000000
0000000000
ffffffff00
ffffffff00
ffffffff00
ffffffff00
0000000000
0000000000
ENDCHAR
STARTCHAR 2325
ENCODING 8997
SWIDTH 1020 0
DWIDTH 34 0
BBX 34 35 0 -4
BITMAP
0000000000
0000000000
0000000000
0000000000
0000000000
0000000000
0000000000
0000000000
0000000000
0000000000
0000000000
0000000000
0000000000
0000000000
0000000000
0000000000
0000000000
0000000000
0000000000
0000000000
0000000000
0000000000
0000000000
0000000000
0000000000
ffffffff00
ffffffff00
ffffffff00
ffffffff00
ffffffff00
ffffffff00
ffffffff00
ffffffff00
0000000000
0000000000
ENDCHAR
STARTCHAR 2326
ENCODING 8998
SWIDTH 1020 0
DWIDTH 34 0
BBX 34 35 0 -4
BITMAP
0000000000
0000000000
0000000000
0000000000
0000000000
0000000000
0000000000
0000000000
0000000000
0000000000
0000000000
0000000000
0000000000
0000000000
0000000000
0000000000
0000000000
0000000000
0000000000
0000000000
0000000000
ffffffff00
ffffffff00
ffffffff00
ffffffff00
ffffffff00
ffffffff00
ffffffff00
ffffffff00
ffffffff00
ffffffff00
ffffffff00
ffffffff00
0000000000
0000000000
ENDCHAR
STARTCHAR 2327
ENCODING 8999
SWIDTH 1020 0
DWIDTH 34 0
BBX 34 35 0 -4
BITMAP
0000000000
0000000000
0000000000
0000000000
0000000000
0000000000
0000000000
0000000000
0000000000
0000000000
0000000000
0000000000
0000000000
0000000000
0000000000
0000000000
0000000000
ffffffff00
ffffffff00
ffffffff00
ffffffff00
ffffffff00
ffffffff00
ffffffff00
ffffffff00
ffffffff00
ffffffff00
ffffffff00
ffffffff00
ffffffff00
ffffffff00
ffffffff00
ffffffff00
0000000000
0000000000
ENDCHAR
STARTCHAR 2328
ENCODING 9000
SWIDTH 1020 0
DWIDTH 34 0
BBX 34 35 0 -4
BITMAP
0000000000
0000000000
0000000000
0000000000
0000000000
0000000000
0000000000
0000000000
0000000000
0000000000
0000000000
0000000000
0000000000
ffffffff00
ffffffff00
ffffffff00
ffffffff00
ffffffff00
ffffffff00
ffffffff00
ffffffff00
ffffffff00
ffffffff00
ffffffff00
ffffffff00
ffffffff00
ffffffff00
ffffffff00
ffffffff00
ffffffff00
ffffffff00
ffffffff00
ffffffff00
0000000000
0000000000
ENDCHAR
STARTCHAR 2329
ENCODING 9001
SWIDTH 1020 0
DWIDTH 34 0
BBX 34 35 0 -4
BITMAP
0000000000
0000000000
0000000000
0000000000
0000000000
0000000000
0000000000
0000000000
0000000000
ffffffff00
ffffffff00
ffffffff00
ffffffff00
ffffffff00
ffffffff00
ffffffff00
ffffffff00
ffffffff00
ffffffff00
ffffffff00
ffffffff00
ffffffff00
ffffffff00
ffffffff00
ffffffff00
ffffffff00
ffffffff00
ffffffff00
ffffffff00
ffffffff00
ffffffff00
ffffffff00
ffffffff00
0000000000
0000000000
ENDCHAR
STARTCHAR 232a
ENCODING 9002
SWIDTH 1020 0
DWIDTH 34 0
BBX 34 35 0 -4
BITMAP
0000000000
0000000000
0000000000
0000000000
0000000000
ffffffff00
ffffffff00
ffffffff00
ffffffff00
ffffffff00
ffffffff00
ffffffff00
ffffffff00
ffffffff00
ffffffff00
ffffffff00
ffffffff00
ffffffff00
ffffffff00
ffffffff00
ffffffff00
ffffffff00
ffffffff00
ffffffff00
ffffffff00
ffffffff00
ffffffff00
ffffffff00
ffffffff00
ffffffff00
ffffffff00
ffffffff00
ffffffff00
0000000000
0000000000
ENDCHAR
STARTCHAR 232b
ENCODING 9003
SWIDTH 1020 0
DWIDTH 34 0
BBX 34 35 0 -4
BITMAP
0000000000
ffffffff00
ffffffff00
ffffffff00
ffffffff00
ffffffff00
ffffffff00
ffffffff00
ffffffff00
ffffffff00
ffffffff00
ffffffff00
ffffffff00
ffffffff00
ffffffff00
ffffffff00
ffffffff00
ffffffff00
ffffffff00
ffffffff00
ffffffff00
ffffffff00
ffffffff00
ffffffff00
ffffffff00
ffffffff00
ffffffff00
ffffffff00
ffffffff00
ffffffff00
ffffffff00
ffffffff00
ffffffff00
0000000000
0000000000
ENDCHAR
STARTCHAR 232c
ENCODING 9004
SWIDTH 1020 0
DWIDTH 34 0
BBX 34 35 0 -4
BITMAP
0000000000
f000000000
f000000000
f000000000
f000000000
f000000000
f000000000
f000000000
f000000000
f000000000
f000000000
f000000000
f000000000
f000000000
f000000000
f000000000
f000000000
f000000000
f000000000
f000000000
f000000000
f000000000
f000000000
f000000000
f000000000
f000000000
f000000000
f000000000
f000000000
f000000000
f000000000
f000000000
f000000000
0000000000
0000000000
ENDCHAR
STARTCHAR 232d
ENCODING 9005
SWIDTH 1020 0
DWIDTH 34 0
BBX 34 35 0 -4
BITMAP
0000000000
ff00000000
ff00000000
ff00000000
ff00000000
ff00000000
ff00000000
ff00000000
ff00000000
ff00000000
ff00000000
ff00000000
ff00000000
ff00000000
ff00000000
ff00000000
ff00000000
ff00000000
ff00000000
ff00000000
ff00000000
ff00000000
ff00000000
ff00000000
ff00000000
ff00000000
ff00000000
ff00000000
ff00000000
ff00000000
ff00000000
ff00000000
ff00000000
0000000000
0000000000
ENDCHAR
STARTCHAR 232e
ENCODING 9006
SWIDTH 1020 0
DWIDTH 34 0
BBX 34 35 0 -4
BITMAP
0000000000
fff0000000
fff0000000
fff0000000
fff0000000
fff0000000
fff0000000
fff0000000
fff0000000
fff0000000
fff0000000
fff0000000
fff0000000
fff0000000
fff0000000
fff0000000
fff0000000
fff0000000
fff0000000
fff0000000
fff0000000
fff0000000
fff0000000
fff0000000
fff0000000
fff0000000
fff0000000
fff0000000
fff0000000
fff0000000
fff0000000
fff0000000
fff0000000
0000000000
0000000000
ENDCHAR
STARTCHAR 232f
ENCODING 9007
SWIDTH 1020 0
DWIDTH 34 0
BBX 34 35 0 -4
BITMAP
0000000000
ffff000000
ffff000000
ffff000000
ffff000000
ffff000000
ffff000000
ffff000000
ffff000000
ffff000000
ffff000000
ffff000000
ffff000000
ffff000000
ffff000000
ffff000000
ffff000000
ffff000000
ffff000000
ffff000000
ffff000000
ffff000000
ffff000000
ffff000000
ffff000000
ffff000000
ffff000000
ffff000000
ffff000000
ffff000000
ffff000000
ffff000000
ffff000000
0000000000
0000000000
ENDCHAR
STARTCHAR 2330
ENCODING 9008
SWIDTH 1020 0
DWIDTH 34 0
BBX 34 35 0 -4
BITMAP
0000000000
fffff00000
fffff00000
fffff00000
fffff00000
fffff00000
fffff00000
fffff00000
fffff00000
fffff00000
fffff00000
fffff00000
fffff00000
fffff00000
fffff00000
fffff00000
fffff00000
fffff00000
fffff00000
fffff00000
fffff00000
fffff00000
fffff00000
fffff00000
fffff00000
fffff00000
fffff00000
fffff00000
fffff00000
fffff00000
fffff00000
fffff00000
fffff00000
0000000000
0000000000
ENDCHAR
STARTCHAR 2331
ENCODING 9009
SWIDTH 1020 0
DWIDTH 34 0
BBX 34 35 0 -4
BITMAP
0000000000
ffffff0000
ffffff0000
ffffff0000
ffffff0000
ffffff0000
ffffff0000
ffffff0000
ffffff0000
ffffff0000
ffffff0000
ffffff0000
ffffff0000
ffffff0000
ffffff0000
ffffff0000
ffffff0000
ffffff0000
ffffff0000
ffffff0000
ffffff0000
ffffff0000
ffffff0000
ffffff0000
ffffff0000
ffffff0000
ffffff0000
ffffff0000
ffffff0000
ffffff0000
ffffff0000
ffffff0000
ffffff0000
0000000000
0000000000
ENDCHAR
STARTCHAR 2332
ENCODING 9010
SWIDTH 1020 0
DWIDTH 34 0
BBX 34 35 0 -4
BITMAP
0000000000
fffffff000
fffffff000
fffffff000
fffffff000
fffffff000
fffffff000
fffffff000
fffffff000
fffffff000
fffffff000
fffffff000
fffffff000
fffffff000
fffffff000
fffffff000
fffffff000
fffffff000
fffffff000
fffffff000
fffffff000
fffffff000
fffffff000
fffffff000
fffffff000
fffffff000
fffffff000
fffffff000
fffffff000
fffffff000
fffffff000
fffffff000
fffffff000
0000000000
0000000000
ENDCHAR
STARTCHAR 2333
ENCODING 9011
SWIDTH 1020 0
DWIDTH 34 0
BBX 34 35 0 -4
BITMAP
0000000000
0001000000
0001000000
0001000000
0001000000
0001000000
0001000000
0001000000
0001000000
0001000000
0001000000
0001000000
0001000000
0001000000
0001000000
0001000000
ffffffff00
0001000000
0001000000
0001000000
0001000000
0001000000
0001000000
0001000000
0001000000
0001000000
0001000000
0001000000
0001000000
0001000000
0001000000
0001000000
0001000000
0000000000
0000000000
ENDCHAR
STARTCHAR 2334
ENCODING 9012
SWIDTH 1020 0
DWIDTH 34 0
BBX 34 35 0 -4
BITMAP
0000000000
0001000000
0001000000
0001000000
0001000000
0001000000
0001000000
0001000000
0001000000
0001000000
0001000000
0001000000
0001000000
0001000000
0001000000
0001000000
ffffffff00
0000000000
0000000000
0000000000
0000000000
0000000000
0000000000
0000000000
0000000000
0000000000
0000000000
0000000000
0000000000
0000000000
0000000000
0000000000
0000000000
0000000000
0000000000
ENDCHAR
STARTCHAR 2335
ENCODING 9013
SWIDTH 1020 0
DWIDTH 34 0
BBX 34 35 0 -4
BITMAP
0000000000
0000000000
0000000000
0000000000
0000000000
0000000000
0000000000
0000000000
0000000000
0000000000
0000000000
0000000000
0000000000
0000000000
0000000000
0000000000
ffffffff00
0001000000
0001000000
0001000000
0001000000
0001000000
0001000000
0001000000
0001000000
0001000000
0001000000
0001000000
0001000000
0001000000
0001000000
0001000000
0001000000
0000000000
0000000000
ENDCHAR
STARTCHAR 2336
ENCODING 9014
SWIDTH 1020 0
DWIDTH 34 0
BBX 34 35 0 -4
BITMAP
0000000000
0001000000
0001000000
0001000000
0001000000
0001000000
0001000000
0001000000
0001000000
0001000000
0001000000
0001000000
0001000000
0001000000
0001000000
0001000000
ffff000000
0001000000
0001000000
0001000000
0001000000
0001000000
0001000000
0001000000
0001000000
0001000000
0001000000
0001000000
0001000000
0001000000
0001000000
0001000000
0001000000
0000000000
0000000000
ENDCHAR
STARTCHAR 2337
ENCODING 9015
SWIDTH 1020 0
DWIDTH 34 0
BBX 34 35 0 -4
BITMAP
0000000000
0001000000
0001000000
0001000000
0001000000
0001000000
0001000000
0001000000
0001000000
0001000000
0001000000
0001000000
0001000000
0001000000
0001000000
0001000000
0001ffff00
0001000000
0001000000
0001000000
0001000000
0001000000
0001000000
0001000000
0001000000
0001000000
0001000000
0001000000
0001000000
0001000000
0001000000
0001000000
0001000000
0000000000
0000000000
ENDCHAR
STARTCHAR 2338
ENCODING 9016
SWIDTH 1020 0
DWIDTH 34 0
BBX 34 35 0 -4
BITMAP
0000000000
ffffffff00
ffffffff00
ffffffff00
0000000000
0000000000
0000000000
0000000000
0000000000
0000000000
0000000000
0000000000
0000000000
0000000000
0000000000
0000000000
0000000000
0000000000
0000000000
0000000000
0000000000
0000000000
0000000000
0000000000
0000000000
0000000000
0000000000
0000000000
0000000000
0000000000
0000000000
0000000000
0000000000
0000000000
0000000000
ENDCHAR
STARTCHAR 2339
ENCODING 9017
SWIDTH 1020 0
DWIDTH 34 0
BBX 34 35 0 -4
BITMAP
0000000000
0000000000
0000000000
0000000000
0000000000
0000000000
0000000000
0000000000
0000000000
0000000000
0000000000
0000000000
0000000000
0000000000
0000000000
0000000000
ffffffff00
0000000000
0000000000
0000000000
0000000000
0000000000
0000000000
0000000000
0000000000
0000000000
0000000000
0000000000
0000000000
0000000000
0000000000
0000000000
0000000000
0000000000
0000000000
ENDCHAR
STARTCHAR 233a
ENCODING 9018
SWIDTH 1020 0
DWIDTH 34 0
BBX 34 35 0 -4
BITMAP
0000000000
0001000000
0001000000
0001000000
0001000000
0001000000
0001000000
0001000000
0001000000
0001000000
0001000000
0001000000
0001000000
0001000000
0001000000
0001000000
0001000000
0001000000
0001000000
0001000000
0001000000
0001000000
0001000000
0001000000
0001000000
0001000000
0001000000
0001000000
0001000000
0001000000
0001000000
0001000000
0001000000
0000000000
0000000000
ENDCHAR
STARTCHAR 233b
ENCODING 9019
SWIDTH 1020 0
DWIDTH 34 0
BBX 34 35 0 -4
BITMAP
0000000000
0000000700
0000000700
0000000700
0000000700
0000000700
0000000700
0000000700
0000000700
0000000700
0000000700
0000000700
0000000700
0000000700
0000000700
0000000700
0000000700
0000000700
0000000700
0000000700
0000000700
0000000700
0000000700
0000000700
0000000700
0000000700
0000000700
0000000700
0000000700
0000000700
0000000700
0000000700
0000000700
0000000000
0000000000
ENDCHAR
STARTCHAR 233c
ENCODING 9020
SWIDTH 1020 0
DWIDTH 34 0
BBX 34 35 0 -4
BITMAP
0000000000
0000000000
0000000000
0000000000
0000000000
0000000000
0000000000
0000000000
0000000000
0000000000
0000000000
0000000000
0000000000
0000000000
0000000000
0000000000
0001ffff00
0001000000
0001000000
0001000000
0001000000
0001000000
0001000000
0001000000
0001000000
0001000000
0001000000
0001000000
0001000000
0001000000
0001000000
0001000000
0001000000
0000000000
0000000000
ENDCHAR
STARTCHAR 233d
ENCODING 9021
SWIDTH 1020 0
DWIDTH 34 0
BBX 34 35 0 -4
BITMAP
0000000000
0000000000
0000000000
0000000000
0000000000
0000000000
0000000000
0000000000
0000000000
0000000000
0000000000
0000000000
0000000000
0000000000
0000000000
0000000000
ffff000000
0001000000
0001000000
0001000000
0001000000
0001000000
0001000000
0001000000
0001000000
0001000000
0001000000
0001000000
0001000000
0001000000
0001000000
0001000000
0001000000
0000000000
0000000000
ENDCHAR
STARTCHAR 233e
ENCODING 9022
SWIDTH 1020 0
DWIDTH 34 0
BBX 34 35 0 -4
BITMAP
0000000000
0001000000
0001000000
0001000000
0001000000
0001000000
0001000000
0001000000
0001000000
0001000000
0001000000
0001000000
0001000000
0001000000
0001000000
0001000000
0001ffff00
0000000000
0000000000
0000000000
0000000000
0000000000
0000000000
0000000000
0000000000
0000000000
0000000000
0000000000
0000000000
0000000000
0000000000
0000000000
0000000000
0000000000
0000000000
ENDCHAR
STARTCHAR 233f
ENCODING 9023
SWIDTH 1020 0
DWIDTH 34 0
BBX 34 35 0 -4
BITMAP
0000000000
0001000000
0001000000
0001000000
0001000000
0001000000
0001000000
0001000000
0001000000
0001000000
0001000000
0001000000
0001000000
0001000000
0001000000
0001000000
ffff000000
0000000000
0000000000
0000000000
0000000000
0000000000
0000000000
0000000000
0000000000
0000000000
0000000000
0000000000
0000000000
0000000000
0000000000
0000000000
0000000000
0000000000
0000000000
ENDCHAR
STARTCHAR 2340
ENCODING 9024
SWIDTH 1020 0
DWIDTH 34 0
BBX 34 35 0 -4
BITMAP
0000000000
0000000000
0000000000
0000000000
0000000000
0000000000
0000000000
0000000000
0000000000
0000000000
0000000000
0000000000
0000000000
0000000000
0000000000
0000000300
0000001f00
0000007f00
000001ff00
000007f000
00000fc000
00001f0000
00003e0000
00003c0000
0000780000
0000700000
0000f00000
0000e00000
0001e00000
0001c00000
0001c00000
0003c00000
0003c00000
0000000000
0000000000
ENDCHAR
STARTCHAR 2341
ENCODING 9025
SWIDTH 1020 0
DWIDTH 34 0
BBX 34 35 0 -4
BITMAP
0000000000
0000000000
0000000000
0000000000
0000000000
0000000000
0000000000
0000000000
0000000000
0000000000
0000000000
0000000000
0000000000
0000000000
0000000000
c000000000
f800000000
fe00000000
ff80000000
0fe0000000
03f0000000
00f8000000
007c000000
003c000000
001e000000
000e000000
000f000000
0007000000
0007800000
0003800000
0003800000
0003c00000
0003c00000
0000000000
0000000000
ENDCHAR
STARTCHAR 2342
ENCODING 9026
SWIDTH 1020 0
DWIDTH 34 0
BBX 34 35 0 -4
BITMAP
0000000000
0003c00000
0003c00000
0001c00000
0001c00000
0001e00000
0000e00000
0000f00000
0000700000
0000780000
00003c0000
00003e0000
00001f0000
00000fc000
000007f000
000001ff00
0000007f00
0000001f00
0000000300
0000000000
0000000000
0000000000
0000000000
0000000000
0000000000
0000000000
0000000000
0000000000
0000000000
0000000000
0000000000
0000000000
0000000000
0000000000
0000000000
ENDCHAR
STARTCHAR 2343
ENCODING 9027
SWIDTH 1020 0
DWIDTH 34 0
BBX 34 35 0 -4
BITMAP
0000000000
0003c00000
0003c00000
0003800000
0003800000
0007800000
0007000000
000f000000
000e000000
001e000000
003c000000
007c000000
00f8000000
03f0000000
0fe0000000
ff80000000
fe00000000
f800000000
c000000000
0000000000
0000000000
0000000000
0000000000
0000000000
0000000000
0000000000
0000000000
0000000000
0000000000
0000000000
0000000000
0000000000
0000000000
0000000000
0000000000
ENDCHAR
STARTCHAR 2344
ENCODING 9028
SWIDTH 1020 0
DWIDTH 34 0
BBX 34 35 0 -4
BITMAP
0000000000
0000000000
0000000000
0000000000
0000000000
0000000000
0000000000
0000000000
0000000000
0000000000
0000000000
0000000000
ffffffff00
ffffffff00
0000000000
0000000000
0000000000
0000000000
0000000000
ffffffff00
ffffffff00
0000000000
0000000000
0000000000
0000000000
0000000000
0000000000
0000000000
0000000000
0000000000
0000000000
0000000000
0000000000
0000000000
0000000000
ENDCHAR
STARTCHAR 2345
ENCODING 9029
SWIDTH 1020 0
DWIDTH 34 0
BBX 34 35 0 -4
BITMAP
0000000000
0001800000
0001800000
0001800000
0001800000
0001800000
0001800000
0001800000
0001800000
0001800000
0001800000
0001800000
0001ffff00
0001ffff00
0001800000
0001800000
0001800000
0001800000
0001800000
0001ffff00
0001ffff00
0001800000
0001800000
0001800000
0001800000
0001800000
0001800000
0001800000
0001800000
0001800000
0001800000
0001800000
0001800000
0000000000
0000000000
ENDCHAR
STARTCHAR 2346
ENCODING 9030
SWIDTH 1020 0
DWIDTH 34 0
BBX 34 35 0 -4
BITMAP
0000000000
0001800000
0001800000
0001800000
0001800000
0001800000
0001800000
0001800000
0001800000
0001800000
0001800000
0001800000
ffffffff00
ffffffff00
0001800000
0001800000
0001800000
0001800000
0001800000
ffffffff00
ffffffff00
0001800000
0001800000
0001800000
0001800000
0001800000
0001800000
0001800000
0001800000
0001800000
0001800000
0001800000
0001800000
0000000000
0000000000
ENDCHAR
STARTCHAR 2347
ENCODING 9031
SWIDTH 1020 0
DWIDTH 34 0
BBX 34 35 0 -4
BITMAP
0000000000
0001800000
0001800000
0001800000
0001800000
0001800000
0001800000
0001800000
0001800000
0001800000
0001800000
0001800000
ffff800000
ffff800000
0001800000
0001800000
0001800000
0001800000
0001800000
ffff800000
ffff800000
0001800000
0001800000
0001800000
0001800000
0001800000
0001800000
0001800000
0001800000
0001800000
0001800000
0001800000
0001800000
0000000000
0000000000
ENDCHAR
STARTCHAR 2348
ENCODING 9032
SWIDTH 1020 0
DWIDTH 34 0
BBX 34 35 0 -4
BITMAP
0000000000
0000000100
0000000300
0000000700
0000000f00
0000001f00
0000003f00
0000007f00
000000ff00
000001ff00
000003ff00
000007ff00
00000fff00
00001fff00
00003fff00
00007fff00
0000ffff00
0001ffff00
0003ffff00
0007ffff00
000fffff00
001fffff00
003fffff00
007fffff00
00ffffff00
01ffffff00
03ffffff00
07ffffff00
0fffffff00
1fffffff00
3fffffff00
7fffffff00
ffffffff00
0000000000
0000000000
ENDCHAR
STARTCHAR 2349
ENCODING 9033
SWIDTH 1020 0
DWIDTH 34 0
BBX 34 35 0 -4
BITMAP
0000000000
8000000000
c000000000
e000000000
f000000000
f800000000
fc00000000
fe00000000
ff00000000
ff80000000
ffc0000000
ffe0000000
fff0000000
fff8000000
fffc000000
fffe000000
ffff000000
ffff800000
ffffc00000
ffffe00000
fffff00000
fffff80000
fffffc0000
fffffe0000
ffffff0000
ffffff8000
ffffffc000
ffffffe000
fffffff000
fffffff800
fffffffc00
fffffffe00
ffffffff00
0000000000
0000000000
ENDCHAR
STARTCHAR 234a
ENCODING 9034
SWIDTH 1020 0
DWIDTH 34 0
BBX 34 35 0 -4
BITMAP
0000000000
ffffffff00
7fffffff00
3fffffff00
1fffffff00
0fffffff00
07ffffff00
03ffffff00
01ffffff00
00ffffff00
007fffff00
003fffff00
001fffff00
000fffff00
0007ffff00
0003ffff00
0001ffff00
0000ffff00
00007fff00
00003fff00
00001fff00
00000fff00
000007ff00
000003ff00
000001ff00
000000ff00
0000007f00
0000003f00
0000001f00
0000000f00
0000000700
0000000300
0000000100
0000000000
0000000000
ENDCHAR
STARTCHAR 234b
ENCODING 9035
SWIDTH 1020 0
DWIDTH 34 0
BBX 34 35 0 -4
BITMAP
0000000000
ffffffff00
fffffffe00
fffffffc00
fffffff800
fffffff000
ffffffe000
ffffffc000
ffffff8000
ffffff0000
fffffe0000
fffffc0000
fffff80000
fffff00000
ffffe00000
ffffc00000
ffff800000
ffff000000
fffe000000
fffc000000
fff8000000
fff0000000
ffe0000000
ffc0000000
ff80000000
ff00000000
fe00000000
fc00000000
f800000000
f000000000
e000000000
c000000000
8000000000
0000000000
0000000000
ENDCHAR
STARTCHAR 234c
ENCODING 9036
SWIDTH 1020 0
DWIDTH 34 0
BBX 34 35 0 -4
BITMAP
0000000000
0000000300
0000000700
0000000e00
0000001c00
0000003800
0000007000
000000e000
000001c000
0000038000
0000070000
00000e0000
00001c0000
0000380000
0000700000
0000e00000
0001c00000
0003800000
0007000000
000e000000
001c000000
0038000000
0070000000
00e0000000
01c0000000
0380000000
0700000000
0e00000000
1c00000000
3800000000
7000000000
e000000000
c000000000
0000000000
0000000000
ENDCHAR
STARTCHAR 234d
ENCODING 9037
SWIDTH 1020 0
DWIDTH 34 0
BBX 34 35 0 -4
BITMAP
0000000000
c000000000
e000000000
7000000000
3800000000
1c00000000
0e00000000
0700000000
0380000000
01c0000000
00e0000000
0070000000
0038000000
001c000000
000e000000
0007000000
0003800000
0001c00000
0000e00000
0000700000
0000380000
00001c0000
00000e0000
0000070000
0000038000
000001c000
000000e000
0000007000
0000003800
0000001c00
0000000e00
0000000700
0000000300
0000000000
0000000000
ENDCHAR
STARTCHAR 234e
ENCODING 9038
SWIDTH 1020 0
DWIDTH 34 0
BBX 34 35 0 -4
BITMAP
0000000000
c000000300
e000000700
7000000e00
3800001c00
1c00003800
0e00007000
070000e000
038001c000
01c0038000
00e0070000
00700e0000
00381c0000
001c380000
000e700000
0007e00000
0003c00000
0003c00000
0007e00000
000e700000
001c380000
00381c0000
00700e0000
00e0070000
01c0038000
038001c000
070000e000
0e00007000
1c00003800
3800001c00
7000000e00
e000000700
c000000300
0000000000
0000000000
ENDCHAR
STARTCHAR 2421
ENCODING 9249
SWIDTH 1020 0
DWIDTH 34 0
BBX 34 35 0 -4
BITMAP
0000000000
0000000000
0000000000
0007c00000
001c700000
00701c0000
00e00e0000
01c0070000
01c0070000
0380038000
0380038000
0380038000
070001c000
070001c000
070001c000
070001c000
070001c000
070001c000
070001c000
070001c000
070001c000
070001c000
0380038000
0380038000
0380038000
01c0070000
01c0070000
00e00e0000
00701c0000
001c700000
0007c00000
0000000000
0000000000
0000000000
0000000000
ENDCHAR
STARTCHAR 2422
ENCODING 9250
SWIDTH 1020 0
DWIDTH 34 0
BBX 34 35 0 -4
BITMAP
0000000000
0000000000
0000000000
0001800000
0003800000
0007800000
001f800000
003f800000
0003800000
0003800000
0003800000
0003800000
0003800000
0003800000
0003800000
0003800000
0003800000
0003800000
0003800000
0003800000
0003800000
0003800000
0003800000
0003800000
0003800000
0003800000
0003800000
0003800000
0003800000
0003800000
003ff80000
0000000000
0000000000
0000000000
0000000000
ENDCHAR
STARTCHAR 2423
ENCODING 9251
SWIDTH 1020 0
DWIDTH 34 0
BBX 34 35 0 -4
BITMAP
0000000000
0000000000
0000000000
000ff00000
00381c0000
00e0070000
0180038000
0180038000
03c001c000
03e001c000
03e001c000
01c001c000
0000038000
0000038000
0000070000
00000e0000
00003c0000
0000700000
0001e00000
0003800000
000f000000
001c000000
0038000000
0070000000
00e0002000
00c0002000
01c0006000
0180006000
03ffffe000
03ffffe000
03ffffe000
0000000000
0000000000
0000000000
0000000000
ENDCHAR
STARTCHAR 2424
ENCODING 9252
SWIDTH 1020 0
DWIDTH 34 0
BBX 34 35 0 -4
BITMAP
0000000000
0000000000
0000000000
000fe00000
0038380000
00e00e0000
01c0070000
0180030000
03c0038000
03e0038000
03e0038000
01c0038000
0000070000
0000070000
00000e0000
0000380000
0007e00000
00003c0000
0000070000
0000038000
0000038000
000001c000
01c001c000
03e001c000
03e001c000
03c001c000
0180038000
01c0038000
00e0070000
00381c0000
000ff00000
0000000000
0000000000
0000000000
0000000000
ENDCHAR
STARTCHAR 2425
ENCODING 9253
SWIDTH 1020 0
DWIDTH 34 0
BBX 34 35 0 -4
BITMAP
0000000000
0000000000
0000000000
00001c0000
00003c0000
00007c0000
0000fc0000
0000dc0000
00019c0000
00039c0000
00071c0000
000e1c0000
000c1c0000
00181c0000
00381c0000
00701c0000
00e01c0000
00c01c0000
01801c0000
03801c0000
07001c0000
0e001c0000
0e001c0000
0ffffff000
00001c0000
00001c0000
00001c0000
00001c0000
00001c0000
00001c0000
0001ff8000
0000000000
0000000000
0000000000
0000000000
ENDCHAR
STARTCHAR 2426
ENCODING 9254
SWIDTH 1020 0
DWIDTH 34 0
BBX 34 35 0 -4
BITMAP
0000000000
0000000000
0000000000
01ffff8000
01ffff8000
01ffff0000
0100000000
0100000000
0100000000
0100000000
0100000000
0100000000
0100000000
0100000000
0107f00000
011c1c0000
01700e0000
01c0070000
0180038000
0000038000
000001c000
000001c000
01c001c000
03e001c000
03e001c000
03c0038000
0180038000
00c0070000
00600e0000
00381c0000
000ff00000
0000000000
0000000000
0000000000
0000000000
ENDCHAR
STARTCHAR 2427
ENCODING 9255
SWIDTH 1020 0
DWIDTH 34 0
BBX 34 35 0 -4
BITMAP
0000000000
0000000000
0000000000
0003f00000
000e1c0000
0038070000
0070038000
00e0018000
00c003c000
01c007c000
01c007c000
0380038000
0380000000
0380000000
0380000000
0387f80000
039c0e0000
03b0038000
03e001c000
03c001c000
03c000e000
038000e000
038000e000
038000e000
01c000e000
01c000e000
00c001c000
00e001c000
0070038000
001c0e0000
0007f80000
0000000000
0000000000
0000000000
0000000000
ENDCHAR
STARTCHAR 2428
ENCODING 9256
SWIDTH 1020 0
DWIDTH 34 0
BBX 34 35 0 -4
BITMAP
0000000000
0000000000
0000000000
01ffffe000
03ffffe000
03ffffe000
030000c000
030000c000
0200018000
0200018000
0000030000
0000030000
0000060000
0000060000
00000c0000
00000c0000
0000180000
0000180000
0000300000
0000300000
0000700000
0000600000
0000e00000
0000e00000
0000e00000
0000c00000
0001c00000
0001c00000
0001c00000
0001c00000
0001c00000
0000000000
0000000000
0000000000
0000000000
ENDCHAR
STARTCHAR 2429
ENCODING 9257
SWIDTH 1020 0
DWIDTH 34 0
BBX 34 35 0 -4
BITMAP
0000000000
0000000000
0000000000
000fe00000
0038380000
00e00e0000
01c0070000
01c0070000
0380038000
0380038000
0380038000
0380038000
01c0070000
01c0070000
00e00e0000
0038380000
000fe00000
00783c0000
01c0070000
0380038000
0380038000
070001c000
070001c000
070001c000
070001c000
070001c000
0380038000
0380038000
01c0070000
00701c0000
001ff00000
0000000000
0000000000
0000000000
0000000000
ENDCHAR
STARTCHAR 242a
ENCODING 9258
SWIDTH 1020 0
DWIDTH 34 0
BBX 34 35 0 -4
BITMAP
0000000000
0000000000
0000000000
000fe00000
0038380000
00e00e0000
01c0070000
0380038000
0380038000
070001c000
070001c000
070001c000
070001c000
070003c000
038003c000
038007c000
01c00dc000
007039c000
001fe1c000
000001c000
000001c000
000001c000
000001c000
0000038000
01c0038000
03e0038000
03e0070000
03c0070000
01800e0000
00e0380000
003fe00000
0000000000
0000000000
0000000000
0000000000
ENDCHAR
STARTCHAR 242b
ENCODING 9259
SWIDTH 1020 0
DWIDTH 34 0
BBX 34 35 0 -4
BITMAP
0000000000
0000000000
0000000000
0000000000
0000000000
0000000000
001ff00000
0003800000
0003800000
0003800000
0003800000
0003800000
0003800000
0003800000
0003800000
0003800000
0003800000
0003800000
0003800000
0003800000
0003800000
0003800000
0003800000
0003800000
0003800000
0003800000
0003800000
001ff00000
0000000000
0000000000
0000000000
0000000000
0000000000
0000000000
0000000000
ENDCHAR
STARTCHAR 242c
ENCODING 9260
SWIDTH 1020 0
DWIDTH 34 0
BBX 34 35 0 -4
BITMAP
0000000000
0000000000
0000000000
0000000000
0000000000
0000000000
01fc3f8000
00700e0000
00700e0000
00700e0000
00700e0000
00700e0000
00700e0000
00700e0000
00700e0000
00700e0000
00700e0000
00700e0000
00700e0000
00700e0000
00700e0000
00700e0000
00700e0000
00700e0000
00700e0000
00700e0000
00700e0000
01fc3f8000
0000000000
0000000000
0000000000
0000000000
0000000000
0000000000
0000000000
ENDCHAR
STARTCHAR 242d
ENCODING 9261
SWIDTH 1020 0
DWIDTH 34 0
BBX 34 35 0 -4
BITMAP
0000000000
0000000000
0000000000
0000000000
0000000000
0000000000
3f8fe1fc00
0e03807000
0e03807000
0e03807000
0e03807000
0e03807000
0e03807000
0e03807000
0e03807000
0e03807000
0e03807000
0e03807000
0e03807000
0e03807000
0e03807000
0e03807000
0e03807000
0e03807000
0e03807000
0e03807000
0e03807000
3f8fe1fc00
0000000000
0000000000
0000000000
0000000000
0000000000
0000000000
0000000000
ENDCHAR
STARTCHAR 242e
ENCODING 9262
SWIDTH 1020 0
DWIDTH 34 0
BBX 34 35 0 -4
BITMAP
0000000000
0000000000
0000000000
0000000000
0000000000
0000000000
3fbf807c00
0e0e001000
0e07003000
0e07002000
0e07002000
0e03806000
0e03804000
0e03804000
0e01c0c000
0e01c08000
0e01c08000
0e00e18000
0e00e10000
0e00e10000
0e00730000
0e00720000
0e00720000
0e003e0000
0e003c0000
0e003c0000
0e001c0000
3f80180000
0000080000
0000000000
0000000000
0000000000
0000000000
0000000000
0000000000
ENDCHAR
STARTCHAR 242f
ENCODING 9263
SWIDTH 1020 0
DWIDTH 34 0
BBX 34 35 0 -4
BITMAP
0000000000
0000000000
0000000000
0000000000
0000000000
0000000000
0ff80fe000
01c0010000
00e0030000
00e0020000
00e0020000
0070060000
0070040000
0070040000
00380c0000
0038080000
0038180000
001c100000
001c100000
001c300000
000e200000
000e200000
000e600000
0007400000
0007c00000
0007800000
0003800000
0003000000
0001000000
0000000000
0000000000
0000000000
0000000000
0000000000
0000000000
ENDCHAR
STARTCHAR 2430
ENCODING 9264
SWIDTH 1020 0
DWIDTH 34 0
BBX 34 35 0 -4
BITMAP
0000000000
0000000000
0000000000
0000000000
0000000000
0000000000
3f80fbf800
0e0020e000
0e0060e000
070040e000
070040e000
0700c0e000
038080e000
038080e000
038180e000
01c100e000
01c100e000
01c300e000
00e200e000
00e200e000
00e600e000
007400e000
007400e000
007c00e000
003800e000
003800e000
003800e000
001003f800
0010000000
0000000000
0000000000
0000000000
0000000000
0000000000
0000000000
ENDCHAR
STARTCHAR 2431
ENCODING 9265
SWIDTH 1020 0
DWIDTH 34 0
BBX 34 35 0 -4
BITMAP
0000000000
0000000000
0000000000
0000000000
0000000000
0000000000
3f8fbefc00
0e021c7000
0e021c7000
0e021c7000
07061c7000
07041c7000
07041c7000
07041c7000
070c1c7000
03881c7000
03881c7000
03881c7000
03881c7000
03981c7000
01d01c7000
01d01c7000
01d01c7000
01f01c7000
01e01c7000
00e01c7000
00e01c7000
00e07efc00
0040000000
0000000000
0000000000
0000000000
0000000000
0000000000
0000000000
ENDCHAR
STARTCHAR 2432
ENCODING 9266
SWIDTH 1020 0
DWIDTH 34 0
BBX 34 35 0 -4
BITMAP
0000000000
0000000000
0000000000
0000000000
0000000000
0000000000
7e3dfffc00
3808c63000
3808c63000
3808c63000
1c18c63000
1c10c63000
1c10c63000
1c10c63000
1c30c63000
0e20c63000
0e20c63000
0e20c63000
0e60c63000
0e40c63000
0740c63000
0740c63000
07c0c63000
0780c63000
0380c63000
0380c63000
0380c63000
0303fffc00
0100000000
0000000000
0000000000
0000000000
0000000000
0000000000
0000000000
ENDCHAR
STARTCHAR 2433
ENCODING 9267
SWIDTH 1020 0
DWIDTH 34 0
BBX 34 35 0 -4
BITMAP
0000000000
0000000000
0000000000
0000000000
0000000000
0000000000
3f9fc0fc00
0e07003000
0e03806000
0e03806000
0e01c0c000
0e01c18000
0e00e18000
0e00e30000
0e00730000
0e00760000
0e003c0000
0e001c0000
0e001e0000
0e00370000
0e00638000
0e00c38000
0e00c1c000
0e0181c000
0e0300e000
0e0300e000
0e06007000
3f9f81fc00
0000000000
0000000000
0000000000
0000000000
0000000000
0000000000
0000000000
ENDCHAR
STARTCHAR 2434
ENCODING 9268
SWIDTH 1020 0
DWIDTH 34 0
BBX 34 35 0 -4
BITMAP
0000000000
0000000000
0000000000
0000000000
0000000000
0000000000
01fc0fc000
0070030000
0038060000
0038060000
001c0c0000
001c180000
000e180000
000e300000
0007300000
0007600000
0003c00000
0001c00000
0001e00000
0003700000
0006380000
000c380000
000c1c0000
00181c0000
00300e0000
00300e0000
0060070000
03f81fe000
0000000000
0000000000
0000000000
0000000000
0000000000
0000000000
0000000000
ENDCHAR
STARTCHAR 2435
ENCODING 9269
SWIDTH 1020 0
DWIDTH 34 0
BBX 34 35 0 -4
BITMAP
0000000000
0000000000
0000000000
0000000000
0003000000
0003800000
0003c00000
0003800000
0003800000
0003800000
0003800000
0003800000
0003800000
0003800000
0003800000
0003800000
0003800000
0003800000
0003800000
0003800000
0003800000
0003800000
0003800000
0003800000
0003800000
0003800000
0003800000
0003800000
0003000000
0000000000
0000000000
0000000000
0000000000
0000000000
0000000000
ENDCHAR
STARTCHAR 2436
ENCODING 9270
SWIDTH 1020 0
DWIDTH 34 0
BBX 34 35 0 -4
BITMAP
0000000000
0000000000
0000000000
0000000000
0000300000
0000380000
00303c0000
0038380000
003c380000
0038380000
0038380000
0038380000
0038380000
0038380000
0038380000
0038380000
0038380000
0038380000
0038380000
0038380000
0038380000
0038380000
0038380000
0038380000
0010380000
0000380000
0000380000
0000380000
0000300000
0000000000
0000000000
0000000000
0000000000
0000000000
0000000000
ENDCHAR
STARTCHAR 2437
ENCODING 9271
SWIDTH 1020 0
DWIDTH 34 0
BBX 34 35 0 -4
BITMAP
0000000000
0000000000
0000000000
0000000000
0000060000
0000078000
01c0078000
01e0070000
01e3870000
01c3c70000
01c3870000
01c3870000
01c3870000
01c3870000
01c3870000
01c3870000
01c3870000
01c3870000
01c3870000
01c3870000
01c3870000
01c3870000
01c3870000
01c3870000
01c3870000
01c3070000
0180070000
0000070000
0000060000
0000000000
0000000000
0000000000
0000000000
0000000000
0000000000
ENDCHAR
STARTCHAR 2438
ENCODING 9272
SWIDTH 1020 0
DWIDTH 34 0
BBX 34 35 0 -4
BITMAP
0000000000
0000000000
0000000000
0000000000
0000030000
000003c000
000003c000
03c0038000
00e0070000
0070070000
0038070000
001c0e0000
000e0e0000
00071c0000
00039c0000
0001f80000
0001f80000
0000f00000
0001f80000
0003f80000
00079c0000
000f1e0000
001e0f0000
003c078000
00f003e000
01e001f800
078000fe00
1e00007800
3000000000
0000000000
0000000000
0000000000
0000000000
0000000000
0000000000
ENDCHAR
STARTCHAR 2439
ENCODING 9273
SWIDTH 1020 0
DWIDTH 34 0
BBX 34 35 0 -4
BITMAP
0000000000
0000000000
0000000000
0000000000
0000000000
0038060000
00781c0000
00e0380000
00e0700000
0070e00000
0039c00000
001f800000
000f800000
000fc00000
001ef00000
001c780000
00383c0000
00381c0000
00700e0000
00700e0000
00e00e0000
00e00e0000
00e00e0000
00e00e0000
00e01e0000
00703c0000
0038780000
001ff00000
0007c00000
0000000000
0000000000
0000000000
0000000000
0000000000
0000000000
ENDCHAR
STARTCHAR 243a
ENCODING 9274
SWIDTH 1020 0
DWIDTH 34 0
BBX 34 35 0 -4
BITMAP
0000000000
0000000000
0000000000
0000000000
0001000000
0001c00000
0001c00000
0001800000
0001800000
0001802000
0001807000
1ffffff800
1ffffff800
0000000000
0000000000
0000000000
0000000000
0000000000
0000000000
0000000000
0000000000
0000000000
0000000000
0000000000
0000000000
0000000000
0000000000
0000000000
0000000000
0000000000
0000000000
0000000000
0000000000
0000000000
0000000000
ENDCHAR
STARTCHAR 243b
ENCODING 9275
SWIDTH 1020 0
DWIDTH 34 0
BBX 34 35 0 -4
BITMAP
0000000000
0000000000
0000000000
0000000000
0001000000
0001c00000
0001c00000
0001800000
0001800000
0001802000
0001807000
1ffffff800
1ffffff800
0000000000
0000000000
0000000000
0000000000
0000010000
0000038000
01ffffc000
01ffffc000
0000000000
0000000000
0000000000
0000000000
0000000000
0000000000
0000000000
0000000000
0000000000
0000000000
0000000000
0000000000
0000000000
0000000000
ENDCHAR
STARTCHAR 243c
ENCODING 9276
SWIDTH 1020 0
DWIDTH 34 0
BBX 34 35 0 -4
BITMAP
0000000000
0000000000
0000000000
0000000000
0001000000
0001c00000
0001c00000
0001800000
0001800000
0001802000
0001807000
1ffffff800
1ffffff800
0000000000
0000000000
0000000000
0000000000
0000010000
0000038000
03ffffc000
03ffffc000
0000000000
0000000000
0000000000
0000000000
0000002000
0000007000
1ffffff800
1ffffff800
0000000000
0000000000
0000000000
0000000000
0000000000
0000000000
ENDCHAR
STARTCHAR 243d
ENCODING 9277
SWIDTH 1020 0
DWIDTH 34 0
BBX 34 35 0 -4
BITMAP
0000000000
0000000000
0000000000
0000000000
000c000000
000f000000
001e000000
001c000000
0038000000
0070060000
00ffff0000
007fff0000
00100e0000
00101c0000
00181c0000
0018380000
000c380000
000c700000
0006700000
0007e00000
0003c00000
0003c00000
0007e00000
000e780000
003c3e0000
00701f8000
01c007e000
070003c000
0000000000
0000000000
0000000000
0000000000
0000000000
0000000000
0000000000
ENDCHAR
STARTCHAR 243e
ENCODING 9278
SWIDTH 1020 0
DWIDTH 34 0
BBX 34 35 0 -4
BITMAP
0000000000
0000000000
0000000000
0000000000
0003000000
0003800000
0003c00000
0003800000
0003800000
0003800000
0003800000
0003800000
0003800000
0003804000
000380e000
0ffffff000
0ffffff000
0003800000
0003800000
0003800000
0003800000
0003800000
0003800000
0003800000
0003800000
0003800000
0003800000
0003800000
0003000000
0000000000
0000000000
0000000000
0000000000
0000000000
0000000000
ENDCHAR
STARTCHAR 243f
ENCODING 9279
SWIDTH 1020 0
DWIDTH 34 0
BBX 34 35 0 -4
BITMAP
0000000000
0000000000
0000000000
0000000000
0030180000
00381c0000
003c1e0000
00381c0000
00381c0000
00381c0000
00381c0000
00381c0000
00381c0000
00381c2000
00381c7000
1ffffff800
1ffffff800
00381c0000
00381c0000
00381c0000
00381c0000
00381c0000
00381c0000
00381c0000
00381c0000
00381c0000
00381c0000
00381c0000
0030180000
0000000000
0000000000
0000000000
0000000000
0000000000
0000000000
ENDCHAR
STARTCHAR 2440
ENCODING 9280
SWIDTH 1020 0
DWIDTH 34 0
BBX 34 35 0 -4
BITMAP
0000000000
0000000000
0000000000
0000000000
00000c0000
00c00e0000
00e00f0000
00f30e0000
00e38e0000
00e3ce0000
00e38e0000
00e38e0000
00e38e0000
00e38e2000
00e38e7000
1ffffff800
1ffffff800
00e38e0000
00e38e0000
00e38e0000
00e38e0000
00e38e0000
00e38e0000
00e38e0000
00e38e0000
00e10e0000
00e00e0000
00c00e0000
0000040000
0000000000
0000000000
0000000000
0000000000
0000000000
0000000000
ENDCHAR
STARTCHAR 2441
ENCODING 9281
SWIDTH 1020 0
DWIDTH 34 0
BBX 34 35 0 -4
BITMAP
0000000000
0000000000
0000800000
0001800000
0001c00000
0001c00000
0003e00000
0002e00000
0006e00000
0004700000
0004700000
000c700000
0008380000
0018380000
00101c0000
00301c0000
00201c0000
00200e0000
00600e0000
00400e0000
00c0070000
00ffff0000
0180038000
0100038000
0100038000
030001c000
020001c000
060001c000
040000e000
040000e000
3f8007fc00
0000000000
0000000000
0000000000
0000000000
ENDCHAR
STARTCHAR 2442
ENCODING 9282
SWIDTH 1020 0
DWIDTH 34 0
BBX 34 35 0 -4
BITMAP
0000000000
0000000000
0000000000
07fff00000
00e01c0000
00e0070000
00e0038000
00e0038000
00e001c000
00e001c000
00e001c000
00e001c000
00e0038000
00e0038000
00e0070000
00e00e0000
00fff80000
00e00e0000
00e0038000
00e001c000
00e000e000
00e000e000
00e0007000
00e0007000
00e0007000
00e0007000
00e000e000
00e000e000
00e001c000
00e0070000
07fffc0000
0000000000
0000000000
0000000000
0000000000
ENDCHAR
STARTCHAR 2443
ENCODING 9283
SWIDTH 1020 0
DWIDTH 34 0
BBX 34 35 0 -4
BITMAP
0000000000
0000000000
0000000000
0007e02000
001c382000
00700e6000
00e007e000
01c001e000
038000e000
038000e000
0700006000
0700002000
0700000000
0e00000000
0e00000000
0e00000000
0e00000000
0e00000000
0e00000000
0e00000000
0e00000000
0700000000
0700000000
0700002000
0380006000
0380004000
01c000c000
00e0018000
0070070000
001c3c0000
0007e00000
0000000000
0000000000
0000000000
0000000000
ENDCHAR
STARTCHAR 2444
ENCODING 9284
SWIDTH 1020 0
DWIDTH 34 0
BBX 34 35 0 -4
BITMAP
0000000000
0000000000
0000000000
0ffff00000
01c01c0000
01c0070000
01c0038000
01c001c000
01c001c000
01c000e000
01c000e000
01c000e000
01c0007000
01c0007000
01c0007000
01c0007000
01c0007000
01c0007000
01c0007000
01c0007000
01c0007000
01c0007000
01c000e000
01c000e000
01c000e000
01c001c000
01c001c000
01c0038000
01c0070000
01c01c0000
0ffff00000
0000000000
0000000000
0000000000
0000000000
ENDCHAR
STARTCHAR 2445
ENCODING 9285
SWIDTH 1020 0
DWIDTH 34 0
BBX 34 35 0 -4
BITMAP
0000000000
0000000000
0000000000
07ffff8000
00e007c000
00e001c000
00e001c000
00e000c000
00e0004000
00e0004000
00e0000000
00e0000000
00e0100000
00e0100000
00e0300000
00e0700000
00fff00000
00e0700000
00e0300000
00e0100000
00e0100000
00e0000000
00e0000000
00e0000000
00e0004000
00e0004000
00e000c000
00e001c000
00e001c000
00e007c000
07ffff8000
0000000000
0000000000
0000000000
0000000000
ENDCHAR
STARTCHAR 2446
ENCODING 9286
SWIDTH 1020 0
DWIDTH 34 0
BBX 34 35 0 -4
BITMAP
0000000000
0000000000
0000000000
07ffff8000
00e007c000
00e003c000
00e001c000
00e000c000
00e0004000
00e0004000
00e0000000
00e0000000
00e0100000
00e0100000
00e0300000
00e0700000
00fff00000
00e0700000
00e0300000
00e0100000
00e0100000
00e0000000
00e0000000
00e0000000
00e0000000
00e0000000
00e0000000
00e0000000
00e0000000
00e0000000
07fc000000
0000000000
0000000000
0000000000
0000000000
ENDCHAR
STARTCHAR 2447
ENCODING 9287
SWIDTH 1020 0
DWIDTH 34 0
BBX 34 35 0 -4
BITMAP
0000000000
0000000000
0000000000
000fe04000
003838c000
00e00fc000
01c003c000
038001c000
038000c000
070000c000
0700004000
0700000000
0e00000000
0e00000000
0e00000000
0e00000000
0e00000000
0e00000000
0e000ff800
0e0001c000
0e0001c000
0e0001c000
070001c000
070001c000
070001c000
038001c000
038003c000
01c003c000
00e007c000
00381cc000
000ff04000
0000000000
0000000000
0000000000
0000000000
ENDCHAR
STARTCHAR 2448
ENCODING 9288
SWIDTH 1020 0
DWIDTH 34 0
BBX 34 35 0 -4
BITMAP
0000000000
0000000000
0000000000
1ff01ff000
0380038000
0380038000
0380038000
0380038000
0380038000
0380038000
0380038000
0380038000
0380038000
0380038000
0380038000
0380038000
03ffff8000
0380038000
0380038000
0380038000
0380038000
0380038000
0380038000
0380038000
0380038000
0380038000
0380038000
0380038000
0380038000
0380038000
1ff01ff000
0000000000
0000000000
0000000000
0000000000
ENDCHAR
STARTCHAR 2449
ENCODING 9289
SWIDTH 1020 0
DWIDTH 34 0
BBX 34 35 0 -4
BITMAP
0000000000
0000000000
0000000000
003ff80000
0003800000
0003800000
0003800000
0003800000
0003800000
0003800000
0003800000
0003800000
0003800000
0003800000
0003800000
0003800000
0003800000
0003800000
0003800000
0003800000
0003800000
0003800000
0003800000
0003800000
0003800000
0003800000
0003800000
0003800000
0003800000
0003800000
003ff80000
0000000000
0000000000
0000000000
0000000000
ENDCHAR
STARTCHAR 244a
ENCODING 9290
SWIDTH 1020 0
DWIDTH 34 0
BBX 34 35 0 -4
BITMAP
0000000000
0000000000
0000000000
0000ffc000
00000e0000
00000e0000
00000e0000
00000e0000
00000e0000
00000e0000
00000e0000
00000e0000
00000e0000
00000e0000
00000e0000
00000e0000
00000e0000
00000e0000
00000e0000
00000e0000
00000e0000
00000e0000
01c00e0000
03e00e0000
03e00e0000
03e00e0000
01c01c0000
01c01c0000
00e0380000
0070700000
001fc00000
0000000000
0000000000
0000000000
0000000000
ENDCHAR
STARTCHAR 244b
ENCODING 9291
SWIDTH 1020 0
DWIDTH 34 0
BBX 34 35 0 -4
BITMAP
0000000000
0000000000
0000000000
1ff03fe000
0380030000
0380060000
03800c0000
0380180000
0380300000
0380600000
0380c00000
0380800000
0381800000
0383000000
0387800000
038f800000
0399c00000
03b1e00000
03e0e00000
03c0700000
0380700000
0380380000
03803c0000
03801c0000
03800e0000
03800e0000
0380070000
0380078000
0380038000
038001c000
1ff01ff800
0000000000
0000000000
0000000000
0000000000
ENDCHAR
STARTCHAR 244c
ENCODING 9292
SWIDTH 1020 0
DWIDTH 34 0
BBX 34 35 0 -4
BITMAP
0000000000
0000000000
0000000000
07fc000000
00e0000000
00e0000000
00e0000000
00e0000000
00e0000000
00e0000000
00e0000000
00e0000000
00e0000000
00e0000000
00e0000000
00e0000000
00e0000000
00e0000000
00e0000000
00e0000000
00e0000000
00e0000000
00e0000000
00e0000000
00e0002000
00e0002000
00e0006000
00e000e000
00e000e000
00e001e000
07ffffc000
0000000000
0000000000
0000000000
0000000000
ENDCHAR
STARTCHAR 244d
ENCODING 9293
SWIDTH 1020 0
DWIDTH 34 0
BBX 34 35 0 -4
BITMAP
0000000000
0000000000
0000000000
3e00007c00
0e00007000
0f0000f000
0f0000f000
0b8001f000
0b80017000
09c0037000
09c0027000
08e0067000
08e0047000
08700c7000
0870087000
0838187000
0838107000
081c307000
081c207000
080e607000
080e407000
0807c07000
0807807000
0803807000
0803007000
0801007000
0800007000
0800007000
0800007000
0800007000
7f0003fe00
0000000000
0000000000
0000000000
0000000000
ENDCHAR
STARTCHAR 244e
ENCODING 9294
SWIDTH 1020 0
DWIDTH 34 0
BBX 34 35 0 -4
BITMAP
0000000000
0000000000
0000000000
0fc003f800
01e0004000
01e0004000
0170004000
0178004000
0138004000
011c004000
011e004000
010e004000
0107004000
0107804000
0103804000
0101c04000
0101c04000
0100e04000
0100f04000
0100704000
0100384000
01003c4000
01001c4000
01000e4000
01000f4000
0100074000
010003c000
010003c000
010001c000
010000c000
0fe0004000
0000000000
0000000000
0000000000
0000000000
ENDCHAR
STARTCHAR 244f
ENCODING 9295
SWIDTH 1020 0
DWIDTH 34 0
BBX 34 35 0 -4
BITMAP
0000000000
0000000000
0000000000
000ff00000
00381c0000
00e0070000
01c0038000
038001c000
038001c000
070000e000
070000e000
070000e000
0e00007000
0e00007000
0e00007000
0e00007000
0e00007000
0e00007000
0e00007000
0e00007000
0e00007000
0e00007000
070000e000
070000e000
070000e000
038001c000
038001c000
01c0038000
00e0070000
00381c0000
000ff00000
0000000000
0000000000
0000000000
0000000000
ENDCHAR
STARTCHAR 2450
ENCODING 9296
SWIDTH 1020 0
DWIDTH 34 0
BBX 34 35 0 -4
BITMAP
0000000000
0000000000
0000000000
07fff80000
00e00e0000
00e0038000
00e001c000
00e001c000
00e000e000
00e000e000
00e000e000
00e000e000
00e000e000
00e001c000
00e001c000
00e0038000
00e00e0000
00fff80000
00e0000000
00e0000000
00e0000000
00e0000000
00e0000000
00e0000000
00e0000000
00e0000000
00e0000000
00e0000000
00e0000000
00e0000000
07fc000000
0000000000
0000000000
0000000000
0000000000
ENDCHAR
STARTCHAR 2451
ENCODING 9297
SWIDTH 1020 0
DWIDTH 34 0
BBX 34 35 0 -4
BITMAP
0000000000
0000000000
0000000000
000fe00000
0038380000
00e00e0000
01c0070000
0380038000
0380038000
070001c000
070001c000
070001c000
0e0000e000
0e0000e000
0e0000e000
0e0000e000
0e0000e000
0e0000e000
0e0000e000
0e0000e000
0e0000e000
0e0000e000
070001c000
0703c1c000
070ff1c000
038c3b8000
03981f8000
01d80f0400
00f00e0c00
00383f1800
000fe3f000
000000e000
0000000000
0000000000
0000000000
ENDCHAR
STARTCHAR 2452
ENCODING 9298
SWIDTH 1020 0
DWIDTH 34 0
BBX 34 35 0 -4
BITMAP
0000000000
0000000000
0000000000
07fff00000
00e01c0000
00e0070000
00e0038000
00e0038000
00e001c000
00e001c000
00e001c000
00e001c000
00e0038000
00e0038000
00e0070000
00e01c0000
00fff00000
00e0e00000
00e0f00000
00e0700000
00e0380000
00e0380000
00e01c0000
00e01e0000
00e00e0000
00e0070000
00e0070000
00e0038000
00e003c000
00e001c000
07fc0ff800
0000000000
0000000000
0000000000
0000000000
ENDCHAR
STARTCHAR 2453
ENCODING 9299
SWIDTH 1020 0
DWIDTH 34 0
BBX 34 35 0 -4
BITMAP
0000000000
0000000000
0000000000
0007f04000
001c1cc000
007007c000
00e003c000
00e001c000
01c000c000
01c0004000
01c0000000
01c0000000
00e0000000
00f8000000
007e000000
001fc00000
0007f00000
0001fc0000
00003f0000
00000f8000
000003c000
000001c000
010000e000
010000e000
018000e000
01c000e000
01e001c000
01f001c000
01f8038000
018e0e0000
0103f80000
0000000000
0000000000
0000000000
0000000000
ENDCHAR
STARTCHAR 2454
ENCODING 9300
SWIDTH 1020 0
DWIDTH 34 0
BBX 34 35 0 -4
BITMAP
0000000000
0000000000
0000000000
07ffffc000
0f0381e000
0e0380e000
0e0380e000
0c03806000
0803802000
0803802000
0003800000
0003800000
0003800000
0003800000
0003800000
0003800000
0003800000
0003800000
0003800000
0003800000
0003800000
0003800000
0003800000
0003800000
0003800000
0003800000
0003800000
0003800000
0003800000
0003800000
001ff00000
0000000000
0000000000
0000000000
0000000000
ENDCHAR
STARTCHAR 2455
ENCODING 9301
SWIDTH 1020 0
DWIDTH 34 0
BBX 34 35 0 -4
BITMAP
0000000000
0000000000
0000000000
1ff003f800
0380004000
0380004000
0380004000
0380004000
0380004000
0380004000
0380004000
0380004000
0380004000
0380004000
0380004000
0380004000
0380004000
0380004000
0380004000
0380004000
0380004000
0380004000
0380004000
038000c000
01c0008000
01c0018000
00e0010000
00e0030000
0070060000
001c1c0000
0007f00000
0000000000
0000000000
0000000000
0000000000
ENDCHAR
STARTCHAR 2456
ENCODING 9302
SWIDTH 1020 0
DWIDTH 34 0
BBX 34 35 0 -4
BITMAP
0000000000
0000000000
0000000000
1ff007f800
038000c000
0380008000
01c0008000
01c0018000
01c0010000
00e0010000
00e0030000
00e0020000
0070020000
0070060000
0070040000
00380c0000
0038080000
0038080000
001c180000
001c100000
001c300000
000e200000
000e200000
000e600000
0007400000
0007400000
0007c00000
0003800000
0003800000
0003000000
0001000000
0000000000
0000000000
0000000000
0000000000
ENDCHAR
STARTCHAR 2457
ENCODING 9303
SWIDTH 1020 0
DWIDTH 34 0
BBX 34 35 0 -4
BITMAP
0000000000
0000000000
0000000000
7f8ff83f00
1c01c00400
1c01e00400
1c01e00c00
1c01e00800
0e03700800
0e02700800
0e02701800
0e02701000
0706381000
0704381000
0704383000
0704382000
038c1c2000
03881c2000
03881c6000
03881c4000
01d80e4000
01d00e4000
01d00ec000
01d00e8000
01f0078000
00e0078000
00e0078000
00e0078000
00e0030000
0060030000
0040010000
0000000000
0000000000
0000000000
0000000000
ENDCHAR
STARTCHAR 2458
ENCODING 9304
SWIDTH 1020 0
DWIDTH 34 0
BBX 34 35 0 -4
BITMAP
0000000000
0000000000
0000000000
0ff003f800
0380006000
03c000c000
01e0018000
00e0010000
0070030000
0078060000
003c0c0000
001c080000
000e180000
000f300000
0007e00000
0003c00000
0001c00000
0001e00000
0003e00000
0002700000
0006780000
000c380000
00081c0000
00181e0000
00300f0000
0060070000
0040038000
00c003c000
018001e000
030000e000
0fe007f800
0000000000
0000000000
0000000000
0000000000
ENDCHAR
STARTCHAR 2459
ENCODING 9305
SWIDTH 1020 0
DWIDTH 34 0
BBX 34 35 0 -4
BITMAP
0000000000
0000000000
0000000000
1ff803f800
0380006000
01c000c000
01e0008000
00e0018000
0070030000
0078020000
0038060000
001c0c0000
001e180000
000e100000
0007300000
0007e00000
0003c00000
0001c00000
0001c00000
0001c00000
0001c00000
0001c00000
0001c00000
0001c00000
0001c00000
0001c00000
0001c00000
0001c00000
0001c00000
0001c00000
000ff80000
0000000000
0000000000
0000000000
0000000000
ENDCHAR
STARTCHAR 245a
ENCODING 9306
SWIDTH 1020 0
DWIDTH 34 0
BBX 34 35 0 -4
BITMAP
0000000000
0000000000
0000000000
01ffffe000
03c001e000
038003c000
0300038000
0300070000
02000f0000
02001e0000
00001c0000
0000380000
0000780000
0000f00000
0000e00000
0001c00000
0003c00000
0007800000
0007000000
000e000000
001e000000
003c000000
0038000000
0070000000
00f0001000
01e0001000
01c0003000
0380003000
0780007000
0f0000f000
0fffffe000
0000000000
0000000000
0000000000
0000000000
ENDCHAR
STARTCHAR 245b
ENCODING 9307
SWIDTH 1020 0
DWIDTH 34 0
BBX 34 35 0 -4
BITMAP
0000000000
0000000000
0000000000
0000000000
0000000000
0000000000
0000000000
0000000000
0000000000
0000000000
0000000000
0000000000
0000000000
000fc00000
0038700000
0060380000
00f0180000
00f01c0000
00601c0000
00001c0000
0003fc0000
001c1c0000
00701c0000
00e01c0000
00c01c0000
01c01c0000
01c01c0000
01c01c0000
00c03c6000
00e0eec000
003f878000
0000000000
0000000000
0000000000
0000000000
ENDCHAR
STARTCHAR 245c
ENCODING 9308
SWIDTH 1020 0
DWIDTH 34 0
BBX 34 35 0 -4
BITMAP
0000000000
0000000000
0000000000
07e0000000
00e0000000
00e0000000
00e0000000
00e0000000
00e0000000
00e0000000
00e0000000
00e0000000
00e0000000
00e3f00000
00ee1c0000
00f8060000
00f0070000
00f0038000
00e0038000
00e001c000
00e001c000
00e001c000
00e001c000
00e001c000
00e001c000
00e0038000
00e0038000
00f0070000
00f8060000
00ee1c0000
07e3f00000
0000000000
0000000000
0000000000
0000000000
ENDCHAR
STARTCHAR 245d
ENCODING 9309
SWIDTH 1020 0
DWIDTH 34 0
BBX 34 35 0 -4
BITMAP
0000000000
0000000000
0000000000
0000000000
0000000000
0000000000
0000000000
0000000000
0000000000
0000000000
0000000000
0000000000
0000000000
0007e00000
001c380000
00300c0000
0070060000
00e00f0000
00e00f0000
01c0060000
01c0000000
01c0000000
01c0000000
01c0000000
01c0000000
00e0010000
00e0030000
0070060000
00300c0000
001c380000
0007e00000
0000000000
0000000000
0000000000
0000000000
ENDCHAR
STARTCHAR 245e
ENCODING 9310
SWIDTH 1020 0
DWIDTH 34 0
BBX 34 35 0 -4
BITMAP
0000000000
0000000000
0000000000
00001f8000
0000038000
0000038000
0000038000
0000038000
0000038000
0000038000
0000038000
0000038000
0000038000
0007e38000
001c3b8000
00700f8000
0060078000
00e0038000
00e0038000
01c0038000
01c0038000
01c0038000
01c0038000
01c0038000
01c0038000
00e0038000
00e0038000
0060078000
00700f8000
001c398000
0007e08000
0000000000
0000000000
0000000000
0000000000
ENDCHAR
STARTCHAR 245f
ENCODING 9311
SWIDTH 1020 0
DWIDTH 34 0
BBX 34 35 0 -4
BITMAP
0000000000
0000000000
0000000000
0000000000
0000000000
0000000000
0000000000
0000000000
0000000000
0000000000
0000000000
0000000000
0000000000
0003c00000
000e700000
00381c0000
00700e0000
00e0070000
00e0070000
01c0038000
01c0038000
01ffff8000
01c0000000
01c0000000
01c0000000
00e0008000
00e0018000
0070030000
00380e0000
000e380000
0003e00000
0000000000
0000000000
0000000000
0000000000
ENDCHAR
STARTCHAR 2460
ENCODING 9312
SWIDTH 1020 0
DWIDTH 34 0
BBX 34 35 0 -4
BITMAP
0000000000
0000000000
0000000000
0003e00000
0007380000
00060c0000
000e1e0000
000e1e0000
000e0c0000
000e000000
000e000000
000e000000
000e000000
00fff00000
000e000000
000e000000
000e000000
000e000000
000e000000
000e000000
000e000000
000e000000
000e000000
000e000000
000e000000
000e000000
000e000000
000e000000
000e000000
000e000000
007fc00000
0000000000
0000000000
0000000000
0000000000
ENDCHAR
STARTCHAR 2461
ENCODING 9313
SWIDTH 1020 0
DWIDTH 34 0
BBX 34 35 0 -4
BITMAP
0000000000
0000000000
0000000000
0000000000
0000000000
0000000000
0000000000
0000000000
0000000000
0000000000
0000000000
0000000000
0000000000
0007830000
001cef8000
00703b0000
00e01c0000
00e01c0000
00e01c0000
0070380000
001cf00000
000f800000
0038000000
0070000000
007ff80000
003ffe0000
00e00f0000
01c0038000
01c0038000
01c0038000
00e0070000
00381c0000
000ff00000
0000000000
0000000000
ENDCHAR
STARTCHAR 2462
ENCODING 9314
SWIDTH 1020 0
DWIDTH 34 0
BBX 34 35 0 -4
BITMAP
0000000000
0000000000
0000000000
0000000000
07e0000000
00e0000000
00e0000000
00e0000000
00e0000000
00e0000000
00e0000000
00e0000000
00e0000000
00e3f00000
00ee1c0000
00f80e0000
00f0070000
00f0070000
00e0038000
00e0038000
00e0038000
00e0038000
00e0038000
00e0038000
00e0038000
00e0038000
00e0038000
00e0038000
00e0038000
00e0038000
07fc1ff000
0000000000
0000000000
0000000000
0000000000
ENDCHAR
STARTCHAR 2463
ENCODING 9315
SWIDTH 1020 0
DWIDTH 34 0
BBX 34 35 0 -4
BITMAP
0000000000
0000000000
0000000000
0003800000
0007c00000
0007c00000
0007c00000
0003800000
0000000000
0000000000
0000000000
0000000000
0000000000
001f800000
0003800000
0003800000
0003800000
0003800000
0003800000
0003800000
0003800000
0003800000
0003800000
0003800000
0003800000
0003800000
0003800000
0003800000
0003800000
0003800000
001ff00000
0000000000
0000000000
0000000000
0000000000
ENDCHAR
STARTCHAR 2464
ENCODING 9316
SWIDTH 1020 0
DWIDTH 34 0
BBX 34 35 0 -4
BITMAP
0000000000
0000000000
0000000000
0000e00000
0001f00000
0001f00000
0001f00000
0000e00000
0000000000
0000000000
0000000000
0000000000
0000000000
0003f00000
0000700000
0000700000
0000700000
0000700000
0000700000
0000700000
0000700000
0000700000
0000700000
0000700000
0000700000
0000700000
0070700000
00f8700000
00f8700000
00f0600000
0060e00000
0039c00000
000f000000
0000000000
0000000000
ENDCHAR
STARTCHAR 2465
ENCODING 9317
SWIDTH 1020 0
DWIDTH 34 0
BBX 34 35 0 -4
BITMAP
0000000000
0000000000
0000000000
07e0000000
00e0000000
00e0000000
00e0000000
00e0000000
00e0000000
00e0000000
00e0000000
00e0000000
00e0000000
00e07f8000
00e00c0000
00e0180000
00e0300000
00e0600000
00e0c00000
00e1800000
00e3c00000
00e7e00000
00ecf00000
00f8700000
00f0380000
00e03c0000
00e01c0000
00e00e0000
00e00f0000
00e0078000
07fc1ff000
0000000000
0000000000
0000000000
0000000000
ENDCHAR
STARTCHAR 2466
ENCODING 9318
SWIDTH 1020 0
DWIDTH 34 0
BBX 34 35 0 -4
BITMAP
0000000000
0000000000
0000000000
001f800000
0003800000
0003800000
0003800000
0003800000
0003800000
0003800000
0003800000
0003800000
0003800000
0003800000
0003800000
0003800000
0003800000
0003800000
0003800000
0003800000
0003800000
0003800000
0003800000
0003800000
0003800000
0003800000
0003800000
0003800000
0003800000
0003800000
001ff00000
0000000000
0000000000
0000000000
0000000000
ENDCHAR
STARTCHAR 2467
ENCODING 9319
SWIDTH 1020 0
DWIDTH 34 0
BBX 34 35 0 -4
BITMAP
0000000000
0000000000
0000000000
0000000000
0000000000
0000000000
0000000000
0000000000
0000000000
0000000000
0000000000
0000000000
0000000000
7e7c1f8000
0ec630e000
0f83607000
0f03c07000
0f01c03800
0e01c03800
0e01c03800
0e01c03800
0e01c03800
0e01c03800
0e01c03800
0e01c03800
0e01c03800
0e01c03800
0e01c03800
0e01c03800
0e01c03800
7fc7f0fe00
0000000000
0000000000
0000000000
0000000000
ENDCHAR
STARTCHAR 2468
ENCODING 9320
SWIDTH 1020 0
DWIDTH 34 0
BBX 34 35 0 -4
BITMAP
0000000000
0000000000
0000000000
0000000000
0000000000
0000000000
0000000000
0000000000
0000000000
0000000000
0000000000
0000000000
0000000000
07e3f00000
00ee1c0000
00f80e0000
00f0070000
00f0070000
00e0038000
00e0038000
00e0038000
00e0038000
00e0038000
00e0038000
00e0038000
00e0038000
00e0038000
00e0038000
00e0038000
00e0038000
07fc1ff000
0000000000
0000000000
0000000000
0000000000
ENDCHAR
STARTCHAR 2469
ENCODING 9321
SWIDTH 1020 0
DWIDTH 34 0
BBX 34 35 0 -4
BITMAP
0000000000
0000000000
0000000000
0000000000
0000000000
0000000000
0000000000
0000000000
0000000000
0000000000
0000000000
0000000000
0000000000
0007e00000
001c380000
00300c0000
00700e0000
00e0070000
00e0070000
01c0038000
01c0038000
01c0038000
01c0038000
01c0038000
01c0038000
00e0070000
00e0070000
00700e0000
00300c0000
001c380000
0007e00000
0000000000
0000000000
0000000000
0000000000
ENDCHAR
STARTCHAR 246a
ENCODING 9322
SWIDTH 1020 0
DWIDTH 34 0
BBX 34 35 0 -4
BITMAP
0000000000
0000000000
0000000000
0000000000
0000000000
0000000000
0000000000
0000000000
0000000000
0000000000
0000000000
0000000000
0000000000
01f8f80000
003b8e0000
003e070000
003c038000
003c038000
003801c000
003801c000
003801c000
003801c000
003801c000
0038038000
003c038000
003e070000
003b8e0000
0038f80000
0038000000
0038000000
0038000000
0038000000
01ff000000
0000000000
0000000000
ENDCHAR
STARTCHAR 246b
ENCODING 9323
SWIDTH 1020 0
DWIDTH 34 0
BBX 34 35 0 -4
BITMAP
0000000000
0000000000
0000000000
0000000000
0000000000
0000000000
0000000000
0000000000
0000000000
0000000000
0000000000
0000000000
0000000000
000f820000
0038e60000
00703e0000
00e01e0000
00e01e0000
01c00e0000
01c00e0000
01c00e0000
01c00e0000
01c00e0000
00e00e0000
00e01e0000
00703e0000
0038ee0000
000f8e0000
00000e0000
00000e0000
00000e0000
00000e0000
00007fc000
0000000000
0000000000
ENDCHAR
STARTCHAR 246c
ENCODING 9324
SWIDTH 1020 0
DWIDTH 34 0
BBX 34 35 0 -4
BITMAP
0000000000
0000000000
0000000000
0000000000
0000000000
0000000000
0000000000
0000000000
0000000000
0000000000
0000000000
0000000000
0000000000
01f8f00000
003b9c0000
003e0e0000
003c1e0000
003c1e0000
00380c0000
0038000000
0038000000
0038000000
0038000000
0038000000
0038000000
0038000000
0038000000
0038000000
0038000000
0038000000
01ff000000
0000000000
0000000000
0000000000
0000000000
ENDCHAR
STARTCHAR 246d
ENCODING 9325
SWIDTH 1020 0
DWIDTH 34 0
BBX 34 35 0 -4
BITMAP
0000000000
0000000000
0000000000
0000000000
0000000000
0000000000
0000000000
0000000000
0000000000
0000000000
0000000000
0000000000
0000000000
000fc20000
0038720000
00701e0000
00e00e0000
00e0060000
00f0000000
007e000000
003fc00000
000ff00000
0001fc0000
00003e0000
00000e0000
0080070000
00c0070000
00e0070000
00f00e0000
00dc1c0000
0087f00000
0000000000
0000000000
0000000000
0000000000
ENDCHAR
STARTCHAR 246e
ENCODING 9326
SWIDTH 1020 0
DWIDTH 34 0
BBX 34 35 0 -4
BITMAP
0000000000
0000000000
0000000000
0000000000
0000000000
0000000000
0000000000
0002000000
0006000000
000e000000
000e000000
000e000000
000e000000
00fff80000
000e000000
000e000000
000e000000
000e000000
000e000000
000e000000
000e000000
000e000000
000e000000
000e000000
000e000000
000e000000
000e020000
000e020000
0007060000
00039c0000
0000f00000
0000000000
0000000000
0000000000
0000000000
ENDCHAR
STARTCHAR 246f
ENCODING 9327
SWIDTH 1020 0
DWIDTH 34 0
BBX 34 35 0 -4
BITMAP
0000000000
0000000000
0000000000
0000000000
0000000000
0000000000
0000000000
0000000000
0000000000
0000000000
0000000000
0000000000
0000000000
07e01f8000
00e0038000
00e0038000
00e0038000
00e0038000
00e0038000
00e0038000
00e0038000
00e0038000
00e0038000
00e0038000
00e0038000
00e0038000
00e0078000
0070078000
00700f8000
00383b8000
000fe3f000
0000000000
0000000000
0000000000
0000000000
ENDCHAR
STARTCHAR 2470
ENCODING 9328
SWIDTH 1020 0
DWIDTH 34 0
BBX 34 35 0 -4
BITMAP
0000000000
0000000000
0000000000
0000000000
0000000000
0000000000
0000000000
0000000000
0000000000
0000000000
0000000000
0000000000
0000000000
07fc0fe000
00e0010000
00e0010000
0070030000
0070020000
0038060000
0038040000
001c0c0000
001c080000
000e180000
000e100000
0007300000
0007200000
0003e00000
0003c00000
0001c00000
0001800000
0000800000
0000000000
0000000000
0000000000
0000000000
ENDCHAR
STARTCHAR 2471
ENCODING 9329
SWIDTH 1020 0
DWIDTH 34 0
BBX 34 35 0 -4
BITMAP
0000000000
0000000000
0000000000
0000000000
0000000000
0000000000
0000000000
0000000000
0000000000
0000000000
0000000000
0000000000
0000000000
3f8fe1f800
0e03802000
0e03c02000
0e03c06000
0707c04000
0704e04000
0704e0c000
038c708000
0388708000
0388718000
01d8390000
01d0390000
01d01f0000
00f01e0000
00e01e0000
00e00e0000
00600c0000
0040040000
0000000000
0000000000
0000000000
0000000000
ENDCHAR
STARTCHAR 2472
ENCODING 9330
SWIDTH 1020 0
DWIDTH 34 0
BBX 34 35 0 -4
BITMAP
0000000000
0000000000
0000000000
0000000000
0000000000
0000000000
0000000000
0000000000
0000000000
0000000000
0000000000
0000000000
0000000000
03fc1fe000
0060078000
00300f0000
00181e0000
000c1c0000
0004380000
0006700000
0003f00000
0001e00000
0003c00000
0007e00000
000f300000
000e100000
001c180000
00380c0000
0078060000
00f0030000
03fc1fe000
0000000000
0000000000
0000000000
0000000000
ENDCHAR
STARTCHAR 2473
ENCODING 9331
SWIDTH 1020 0
DWIDTH 34 0
BBX 34 35 0 -4
BITMAP
0000000000
0000000000
0000000000
0000000000
0000000000
0000000000
0000000000
0000000000
0000000000
0000000000
0000000000
0000000000
0000000000
01fe07e000
0078018000
0038010000
0038030000
001c020000
001c060000
000e040000
000e0c0000
0007080000
0007180000
0003900000
0003b00000
0001e00000
0001e00000
0030c00000
0078c00000
0078800000
0071800000
0033000000
001e000000
0000000000
0000000000
ENDCHAR
STARTCHAR 2474
ENCODING 9332
SWIDTH 1020 0
DWIDTH 34 0
BBX 34 35 0 -4
BITMAP
0000000000
0000000000
0000000000
0000000000
0000000000
0000000000
0000000000
0000000000
0000000000
0000000000
0000000000
0000000000
0000000000
007fff8000
0078078000
00700f0000
00601e0000
00403c0000
0040380000
0000700000
0000f00000
0001e00000
0003c00000
0007800000
0007004000
000e004000
001e00c000
003c00c000
007801c000
00f003c000
00ffffc000
0000000000
0000000000
0000000000
0000000000
ENDCHAR
STARTCHAR 2475
ENCODING 9333
SWIDTH 1020 0
DWIDTH 34 0
BBX 34 35 0 -4
BITMAP
0000000000
0000000000
0000000000
0000000000
0000000000
0000800000
0001c00000
0001c00000
0001e00000
0003e00000
0002700000
0006700000
0004700000
0004380000
000c380000
00081c0000
00181c0000
00101c0000
00100e0000
00300e0000
003fff0000
0060070000
0040070000
0040038000
00c0038000
008001c000
008001c000
07f01ff000
0000000000
0000000000
0000000000
0000000000
0000000000
0000000000
0000000000
ENDCHAR
STARTCHAR 2476
ENCODING 9334
SWIDTH 1020 0
DWIDTH 34 0
BBX 34 35 0 -4
BITMAP
0000000000
0000000000
0000000000
0000000000
0000000000
0000000000
01ffe00000
0070380000
00700e0000
0070070000
0070070000
0070070000
0070070000
00700e0000
00701c0000
0070700000
007fe00000
0070380000
00700e0000
0070070000
0070038000
0070038000
0070038000
0070038000
0070070000
00700e0000
0070380000
01ffe00000
0000000000
0000000000
0000000000
0000000000
0000000000
0000000000
0000000000
ENDCHAR
STARTCHAR 2477
ENCODING 9335
SWIDTH 1020 0
DWIDTH 34 0
BBX 34 35 0 -4
BITMAP
0000000000
0000000000
0000000000
0000000000
0000000000
0000000000
01ffff8000
00700f8000
0070038000
007001c000
007000c000
0070004000
0070004000
0070000000
0070000000
0070000000
0070000000
0070000000
0070000000
0070000000
0070000000
0070000000
0070000000
0070000000
0070000000
0070000000
0070000000
01fc000000
0000000000
0000000000
0000000000
0000000000
0000000000
0000000000
0000000000
ENDCHAR
STARTCHAR 2478
ENCODING 9336
SWIDTH 1020 0
DWIDTH 34 0
BBX 34 35 0 -4
BITMAP
0000000000
0000000000
0000000000
0000000000
0000000000
0000800000
0001c00000
0001c00000
0003e00000
0003e00000
0002e00000
0006700000
0004700000
000c380000
0008380000
00081c0000
00181c0000
00101c0000
00300e0000
00200e0000
0020070000
0060070000
0040038000
00c0038000
008001c000
01ffffc000
01ffffc000
03ffffe000
0000000000
0000000000
0000000000
0000000000
0000000000
0000000000
0000000000
ENDCHAR
STARTCHAR 2479
ENCODING 9337
SWIDTH 1020 0
DWIDTH 34 0
BBX 34 35 0 -4
BITMAP
0000000000
0000000000
0000000000
0000000000
0000000000
0000000000
03ffff0000
00e00f0000
00e0030000
00e0018000
00e0008000
00e0008000
00e0080000
00e0080000
00e0080000
00e0180000
00fff80000
00e0180000
00e0080000
00e0080000
00e0080000
00e0004000
00e0004000
00e000c000
00e001c000
00e0038000
00e00f8000
03ffff8000
0000000000
0000000000
0000000000
0000000000
0000000000
0000000000
0000000000
ENDCHAR
STARTCHAR 247a
ENCODING 9338
SWIDTH 1020 0
DWIDTH 34 0
BBX 34 35 0 -4
BITMAP
0000000000
0000000000
0000000000
0000000000
0000000000
0000000000
01ffff8000
01e0070000
01800e0000
03001c0000
02001c0000
0200380000
0000700000
0000e00000
0000e00000
0001c00000
0003800000
0007000000
0007000000
000e000000
001c000000
0038002000
0038002000
0070006000
00e000e000
01c001c000
01c007c000
03ffffc000
0000000000
0000000000
0000000000
0000000000
0000000000
0000000000
0000000000
ENDCHAR
STARTCHAR 247b
ENCODING 9339
SWIDTH 1020 0
DWIDTH 34 0
BBX 34 35 0 -4
BITMAP
0000000000
0000000000
0000000000
0000000000
0000000000
0000000000
03f81fc000
00e0070000
00e0070000
00e0070000
00e0070000
00e0070000
00e0070000
00e0070000
00e0070000
00e0070000
00ffff0000
00e0070000
00e0070000
00e0070000
00e0070000
00e0070000
00e0070000
00e0070000
00e0070000
00e0070000
00e0070000
03f81fc000
0000000000
0000000000
0000000000
0000000000
0000000000
0000000000
0000000000
ENDCHAR
STARTCHAR 247c
ENCODING 9340
SWIDTH 1020 0
DWIDTH 34 0
BBX 34 35 0 -4
BITMAP
0000000000
0000000000
0000000000
0000000000
0000000000
0000000000
000ff00000
00381c0000
00700e0000
00e0070000
01c0038000
01c0038000
038001c000
038811c000
038811c000
070ff0e000
070ff0e000
070ff0e000
070810e000
038811c000
038001c000
038001c000
01c0038000
01c0038000
00e0070000
00700e0000
00381c0000
000ff00000
0000000000
0000000000
0000000000
0000000000
0000000000
0000000000
0000000000
ENDCHAR
STARTCHAR 247d
ENCODING 9341
SWIDTH 1020 0
DWIDTH 34 0
BBX 34 35 0 -4
BITMAP
0000000000
0000000000
0000000000
0000000000
0000000000
0000000000
001ff00000
0003800000
0003800000
0003800000
0003800000
0003800000
0003800000
0003800000
0003800000
0003800000
0003800000
0003800000
0003800000
0003800000
0003800000
0003800000
0003800000
0003800000
0003800000
0003800000
0003800000
001ff00000
0000000000
0000000000
0000000000
0000000000
0000000000
0000000000
0000000000
ENDCHAR
STARTCHAR 247e
ENCODING 9342
SWIDTH 1020 0
DWIDTH 34 0
BBX 34 35 0 -4
BITMAP
0000000000
0000000000
0000000000
0000000000
0000000000
0000000000
03f80fe000
00e0030000
00e0060000
00e00c0000
00e0180000
00e0300000
00e0600000
00e0c00000
00e1800000
00e3c00000
00e7c00000
00ece00000
00f8700000
00f0700000
00e0380000
00e01c0000
00e01c0000
00e00e0000
00e0070000
00e0070000
00e0038000
03f81ff000
0000000000
0000000000
0000000000
0000000000
0000000000
0000000000
0000000000
ENDCHAR
STARTCHAR 2521
ENCODING 9505
SWIDTH 1020 0
DWIDTH 34 0
BBX 34 35 0 -4
BITMAP
0000000000
0000000000
0000000000
0000000000
0000000000
0000800000
0001c00000
0001c00000
0003e00000
0003e00000
0002e00000
0006700000
0004700000
000c700000
0008380000
0008380000
0018380000
00101c0000
00301c0000
00200e0000
00200e0000
00600e0000
0040070000
0040070000
00c0070000
0080038000
0080038000
07f01ff000
0000000000
0000000000
0000000000
0000000000
0000000000
0000000000
0000000000
ENDCHAR
STARTCHAR 2522
ENCODING 9506
SWIDTH 1020 0
DWIDTH 34 0
BBX 34 35 0 -4
BITMAP
0000000000
0000000000
0000000000
0000000000
0000000000
0000000000
0fc003f000
03c005c000
03c005c000
02e00dc000
02e009c000
02e009c000
027019c000
027011c000
027011c000
023831c000
023821c000
023821c000
023861c000
021c41c000
021c41c000
021cc1c000
020e81c000
020e81c000
020f81c000
020701c000
020701c000
0f8207f000
0000000000
0000000000
0000000000
0000000000
0000000000
0000000000
0000000000
ENDCHAR
STARTCHAR 2523
ENCODING 9507
SWIDTH 1020 0
DWIDTH 34 0
BBX 34 35 0 -4
BITMAP
0000000000
0000000000
0000000000
0000000000
0000000000
0000000000
01f00f8000
0078020000
0078020000
005c020000
005c020000
004e020000
004e020000
0047020000
0047020000
0043820000
0041c20000
0041c20000
0040e20000
0040e20000
0040720000
0040720000
00403a0000
00403a0000
00401e0000
00401e0000
00400e0000
01f0060000
0000020000
0000000000
0000000000
0000000000
0000000000
0000000000
0000000000
ENDCHAR
STARTCHAR 2524
ENCODING 9508
SWIDTH 1020 0
DWIDTH 34 0
BBX 34 35 0 -4
BITMAP
0000000000
0000000000
0000000000
0000000000
0000000000
0000000000
007fffc000
007fffc000
007fffc000
00e0038000
00c0018000
0080008000
0080008000
0020020000
0020020000
003ffe0000
007ffe0000
007ffc0000
0040040000
0040040000
0000000000
0100010000
0100010000
0180030000
0180070000
03fffe0000
03fffe0000
03fffe0000
0000000000
0000000000
0000000000
0000000000
0000000000
0000000000
0000000000
ENDCHAR
STARTCHAR 2525
ENCODING 9509
SWIDTH 1020 0
DWIDTH 34 0
BBX 34 35 0 -4
BITMAP
0000000000
0000000000
0000000000
0000000000
0000000000
0000000000
000ff00000
00381c0000
00700e0000
00e0070000
01c0038000
01c0038000
038001c000
038001c000
038001c000
070000e000
070000e000
070000e000
070000e000
038001c000
038001c000
038001c000
01c0038000
01c0038000
00e0070000
00700e0000
00381c0000
000ff00000
0000000000
0000000000
0000000000
0000000000
0000000000
0000000000
0000000000
ENDCHAR
STARTCHAR 2526
ENCODING 9510
SWIDTH 1020 0
DWIDTH 34 0
BBX 34 35 0 -4
BITMAP
0000000000
0000000000
0000000000
0000000000
0000000000
0000000000
03ffffc000
00e0070000
00e0070000
00e0070000
00e0070000
00e0070000
00e0070000
00e0070000
00e0070000
00e0070000
00e0070000
00e0070000
00e0070000
00e0070000
00e0070000
00e0070000
00e0070000
00e0070000
00e0070000
00e0070000
00e0070000
03f81fc000
0000000000
0000000000
0000000000
0000000000
0000000000
0000000000
0000000000
ENDCHAR
STARTCHAR 2527
ENCODING 9511
SWIDTH 1020 0
DWIDTH 34 0
BBX 34 35 0 -4
BITMAP
0000000000
0000000000
0000000000
0000000000
0000000000
0000000000
03ffe00000
00e03c0000
00e00e0000
00e0070000
00e0070000
00e0038000
00e0038000
00e0038000
00e0038000
00e0070000
00e0070000
00e00e0000
00e03c0000
00ffe00000
00e0000000
00e0000000
00e0000000
00e0000000
00e0000000
00e0000000
00e0000000
03f8000000
0000000000
0000000000
0000000000
0000000000
0000000000
0000000000
0000000000
ENDCHAR
STARTCHAR 2528
ENCODING 9512
SWIDTH 1020 0
DWIDTH 34 0
BBX 34 35 0 -4
BITMAP
0000000000
0000000000
0000000000
0000000000
0000000000
0000000000
03ffff8000
01c0078000
00e0018000
007000c000
0070004000
0038004000
001c000000
001c000000
000e000000
0007000000
0006000000
000c000000
0008000000
0018000000
0030002000
0020002000
0060006000
00c000e000
018001c000
01ffffc000
03ffff8000
07ffff8000
0000000000
0000000000
0000000000
0000000000
0000000000
0000000000
0000000000
ENDCHAR
STARTCHAR 2529
ENCODING 9513
SWIDTH 1020 0
DWIDTH 34 0
BBX 34 35 0 -4
BITMAP
0000000000
0000000000
0000000000
0000000000
0000000000
0000000000
03ffff8000
03c3878000
0303818000
060380c000
0403804000
0403804000
0003800000
0003800000
0003800000
0003800000
0003800000
0003800000
0003800000
0003800000
0003800000
0003800000
0003800000
0003800000
0003800000
0003800000
0003800000
001ff00000
0000000000
0000000000
0000000000
0000000000
0000000000
0000000000
0000000000
ENDCHAR
STARTCHAR 252a
ENCODING 9514
SWIDTH 1020 0
DWIDTH 34 0
BBX 34 35 0 -4
BITMAP
0000000000
0000000000
0000000000
0000000000
0000000000
0000000000
0018300000
007c7c0000
00fefe0000
018ee30000
0107c10000
0107c10000
0003800000
0003800000
0003800000
0003800000
0003800000
0003800000
0003800000
0003800000
0003800000
0003800000
0003800000
0003800000
0003800000
0003800000
0003800000
001ff00000
0000000000
0000000000
0000000000
0000000000
0000000000
0000000000
0000000000
ENDCHAR
STARTCHAR 252b
ENCODING 9515
SWIDTH 1020 0
DWIDTH 34 0
BBX 34 35 0 -4
BITMAP
0000000000
0000000000
0000000000
0000000000
0000000000
0000000000
001ff00000
0003800000
0003800000
0003800000
000fe00000
003bb80000
00e38e0000
01c3870000
01c3870000
0383838000
0383838000
0383838000
0383838000
01c3870000
01c3870000
00e38e0000
003bb80000
000fe00000
0003800000
0003800000
0003800000
001ff00000
0000000000
0000000000
0000000000
0000000000
0000000000
0000000000
0000000000
ENDCHAR
STARTCHAR 252c
ENCODING 9516
SWIDTH 1020 0
DWIDTH 34 0
BBX 34 35 0 -4
BITMAP
0000000000
0000000000
0000000000
0000000000
0000000000
0000000000
03fc0ff000
00f0018000
0070030000
0038060000
003c060000
001c0c0000
000e180000
0007180000
0007300000
0003e00000
0001c00000
0000e00000
0001f00000
0003380000
0006380000
000c1c0000
000c0e0000
00180f0000
0030070000
0060038000
00c003c000
07f81ff000
0000000000
0000000000
0000000000
0000000000
0000000000
0000000000
0000000000
ENDCHAR
STARTCHAR 252d
ENCODING 9517
SWIDTH 1020 0
DWIDTH 34 0
BBX 34 35 0 -4
BITMAP
0000000000
0000000000
0000000000
0000000000
0000000000
0000000000
030fe18000
078383c000
0cc3866000
08c3862000
08c3862000
00c3860000
00638c0000
00638c0000
00638c0000
00638c0000
00638c0000
00638c0000
0033980000
0033980000
001bb00000
000fe00000
0003800000
0003800000
0003800000
0003800000
0003800000
001ff00000
0000000000
0000000000
0000000000
0000000000
0000000000
0000000000
0000000000
ENDCHAR
STARTCHAR 252e
ENCODING 9518
SWIDTH 1020 0
DWIDTH 34 0
BBX 34 35 0 -4
BITMAP
0000000000
0000000000
0000000000
0000000000
0000000000
0000000000
0007e00000
001c380000
00381c0000
00700e0000
00e0070000
00e0070000
01c0038000
01c0038000
01c0038000
01c0038000
01c0038000
01c0038000
00e0070000
00e0070000
00700e0000
00381c0000
010e708000
0102408000
0102408000
01fe7f8000
01fe7f8000
01fe7f8000
0000000000
0000000000
0000000000
0000000000
0000000000
0000000000
0000000000
ENDCHAR
STARTCHAR 252f
ENCODING 9519
SWIDTH 1020 0
DWIDTH 34 0
BBX 34 35 0 -4
BITMAP
0000000000
0000000000
0000000000
0000000000
0000000000
0000000000
0000000000
0000000000
0000000000
0000000000
0000000000
0003e10000
000e338000
0018338000
0030130000
0030130000
0060160000
0060160000
00601c0000
00c0180000
00c0100000
00c0300000
00c0300000
00c0700000
0060f10000
0061b30000
00371e0000
001c0c0000
0000000000
0000000000
0000000000
0000000000
0000000000
0000000000
0000000000
ENDCHAR
STARTCHAR 2530
ENCODING 9520
SWIDTH 1020 0
DWIDTH 34 0
BBX 34 35 0 -4
BITMAP
0000000000
0000000000
0000000000
0000000000
0000000000
0000f80000
00038e0000
0006030000
0006018000
000c018000
000c018000
0018018000
0018030000
0019c60000
0033fc0000
0030180000
00300c0000
00600c0000
0060060000
0060060000
00c0060000
00c0060000
00c00c0000
01e00c0000
01a0180000
0310300000
030ce00000
0307800000
0700000000
0700000000
0200000000
0000000000
0000000000
0000000000
0000000000
ENDCHAR
STARTCHAR 2531
ENCODING 9521
SWIDTH 1020 0
DWIDTH 34 0
BBX 34 35 0 -4
BITMAP
0000000000
0000000000
0000000000
0000000000
0000000000
0000000000
0000000000
0000000000
0000000000
0000000000
0000000000
003c020000
007e030000
00c7070000
0183060000
01038c0000
01018c0000
0001980000
0000900000
0000b00000
0000a00000
0001e00000
0001c00000
0001800000
0003800000
0003000000
0003000000
0006000000
000e000000
000e000000
0004000000
0000000000
0000000000
0000000000
0000000000
ENDCHAR
STARTCHAR 2532
ENCODING 9522
SWIDTH 1020 0
DWIDTH 34 0
BBX 34 35 0 -4
BITMAP
0000000000
0000000000
0000000000
0000000000
0000000000
0007e00000
000c3c0000
000c0e0000
0006038000
000381c000
0001c0c000
0007e00000
000c300000
0018300000
0030180000
0060180000
0060180000
00c0180000
00c0180000
0180180000
0180300000
0180300000
0180300000
0180600000
00c0600000
00c0c00000
0063800000
003e000000
0000000000
0000000000
0000000000
0000000000
0000000000
0000000000
0000000000
ENDCHAR
STARTCHAR 2533
ENCODING 9523
SWIDTH 1020 0
DWIDTH 34 0
BBX 34 35 0 -4
BITMAP
0000000000
0000000000
0000000000
0000000000
0000000000
0000000000
0000000000
0000000000
0000000000
0000000000
0000000000
0001f00000
0007f80000
000c0e0000
0008020000
0008000000
000c000000
0007f00000
000ff00000
0018000000
0030000000
0060000000
0060040000
0060040000
00300c0000
0038380000
001ff00000
0007c00000
0000000000
0000000000
0000000000
0000000000
0000000000
0000000000
0000000000
ENDCHAR
STARTCHAR 2534
ENCODING 9524
SWIDTH 1020 0
DWIDTH 34 0
BBX 34 35 0 -4
BITMAP
0000000000
0000000000
0000000000
0000000000
0000000000
0007000000
000c000000
0018180000
00183c0000
000c780000
0006f00000
0003c00000
0007000000
000c000000
0018000000
0018000000
0030000000
0030000000
0060000000
0060000000
0070000000
003f800000
000fe00000
0000f00000
0000380000
0000180000
0000180000
0008180000
0018700000
000fe00000
0007800000
0000000000
0000000000
0000000000
0000000000
ENDCHAR
STARTCHAR 2535
ENCODING 9525
SWIDTH 1020 0
DWIDTH 34 0
BBX 34 35 0 -4
BITMAP
0000000000
0000000000
0000000000
0000000000
0000000000
0000000000
0000000000
0000000000
0000000000
0000000000
0000000000
00381e0000
007c730000
00ccc10000
0005818000
0007018000
0006018000
0006030000
000c030000
000c030000
000c060000
0018060000
0018060000
00300c0000
00300c0000
00700c0000
0030180000
0000180000
0000380000
0000700000
0000300000
0000000000
0000000000
0000000000
0000000000
ENDCHAR
STARTCHAR 2536
ENCODING 9526
SWIDTH 1020 0
DWIDTH 34 0
BBX 34 35 0 -4
BITMAP
0000000000
0000000000
0000000000
0000000000
0000000000
0001f80000
00030c0000
0006060000
000c060000
0018030000
0018030000
0030030000
0030030000
0030030000
0060030000
0060060000
007ffe0000
0060060000
00c0060000
00c00c0000
00c00c0000
00c00c0000
00c0180000
00c0180000
0060300000
0060600000
0030c00000
001f800000
0000000000
0000000000
0000000000
0000000000
0000000000
0000000000
0000000000
ENDCHAR
STARTCHAR 2537
ENCODING 9527
SWIDTH 1020 0
DWIDTH 34 0
BBX 34 35 0 -4
BITMAP
0000000000
0000000000
0000000000
0000000000
0000000000
0000000000
0000000000
0000000000
0000000000
0000000000
0000000000
0000600000
0000f00000
0001e00000
0001800000
0003800000
0003000000
0007000000
0006000000
000c000000
000c000000
0008000000
0008100000
0008100000
0008300000
000ce00000
000fc00000
0007000000
0000000000
0000000000
0000000000
0000000000
0000000000
0000000000
0000000000
ENDCHAR
STARTCHAR 2538
ENCODING 9528
SWIDTH 1020 0
DWIDTH 34 0
BBX 34 35 0 -4
BITMAP
0000000000
0000000000
0000000000
0000000000
0000000000
0000000000
0000000000
0000000000
0000000000
0000000000
0000000000
00300c0000
00783e0000
00087c0000
0008e00000
0008c00000
0009800000
000b000000
001e000000
001f000000
0019800000
0018c00000
0030c00000
0030e20000
0070620000
0070660000
00707c0000
0020380000
0000000000
0000000000
0000000000
0000000000
0000000000
0000000000
0000000000
ENDCHAR
STARTCHAR 2539
ENCODING 9529
SWIDTH 1020 0
DWIDTH 34 0
BBX 34 35 0 -4
BITMAP
0000000000
0000000000
0000000000
0000000000
0000000000
0007000000
000f800000
0003800000
0000c00000
0000c00000
0000400000
0000400000
0000400000
0000c00000
0001c00000
0003400000
0003400000
0006600000
0006200000
000c300000
000c300000
0018300000
0018180000
0030180000
0030180000
00601c0000
00e00f0000
0040060000
0000000000
0000000000
0000000000
0000000000
0000000000
0000000000
0000000000
ENDCHAR
STARTCHAR 253a
ENCODING 9530
SWIDTH 1020 0
DWIDTH 34 0
BBX 34 35 0 -4
BITMAP
0000000000
0000000000
0000000000
0000000000
0000000000
0000000000
0000000000
0000000000
0000000000
0000000000
0000000000
0008010000
001c038000
001c038000
0018030000
0018070000
0018060000
0018060000
00300c0000
00300c0000
00600c0000
00600c0000
00601c0000
00f0141000
00d0343000
0198363000
038863e000
0307c1c000
0700000000
0700000000
0200000000
0000000000
0000000000
0000000000
0000000000
ENDCHAR
STARTCHAR 253b
ENCODING 9531
SWIDTH 1020 0
DWIDTH 34 0
BBX 34 35 0 -4
BITMAP
0000000000
0000000000
0000000000
0000000000
0000000000
0000000000
0000000000
0000000000
0000000000
0000000000
0000000000
0030020000
0078020000
0038020000
0038060000
0018060000
0018060000
00180c0000
00180c0000
0018180000
0030380000
0030700000
0030e00000
0021c00000
0027800000
007e000000
0078000000
00e0000000
0000000000
0000000000
0000000000
0000000000
0000000000
0000000000
0000000000
ENDCHAR
STARTCHAR 253c
ENCODING 9532
SWIDTH 1020 0
DWIDTH 34 0
BBX 34 35 0 -4
BITMAP
0000000000
0000000000
0000000000
0000000000
0000e00000
0001f00000
0003000000
0003000000
00019e0000
0001ff0000
0007060000
000c000000
0008000000
000c000000
0007f80000
0003fc0000
000e180000
0018000000
0030000000
0060000000
0060000000
0070000000
0038000000
001e000000
0007800000
0001e00000
0000700000
0000300000
0018300000
001fe00000
000fc00000
0000000000
0000000000
0000000000
0000000000
ENDCHAR
STARTCHAR 253d
ENCODING 9533
SWIDTH 1020 0
DWIDTH 34 0
BBX 34 35 0 -4
BITMAP
0000000000
0000000000
0000000000
0000000000
0000000000
0000000000
0000000000
0000000000
0000000000
0000000000
0000000000
0001f00000
0007180000
000c0c0000
00180c0000
0018060000
0030060000
0030060000
0060060000
0060060000
0060060000
00600c0000
00600c0000
0060180000
0030180000
0030300000
0018e00000
000f800000
0000000000
0000000000
0000000000
0000000000
0000000000
0000000000
0000000000
ENDCHAR
STARTCHAR 253e
ENCODING 9534
SWIDTH 1020 0
DWIDTH 34 0
BBX 34 35 0 -4
BITMAP
0000000000
0000000000
0000000000
0000000000
0000000000
0000000000
0000000000
0000000000
0000000000
0000000000
0000002000
007f00e000
01ffffe000
0304ff0000
0204080000
0004080000
000c180000
0008100000
0008100000
0018300000
0018300000
0030600000
0030604000
0060604000
006060c000
00e0718000
01c03f0000
00801c0000
0000000000
0000000000
0000000000
0000000000
0000000000
0000000000
0000000000
ENDCHAR
STARTCHAR 253f
ENCODING 9535
SWIDTH 1020 0
DWIDTH 34 0
BBX 34 35 0 -4
BITMAP
0000000000
0000000000
0000000000
0000000000
0000000000
0000000000
0000000000
0000000000
0000000000
0000000000
0000000000
0000780000
0001ce0000
0003030000
0006018000
0006018000
000c018000
000c018000
0018018000
0018018000
0030030000
0030030000
0068030000
0068060000
00c8060000
00c80c0000
018c380000
0187e00000
0380000000
0380000000
0100000000
0000000000
0000000000
0000000000
0000000000
ENDCHAR
STARTCHAR 2540
ENCODING 9536
SWIDTH 1020 0
DWIDTH 34 0
BBX 34 35 0 -4
BITMAP
0000000000
0000000000
0000000000
0000000000
0000000000
0000000000
0000000000
0000000000
0000000000
0000000000
0000000000
0001f04000
00073fc000
000c1f8000
0018180000
0030180000
00300c0000
00600c0000
00600c0000
00600c0000
00c00c0000
00c0180000
00c0180000
00c0300000
0060300000
0060600000
0031c00000
001f000000
0000000000
0000000000
0000000000
0000000000
0000000000
0000000000
0000000000
ENDCHAR
STARTCHAR 2541
ENCODING 9537
SWIDTH 1020 0
DWIDTH 34 0
BBX 34 35 0 -4
BITMAP
0000000000
0000000000
0000000000
0000000000
0000000000
0000000000
0000000000
0000000000
0000000000
0000000000
0000000000
001c010000
007fc70000
00c3ff0000
0082380000
0002000000
0006000000
0004000000
000c000000
0008000000
0008000000
0018100000
0010100000
0010300000
0018300000
001c600000
000fc00000
0007000000
0000000000
0000000000
0000000000
0000000000
0000000000
0000000000
0000000000
ENDCHAR
STARTCHAR 2542
ENCODING 9538
SWIDTH 1020 0
DWIDTH 34 0
BBX 34 35 0 -4
BITMAP
0000000000
0000000000
0000000000
0000000000
0000000000
0000000000
0000000000
0000000000
0000000000
0000000000
0000000000
0008020000
001c070000
001c070000
000c030000
000c030000
0018030000
0018030000
0018030000
0030060000
0030060000
0060060000
00600c0000
00600c0000
0060180000
0030300000
0018e00000
000f800000
0000000000
0000000000
0000000000
0000000000
0000000000
0000000000
0000000000
ENDCHAR
STARTCHAR 2543
ENCODING 9539
SWIDTH 1020 0
DWIDTH 34 0
BBX 34 35 0 -4
BITMAP
0000000000
0000000000
0000000000
0000000000
0000000000
00001c0000
0000180000
0000180000
0000180000
0000300000
0000300000
0003f00000
000e6c0000
0038660000
0060630000
0060c30000
00c0c18000
00c0c18000
00c1818000
0181818000
0181830000
0183030000
0183030000
00c3060000
00c6060000
00661c0000
0036700000
000fc00000
000c000000
001c000000
0008000000
0000000000
0000000000
0000000000
0000000000
ENDCHAR
STARTCHAR 2544
ENCODING 9540
SWIDTH 1020 0
DWIDTH 34 0
BBX 34 35 0 -4
BITMAP
0000000000
0000000000
0000000000
0000000000
0000000000
0000000000
0000000000
0000000000
0000000000
0000000000
0000000000
001c010000
003e038000
0063038000
0041830000
0001860000
00008c0000
0000980000
0000b00000
0000e00000
0000c00000
0001800000
0003800000
0006800000
000cc00000
0018410000
0030410000
0060430000
00e0660000
00e03c0000
0040180000
0000000000
0000000000
0000000000
0000000000
ENDCHAR
STARTCHAR 2545
ENCODING 9541
SWIDTH 1020 0
DWIDTH 34 0
BBX 34 35 0 -4
BITMAP
0000000000
0000000000
0000000000
0000000000
0000000000
00001c0000
0000180000
0000180000
0000180000
0000300000
0000300000
000c304000
003860e000
006060e000
00c0606000
0180c06000
0180c06000
0180c0c000
030180c000
0301818000
0301818000
0303030000
0303030000
0183060000
01860c0000
00c6180000
0076700000
001fc00000
000c000000
001c000000
0008000000
0000000000
0000000000
0000000000
0000000000
ENDCHAR
STARTCHAR 2546
ENCODING 9542
SWIDTH 1020 0
DWIDTH 34 0
BBX 34 35 0 -4
BITMAP
0000000000
0000000000
0000000000
0000000000
0000000000
0000000000
0000000000
0000000000
0000000000
0000000000
0000000000
0038010000
00e000c000
0180006000
0300006000
0300803000
0600c03000
0601c03000
0601c03000
0c01803000
0c03806000
0c03006000
0c0300c000
0c0600c000
0607018000
060d830000
0318ce0000
01f0780000
0000000000
0000000000
0000000000
0000000000
0000000000
0000000000
0000000000
ENDCHAR
STARTCHAR 2547
ENCODING 9543
SWIDTH 1020 0
DWIDTH 34 0
BBX 34 35 0 -4
BITMAP
0000000000
0000000000
0000000000
0000000000
0000000000
0018000000
001e000000
003e000000
003c000000
0078000000
00f0000000
01e0060000
03ffff0000
03ffff8000
01e007c000
000007c000
0000078000
0000078000
0000078000
00000f0000
00000f0000
00000f0000
00001e0000
00001e0000
00301e0000
001c3e0000
000ffc0000
0007f80000
0003e00000
0000000000
0000000000
0000000000
0000000000
0000000000
0000000000
ENDCHAR
STARTCHAR 2548
ENCODING 9544
SWIDTH 1020 0
DWIDTH 34 0
BBX 34 35 0 -4
BITMAP
0000000000
0000000000
0000000000
0000000000
0000000000
0030000000
003c000000
003e000000
003c000000
0078000000
00701f8000
00e0ffc000
00c7c7c000
01fe0f8000
03f80f0000
01e01e0000
00001e0000
00303c0000
001c780000
000e780000
0003f00000
0001e00000
0003f80000
0007be0000
001e1f8000
003c0fc000
007007c000
01e0038000
0000000000
0000000000
0000000000
0000000000
0000000000
0000000000
0000000000
ENDCHAR
STARTCHAR 2549
ENCODING 9545
SWIDTH 1020 0
DWIDTH 34 0
BBX 34 35 0 -4
BITMAP
0000000000
0000000000
0000000000
0000000000
0000000000
0000000000
0000000000
0000010000
0300ff8000
03ffffc000
03ff078000
0380038000
0380038000
0380038000
0380038000
0380038000
0380038000
0380038000
0380038000
0380038000
0380038000
0380038000
0380078000
0300078000
0000030000
0000000000
0000000000
0000000000
0000000000
0000000000
0000000000
0000000000
0000000000
0000000000
0000000000
ENDCHAR
STARTCHAR 254a
ENCODING 9546
SWIDTH 1020 0
DWIDTH 34 0
BBX 34 35 0 -4
BITMAP
0000000000
0000000000
0000000000
0000000000
0000000000
0000000000
0000000000
0000000000
0000000000
0000038000
03ffffc000
01ffffc000
00e0000000
00e0000000
00e0000000
00e0000000
00e0000000
00e0000000
00e0000000
00e0000000
00e0000000
00f0000000
00ffff8000
007fffc000
003fffc000
0000000000
0000000000
0000000000
0000000000
0000000000
0000000000
0000000000
0000000000
0000000000
0000000000
ENDCHAR
STARTCHAR 254b
ENCODING 9547
SWIDTH 1020 0
DWIDTH 34 0
BBX 34 35 0 -4
BITMAP
0000000000
0000000000
0000000000
0000000000
0000000000
0038000000
003e000000
003c000000
0078000000
0078000000
00f0038000
00e00fc000
01e1ffe000
01cfe3c000
03ff03c000
070e03c000
000e03c000
000e078000
001c078000
001c078000
001c0f0000
00380f0000
00380f0000
00761e0000
00e39e0000
01c1fc0000
0300f80000
0000700000
0000000000
0000000000
0000000000
0000000000
0000000000
0000000000
0000000000
ENDCHAR
STARTCHAR 254c
ENCODING 9548
SWIDTH 1020 0
DWIDTH 34 0
BBX 34 35 0 -4
BITMAP
0000000000
0000000000
0000000000
0000000000
0000000000
0000000000
0001c00000
0001e00000
0001e00000
0001e00000
0001c00000
0001c00000
0003c00000
0003830000
0007ff8000
07ffffc000
03ff000000
018f000000
000e000000
001e000000
001c300000
003c1c0000
00781e0000
00f0ff0000
01ffef8000
00ff078000
0078030000
0000000000
0000000000
0000000000
0000000000
0000000000
0000000000
0000000000
0000000000
ENDCHAR
STARTCHAR 254d
ENCODING 9549
SWIDTH 1020 0
DWIDTH 34 0
BBX 34 35 0 -4
BITMAP
0000000000
0000000000
0000000000
0000000000
0000000000
0000e00000
01fff00000
00fff80000
0001f00000
0003c00000
0007800000
000f000000
001e060000
003fff0000
001fff8000
000c0f8000
00000f0000
00000f0000
00000f0000
00000f0000
00001e0000
00001e0000
00003c0000
00307c0000
001cf80000
000ff00000
0007e00000
0003800000
0000000000
0000000000
0000000000
0000000000
0000000000
0000000000
0000000000
ENDCHAR
STARTCHAR 254e
ENCODING 9550
SWIDTH 1020 0
DWIDTH 34 0
BBX 34 35 0 -4
BITMAP
0000000000
0000000000
0000000000
0000000000
0000000000
0000000000
0001c00000
0071e00000
0079c00000
0071c00000
0071c00000
00e3800000
00e3818000
01c3bfe000
01c3fff000
03ffc0f000
01ff00e000
00e700e000
000701c000
000e01c000
000e01c000
001c038000
001c038000
0038078000
00700f0000
00e19e0000
01c0fe0000
03007c0000
0000380000
0000000000
0000000000
0000000000
0000000000
0000000000
0000000000
ENDCHAR
STARTCHAR 254f
ENCODING 9551
SWIDTH 1020 0
DWIDTH 34 0
BBX 34 35 0 -4
BITMAP
0000000000
0000000000
0000000000
0000000000
0000000000
0000000000
00180c0000
001c0e0000
001e0f0000
001e0f0000
003c1e0000
00783c0000
0070380000
00f0780000
00e0700000
01c0e00000
0301800000
0381c00000
01c0e00000
00e0700000
0070380000
00381c0000
003c1e0000
001e0f0000
001f078000
000f078000
000f030000
0006000000
0000000000
0000000000
0000000000
0000000000
0000000000
0000000000
0000000000
ENDCHAR
STARTCHAR 2550
ENCODING 9552
SWIDTH 1020 0
DWIDTH 34 0
BBX 34 35 0 -4
BITMAP
0000000000
0000000000
0000000000
0000000000
0000000000
0000000000
0000018000
07ffffc000
07ffffc000
0387800000
0007000000
000e000000
001c0c0000
0038fe0000
00ffff0000
007f0f0000
00300e0000
00000e0000
00000e0000
00000e0000
00001c0000
00001c0000
00001c0000
00003c0000
0018780000
000ff00000
0007e00000
0003c00000
0000000000
0000000000
0000000000
0000000000
0000000000
0000000000
0000000000
ENDCHAR
STARTCHAR 2551
ENCODING 9553
SWIDTH 1020 0
DWIDTH 34 0
BBX 34 35 0 -4
BITMAP
0000000000
0000000000
0000000000
0000000000
0000000000
0000000000
0000000000
0000000000
004000c000
007fffe000
007fffc000
0078000000
0070000000
0070000000
0070000000
0070000000
0070000000
00e0000000
00e0000000
00e0000000
01c0000000
01c0000000
0380000000
0300000000
0600000000
0c00000000
0000000000
0000000000
0000000000
0000000000
0000000000
0000000000
0000000000
0000000000
0000000000
ENDCHAR
STARTCHAR 2552
ENCODING 9554
SWIDTH 1020 0
DWIDTH 34 0
BBX 34 35 0 -4
BITMAP
0000000000
0000000000
0000000000
0000000000
0000000000
0000000000
00001c0000
00001e0000
00381c0000
003c1c0000
00381c0000
00381c0000
00381c0000
00381c0000
00381c0000
00381c0000
00381c0000
00383c0000
0038fc0000
003fdc0000
003f1c0000
007e1c0000
00381c0000
00001c0000
00001c0000
00001c0000
00001c0000
00001c0000
0000080000
0000000000
0000000000
0000000000
0000000000
0000000000
0000000000
ENDCHAR
STARTCHAR 2553
ENCODING 9555
SWIDTH 1020 0
DWIDTH 34 0
BBX 34 35 0 -4
BITMAP
0000000000
0000000000
0000000000
0000000000
0000000000
0000000000
0000180000
00001e0000
00003e0000
00003c0000
0000780000
0000e00000
0001c00000
0003800000
0007000000
000e000000
001c000000
0038000000
0078000000
003c000000
000e000000
0007800000
0003c00000
0001e00000
0000f80000
00007c0000
00003c0000
0000380000
0000000000
0000000000
0000000000
0000000000
0000000000
0000000000
0000000000
ENDCHAR
STARTCHAR 2554
ENCODING 9556
SWIDTH 1020 0
DWIDTH 34 0
BBX 34 35 0 -4
BITMAP
0000000000
0000000000
0000000000
0000000000
0000000000
0000000000
0000000000
000001c000
0003ffe000
03ffffe000
01ffe00000
00c0e00000
0000e00000
0000e00000
0000e00000
0000e00000
0000e00000
0000e00000
0000e00000
0000e00000
0000e00000
0000e00000
0000e00000
0000e00000
0000e00000
0000e00000
0000400000
0000000000
0000000000
0000000000
0000000000
0000000000
0000000000
0000000000
0000000000
ENDCHAR
STARTCHAR 2555
ENCODING 9557
SWIDTH 1020 0
DWIDTH 34 0
BBX 34 35 0 -4
BITMAP
0000000000
0000000000
0000000000
0000000000
0000000000
0000000000
0000000000
0003800000
0003c00000
00e3c70000
00f3878000
00e3870000
00e3870000
00e3870000
00e3870000
00e3870000
00e3870000
00ffff0000
00ffff0000
0043800000
0003800000
0003800000
0003800000
0003818000
03ffffc000
03ffff8000
0180000000
0000000000
0000000000
0000000000
0000000000
0000000000
0000000000
0000000000
0000000000
ENDCHAR
STARTCHAR 2556
ENCODING 9558
SWIDTH 1020 0
DWIDTH 34 0
BBX 34 35 0 -4
BITMAP
0000000000
0000000000
0000000000
0000000000
0000180000
00003c0000
00003c0000
0000780000
0000f00000
0001e00000
0003860000
00070f0000
000e1f0000
00383c0000
0060780000
0000f00000
0001f00000
0003f00000
0007700000
000e700000
0038700000
00e0700000
0180700000
0000700000
0000700000
0000700000
0000700000
0000700000
0000200000
0000000000
0000000000
0000000000
0000000000
0000000000
0000000000
ENDCHAR
STARTCHAR 2557
ENCODING 9559
SWIDTH 1020 0
DWIDTH 34 0
BBX 34 35 0 -4
BITMAP
0000000000
0000000000
0000000000
0000000000
0000000000
0000000000
0000060000
003fff0000
003fff0000
00180e0000
00000e0000
00000e0000
00200e0000
003fff0000
003ffe0000
0038000000
0038000000
0038000000
0038000000
0038000000
0070000000
0070000000
0070000000
0070000000
00e0000000
00c0000000
0180000000
0300000000
0000000000
0000000000
0000000000
0000000000
0000000000
0000000000
0000000000
ENDCHAR
STARTCHAR 2558
ENCODING 9560
SWIDTH 1020 0
DWIDTH 34 0
BBX 34 35 0 -4
BITMAP
0000000000
0000000000
0000000000
0000000000
0000000000
0000000000
0000000000
00c00e0000
00e3ff0000
00ffff0000
00fe0e0000
00e00e0000
00e00e0000
00e00e0000
00ec0e0000
00e60e0000
00e38e0000
00e1ce0000
00e1ee0000
00e0ce0000
00e00e0000
00e00e0000
00e00e0000
00e1fe0000
00fffe0000
007f0e0000
0030040000
0000000000
0000000000
0000000000
0000000000
0000000000
0000000000
0000000000
0000000000
ENDCHAR
STARTCHAR 2559
ENCODING 9561
SWIDTH 1020 0
DWIDTH 34 0
BBX 34 35 0 -4
BITMAP
0000000000
0000000000
0000000000
0000000000
0000000000
0000000000
0000060000
0000ff0000
01ffff8000
01ff870000
00dc070000
001c070000
001c070000
001c070000
001c070000
001c0f0000
001c0e0000
001dbe0000
001cfc0000
001c380000
001c000000
001c000000
001c000000
001c000000
001c000000
001c000000
001c000000
0008000000
0000000000
0000000000
0000000000
0000000000
0000000000
0000000000
0000000000
ENDCHAR
STARTCHAR 255a
ENCODING 9562
SWIDTH 1020 0
DWIDTH 34 0
BBX 34 35 0 -4
BITMAP
0000000000
0000000000
0000000000
0000000000
0000000000
0000000000
0003c00000
0003e00000
0003e00000
0003c00000
0003c00000
0003ff8000
003fffc000
03ffff0000
01ff800000
00c7800000
0007870000
0007ff8000
0007ff8000
00038f0000
00000f0000
00001e0000
00003e0000
00003c0000
0000780000
0000f00000
0001e00000
0003800000
0000000000
0000000000
0000000000
0000000000
0000000000
0000000000
0000000000
ENDCHAR
STARTCHAR 255b
ENCODING 9563
SWIDTH 1020 0
DWIDTH 34 0
BBX 34 35 0 -4
BITMAP
0000000000
0000000000
0000000000
0000000000
0000000000
0000000000
0000000000
0000600000
0000700000
0000f80000
0000f80000
0001f00000
0003e00000
0003c00000
0007800000
000f000000
001e000000
001e000000
003c1c0000
00780e0000
00f0078000
03ffffc000
03ffffe000
01ffc3e000
01f803e000
000001c000
0000000000
0000000000
0000000000
0000000000
0000000000
0000000000
0000000000
0000000000
0000000000
ENDCHAR
STARTCHAR 255c
ENCODING 9564
SWIDTH 1020 0
DWIDTH 34 0
BBX 34 35 0 -4
BITMAP
0000000000
0000000000
0000000000
0000000000
0000000000
0000000000
01c0070000
03e00f8000
01f00f8000
00f01f0000
00781e0000
003c3c0000
001e780000
000ff00000
0007e00000
0003c00000
0003c00000
0003c00000
0003c00000
0003c00000
0003c00000
0003c00000
0003c00000
0003c00000
0003c00000
0003c00000
0003c00000
0001800000
0000000000
0000000000
0000000000
0000000000
0000000000
0000000000
0000000000
ENDCHAR
STARTCHAR 255d
ENCODING 9565
SWIDTH 1020 0
DWIDTH 34 0
BBX 34 35 0 -4
BITMAP
0000000000
0000000000
0000000000
0000000000
0000000000
0000000000
0000000000
00003f8000
03ffffc000
07ffffc000
03ffe00000
0181e00000
0001e00000
0001e00000
000fe00000
003fe00000
007fc00000
0078000000
00f0000000
00f0000000
00f0000000
00f00e0000
00f81e0000
007ffe0000
003ffc0000
000ff80000
0003c00000
0000000000
0000000000
0000000000
0000000000
0000000000
0000000000
0000000000
0000000000
ENDCHAR
STARTCHAR 255e
ENCODING 9566
SWIDTH 1020 0
DWIDTH 34 0
BBX 34 35 0 -4
BITMAP
0000000000
0000000000
0000000000
0000000000
0000000000
0000000000
0003c00000
0003e00000
0003e00000
0003c00000
0003c38000
0003ffe000
03ffffe000
07fffc0000
01e3c00000
0003c00000
0003c00000
001fc00000
003fc00000
0079800000
00f0000000
00f0000000
00f00c0000
00f81e0000
007e3e0000
003ffc0000
001ff80000
0007e00000
0000000000
0000000000
0000000000
0000000000
0000000000
0000000000
0000000000
ENDCHAR
STARTCHAR 255f
ENCODING 9567
SWIDTH 1020 0
DWIDTH 34 0
BBX 34 35 0 -4
BITMAP
0000000000
0000000000
0000000000
0000000000
0000000000
0000000000
0000000000
0000380000
00383c0000
003c3c0000
003c3c0000
003c380000
003c380000
003c39e000
003ffff000
07fffff000
07ffff0000
03fc380000
003c380000
003c380000
003c380000
003c300000
003c000000
001f000000
001fff0000
000fff0000
0007fe0000
0000000000
0000000000
0000000000
0000000000
0000000000
0000000000
0000000000
0000000000
ENDCHAR
STARTCHAR 2560
ENCODING 9568
SWIDTH 1020 0
DWIDTH 34 0
BBX 34 35 0 -4
BITMAP
0000000000
0000000000
0000000000
0000000000
0000000000
0000000000
00000e0000
0007ff8000
01ffff8000
01ffc00000
0041e00000
0071e00000
0071c00000
0071de0000
00e7ff0000
00ffff0000
00ff8e0000
00778e0000
00071c0000
000e1c0000
000e1c0000
001c1c0000
001c380000
0038380000
0070380000
00e0700000
01c0600000
0000600000
0000000000
0000000000
0000000000
0000000000
0000000000
0000000000
0000000000
ENDCHAR
STARTCHAR 2561
ENCODING 9569
SWIDTH 1020 0
DWIDTH 34 0
BBX 34 35 0 -4
BITMAP
0000000000
0000000000
0000000000
0000000000
0000000000
0000000000
0007000000
001f000000
007f800000
01f3800000
03c3800000
0003800000
0001800000
0001c00000
0001c00000
0001c00000
0000e00000
0000e00000
0000f00000
0000f00000
0000780000
0000780000
00003c0000
00003c0000
00001e0000
00001f0000
00000f8000
000003c000
0000000000
0000000000
0000000000
0000000000
0000000000
0000000000
0000000000
ENDCHAR
STARTCHAR 2562
ENCODING 9570
SWIDTH 1020 0
DWIDTH 34 0
BBX 34 35 0 -4
BITMAP
0000000000
0000000000
0000000000
0000000000
0000000000
0000000000
0006000000
0007000000
000f800000
000f000000
001e180000
003c3c0000
00783e0000
00f07c0000
01e0f80000
03e1f00000
03fbe00000
007fc00000
000f800000
000f300000
001f380000
003e1c0000
007c1e0000
00ffff0000
01ffff8000
01ff078000
00fc078000
0070030000
0000000000
0000000000
0000000000
0000000000
0000000000
0000000000
0000000000
ENDCHAR
STARTCHAR 2563
ENCODING 9571
SWIDTH 1020 0
DWIDTH 34 0
BBX 34 35 0 -4
BITMAP
0000000000
0000000000
0000000000
0000000000
0000000000
0000000000
0000000000
00001e0000
0001ff0000
001fff0000
007fde0000
007c3c0000
00383c0000
0000380000
0000780000
0020780000
0038f00000
001fe00000
0007e00000
0003e00000
0007f80000
000f7e0000
001e3f0000
003c1f8000
00780f8000
00e0078000
03c0030000
0000000000
0000000000
0000000000
0000000000
0000000000
0000000000
0000000000
0000000000
ENDCHAR
STARTCHAR 2564
ENCODING 9572
SWIDTH 1020 0
DWIDTH 34 0
BBX 34 35 0 -4
BITMAP
0000000000
0000000000
0000000000
0000000000
0000000000
0000000000
0000fc0000
001ffe0000
00fffe0000
007e3c0000
0038380000
0038780000
0070700000
0070fe0000
00ffff8000
00ffef8000
00fe078000
00700f0000
00000f0000
00000e0000
00001e0000
00001c0000
00003c0000
0000380000
0000700000
0000700000
0000e00000
0000c00000
0000000000
0000000000
0000000000
0000000000
0000000000
0000000000
0000000000
ENDCHAR
STARTCHAR 2565
ENCODING 9573
SWIDTH 1020 0
DWIDTH 34 0
BBX 34 35 0 -4
BITMAP
0000000000
0000000000
0000000000
0000000000
0000000000
0000000000
00e0000000
00f0000000
00f0000000
00f0000000
00e0000000
01e0000000
01e0000000
01e0000000
01e0000000
01e00f0000
03ffffc000
03ffffc000
01fe0fc000
00700f8000
00000f8000
00001f0000
00001e0000
00003c0000
0000780000
0000f00000
0001c00000
0001800000
0000000000
0000000000
0000000000
0000000000
0000000000
0000000000
0000000000
ENDCHAR
STARTCHAR 2566
ENCODING 9574
SWIDTH 1020 0
DWIDTH 34 0
BBX 34 35 0 -4
BITMAP
0000000000
0000000000
0000000000
0000000000
0000000000
0000000000
0003800000
0003c00000
0003c00000
0003c00000
0003800000
0003800000
0007860000
0007ff8000
001fff8000
03fff80000
03ff800000
00e7c00000
000fe00000
000fe00000
001dc00000
001dc00000
0039c00000
0071c00000
00f1e1c000
01e1ffe000
03c0ffe000
07003fc000
0000000000
0000000000
0000000000
0000000000
0000000000
0000000000
0000000000
ENDCHAR
STARTCHAR 2567
ENCODING 9575
SWIDTH 1020 0
DWIDTH 34 0
BBX 34 35 0 -4
BITMAP
0000000000
0000000000
0000000000
0000000000
0000000000
0000000000
0000000000
0000000000
0003800000
0003c00000
0007c00000
0007c00000
000f800000
000f000000
001e000000
001e000000
003c000000
0038000000
0078000000
00f0000000
00e0000000
01e03f8000
03ffffe000
07ffffc000
03fe000000
01c0000000
0000000000
0000000000
0000000000
0000000000
0000000000
0000000000
0000000000
0000000000
0000000000
ENDCHAR
STARTCHAR 2568
ENCODING 9576
SWIDTH 1020 0
DWIDTH 34 0
BBX 34 35 0 -4
BITMAP
0000000000
0000000000
0000000000
0000000000
0000000000
0000000000
0000c00000
0030f00000
0038f80000
003cf00000
003cf00000
0038f00000
0038e00000
0038e00000
0038e00000
0038e00000
0038e00000
0078e00000
0071e00000
0071e00000
00f1e00000
00e1e00000
01c1e00000
01c0f0e000
0380fff000
07007fe000
0e001fc000
0000000000
0000000000
0000000000
0000000000
0000000000
0000000000
0000000000
0000000000
ENDCHAR
STARTCHAR 2569
ENCODING 9577
SWIDTH 1020 0
DWIDTH 34 0
BBX 34 35 0 -4
BITMAP
0000000000
0000000000
0000000000
0000000000
0000000000
0000000000
0000000000
0000000000
0000000000
0000000000
0000000000
0000000000
0000000000
0000000000
0000000000
07007fc000
0fffffe000
07ffffe000
01fe01c000
0000000000
0000000000
0000000000
0000000000
0000000000
0000000000
0000000000
0000000000
0000000000
0000000000
0000000000
0000000000
0000000000
0000000000
0000000000
0000000000
ENDCHAR
STARTCHAR 256a
ENCODING 9578
SWIDTH 1020 0
DWIDTH 34 0
BBX 34 35 0 -4
BITMAP
0000000000
0000000000
0000000000
0000000000
0000000000
0000000000
00000c0000
00000e0000
00000f0000
00001f0000
00001e0000
00803e0000
00603c0000
0038780000
001e780000
0007f00000
0003f00000
0001e00000
0003f00000
0007f80000
000f3e0000
001e1f0000
003c1f0000
00780f8000
01e00f8000
0380078000
0000030000
0000000000
0000000000
0000000000
0000000000
0000000000
0000000000
0000000000
0000000000
ENDCHAR
STARTCHAR 256b
ENCODING 9579
SWIDTH 1020 0
DWIDTH 34 0
BBX 34 35 0 -4
BITMAP
0000000000
0000000000
0000000000
0000000000
0000000000
0000000000
0000000000
0000000000
0000070000
0000078000
018007c000
01c0038000
01e0038000
01e0038000
01c0038000
01c0038000
01c0038000
01c0038000
01c0038000
01c0038000
01c0038000
01c07f8000
01ffff8000
01ffff8000
01ff830000
00f0000000
0000000000
0000000000
0000000000
0000000000
0000000000
0000000000
0000000000
0000000000
0000000000
ENDCHAR
STARTCHAR 256c
ENCODING 9580
SWIDTH 1020 0
DWIDTH 34 0
BBX 34 35 0 -4
BITMAP
0000000000
0000000000
0000000000
0000000000
0000000000
0000000000
0000000000
0000000000
0000000000
0000000000
0000000000
0003800000
000fe00000
000fe00000
000fe00000
0003800000
0000000000
0000000000
0000000000
0000000000
0000000000
0000000000
0000000000
0000000000
0000000000
0000000000
0000000000
0000000000
0000000000
0000000000
0000000000
0000000000
0000000000
0000000000
0000000000
ENDCHAR
STARTCHAR 256d
ENCODING 9581
SWIDTH 1020 0
DWIDTH 34 0
BBX 34 35 0 -4
BITMAP
0000000000
0000000000
0000000000
0000000000
0000000000
0000000000
0000000000
0000000000
0000000000
0000000000
0000000000
0000000000
0000000000
0000000000
0000000000
0000000000
0000000000
0000000000
0000000000
0000000000
0000000000
0000000000
0000000000
0000000000
0000000000
0000000000
0000000000
0000000000
0000000000
0000000000
0000000000
0000000000
0000000000
0000000000
0000000000
ENDCHAR
STARTCHAR 256e
ENCODING 9582
SWIDTH 1020 0
DWIDTH 34 0
BBX 34 35 0 -4
BITMAP
0000000000
0000000000
0000000000
0000000000
0000000000
0000000000
0000000000
0000000000
0000000000
0000000000
0000000000
0000000000
00000c0000
0000380000
0000700000
0000e00000
0003c00000
0007800000
001f000000
007e000000
007c000000
0038000000
0000000000
0000000000
0000000000
0000000000
0000000000
0000000000
0000000000
0000000000
0000000000
0000000000
0000000000
0000000000
0000000000
ENDCHAR
STARTCHAR 256f
ENCODING 9583
SWIDTH 1020 0
DWIDTH 34 0
BBX 34 35 0 -4
BITMAP
0000000000
0000000000
0000000000
0000000000
0000000000
0000000000
0000000000
0000000000
0000010000
0000030000
0000060000
0000060000
00000e0000
00000c0000
00000c0000
00001c0000
00f0180000
003c380000
001e380000
000f700000
0007f00000
0007e00000
0003e00000
0003c00000
0000000000
0000000000
0000000000
0000000000
0000000000
0000000000
0000000000
0000000000
0000000000
0000000000
0000000000
ENDCHAR
STARTCHAR 2570
ENCODING 9584
SWIDTH 1020 0
DWIDTH 34 0
BBX 34 35 0 -4
BITMAP
0000000000
0000000000
0000000000
0000000000
0000000000
0000000000
0000000000
0000000000
0000000000
0000000000
0000000000
0000000000
001c000000
001f000000
000f800000
0007800000
0003c00000
0001e00000
0000e00000
0000700000
0000300000
0000100000
0000000000
0000000000
0000000000
0000000000
0000000000
0000000000
0000000000
0000000000
0000000000
0000000000
0000000000
0000000000
0000000000
ENDCHAR
STARTCHAR 2621
ENCODING 9761
SWIDTH 1020 0
DWIDTH 34 0
BBX 34 35 0 -4
BITMAP
0000000000
0000000000
0000000000
0000000000
0007e00000
003ffc0000
00f00f0000
01c0038000
038001c000
070380e000
060f806000
0c0f803000
0c01803000
0c01803000
1801801800
1801801800
1801801800
1801801800
1801801800
0c01803000
0c01803000
0c01803000
0603c06000
070ff0e000
038001c000
01c0038000
00f00f0000
003ffc0000
0007e00000
0000000000
0000000000
0000000000
0000000000
0000000000
0000000000
ENDCHAR
STARTCHAR 2622
ENCODING 9762
SWIDTH 1020 0
DWIDTH 34 0
BBX 34 35 0 -4
BITMAP
0000000000
0000000000
0000000000
0000000000
0007e00000
003ffc0000
00f00f0000
01c0038000
038001c000
0707e0e000
060ff06000
0c1c383000
0c1c383000
0c1c383000
180c381800
1800701800
1800e01800
1801c01800
1803801800
0c07083000
0c0e083000
0c0c183000
061ff86000
071ff0e000
038001c000
01c0038000
00f00f0000
003ffc0000
0007e00000
0000000000
0000000000
0000000000
0000000000
0000000000
0000000000
ENDCHAR
STARTCHAR 2623
ENCODING 9763
SWIDTH 1020 0
DWIDTH 34 0
BBX 34 35 0 -4
BITMAP
0000000000
0000000000
0000000000
0000000000
0007e00000
003ffc0000
00f00f0000
01c0038000
038001c000
0707e0e000
060e706000
0c1c383000
0c1c383000
0c1c383000
1800701800
1803e01800
1803f01800
1800781800
1800381800
0c1c383000
0c1c383000
0c1c383000
060ef06000
0707e0e000
038001c000
01c0038000
00f00f0000
003ffc0000
0007e00000
0000000000
0000000000
0000000000
0000000000
0000000000
0000000000
ENDCHAR
STARTCHAR 2624
ENCODING 9764
SWIDTH 1020 0
DWIDTH 34 0
BBX 34 35 0 -4
BITMAP
0000000000
0000000000
0000000000
0000000000
0007e00000
003ffc0000
00f00f0000
01c0038000
038001c000
0700c0e000
0600c06000
0c01c03000
0c03c03000
0c03c03000
1806c01800
180ec01800
180cc01800
1818c01800
1838c01800
0c3ff03000
0c3ff03000
0c00c03000
0601e06000
0703f0e000
038001c000
01c0038000
00f00f0000
003ffc0000
0007e00000
0000000000
0000000000
0000000000
0000000000
0000000000
0000000000
ENDCHAR
STARTCHAR 2625
ENCODING 9765
SWIDTH 1020 0
DWIDTH 34 0
BBX 34 35 0 -4
BITMAP
0000000000
0000000000
0000000000
0000000000
0007e00000
003ffc0000
00f00f0000
01c0038000
038001c000
070ff8e000
060ff06000
0c0c003000
0c0c003000
0c0c003000
180fe01800
180e701800
180c381800
1800381800
1800381800
0c0e383000
0c1e383000
0c1c303000
060ef06000
0707c0e000
038001c000
01c0038000
00f00f0000
003ffc0000
0007e00000
0000000000
0000000000
0000000000
0000000000
0000000000
0000000000
ENDCHAR
STARTCHAR 2626
ENCODING 9766
SWIDTH 1020 0
DWIDTH 34 0
BBX 34 35 0 -4
BITMAP
0000000000
0000000000
0000000000
0000000000
0007e00000
003ffc0000
00f00f0000
01c0038000
0381c1c000
0707f0e000
060e706000
0c0c303000
0c1c003000
0c18003000
183be01800
183f701800
183c301800
183c381800
1838381800
0c38383000
0c1c383000
0c1c303000
060e706000
0707e0e000
038001c000
01c0038000
00f00f0000
003ffc0000
0007e00000
0000000000
0000000000
0000000000
0000000000
0000000000
0000000000
ENDCHAR
STARTCHAR 2627
ENCODING 9767
SWIDTH 1020 0
DWIDTH 34 0
BBX 34 35 0 -4
BITMAP
0000000000
0000000000
0000000000
0000000000
0007e00000
003ffc0000
00f00f0000
01c0038000
038001c000
070ff8e000
060ff86000
0c1c383000
0c18303000
0c10703000
1800601800
1800e01800
1800c01800
1801c01800
1801c01800
0c01803000
0c03803000
0c03803000
0603806000
070380e000
038101c000
01c0038000
00f00f0000
003ffc0000
0007e00000
0000000000
0000000000
0000000000
0000000000
0000000000
0000000000
ENDCHAR
STARTCHAR 2628
ENCODING 9768
SWIDTH 1020 0
DWIDTH 34 0
BBX 34 35 0 -4
BITMAP
0000000000
0000000000
0000000000
0000000000
0007e00000
003ffc0000
00f00f0000
01c0038000
038001c000
0707e0e000
060e706000
0c1c383000
0c1c383000
0c1c383000
180e701800
1807e01800
1807e01800
180ef01800
181c781800
0c18383000
0c18383000
0c1c383000
060e706000
0707e0e000
038001c000
01c0038000
00f00f0000
003ffc0000
0007e00000
0000000000
0000000000
0000000000
0000000000
0000000000
0000000000
ENDCHAR
STARTCHAR 2629
ENCODING 9769
SWIDTH 1020 0
DWIDTH 34 0
BBX 34 35 0 -4
BITMAP
0000000000
0000000000
0000000000
0000000000
0007e00000
003ffc0000
00f00f0000
01c0038000
038181c000
0707e0e000
060e706000
0c0c303000
0c1c383000
0c1c383000
181c381800
180e781800
1807f81800
1801b81800
1800381800
0c08383000
0c1c383000
0c1c703000
060ee06000
0707c0e000
038001c000
01c0038000
00f00f0000
003ffc0000
0007e00000
0000000000
0000000000
0000000000
0000000000
0000000000
0000000000
ENDCHAR
STARTCHAR 262a
ENCODING 9770
SWIDTH 1020 0
DWIDTH 34 0
BBX 34 35 0 -4
BITMAP
0000000000
0000000000
0000000000
0000000000
000ff00000
003ffc0000
00f00f0000
01c0038000
038001c000
071838e000
06387c6000
0c78ee3000
0c18c63000
0c19833000
1819831800
1819831800
1819831800
1819831800
1819831800
0c19833000
0c18c63000
0c18fe3000
063c7c6000
077e38e000
038001c000
01c0038000
00f00f0000
003ffc0000
000ff00000
0000000000
0000000000
0000000000
0000000000
0000000000
0000000000
ENDCHAR
STARTCHAR 262b
ENCODING 9771
SWIDTH 1020 0
DWIDTH 34 0
BBX 34 35 0 -4
BITMAP
0000000000
0000000000
0000000000
0000000000
00c0030000
0180018000
030000c000
0601806000
0607806000
040f802000
0c01803000
0c01803000
0c01803000
1801801800
1801801800
1801801800
1801801800
1801801800
1801801800
1801801800
0c01803000
0c01803000
0c01803000
0403c02000
061ff86000
0600006000
030000c000
0180018000
00c0030000
0000000000
0000000000
0000000000
0000000000
0000000000
0000000000
ENDCHAR
STARTCHAR 262c
ENCODING 9772
SWIDTH 1020 0
DWIDTH 34 0
BBX 34 35 0 -4
BITMAP
0000000000
0000000000
0000000000
0000000000
00c0030000
0180018000
030000c000
0603e06000
060ff86000
041c382000
0c181c3000
0c1c1c3000
0c1e1c3000
180c381800
1800381800
1800701800
1800e01800
1801c01800
1803801800
1807001800
0c06083000
0c0e083000
0c1c183000
041ff82000
061ff86000
0600006000
030000c000
0180018000
00c0030000
0000000000
0000000000
0000000000
0000000000
0000000000
0000000000
ENDCHAR
STARTCHAR 262d
ENCODING 9773
SWIDTH 1020 0
DWIDTH 34 0
BBX 34 35 0 -4
BITMAP
0000000000
0000000000
0000000000
0000000000
00c0030000
0180018000
030000c000
0600006000
0607e06000
040e702000
0c1c383000
0c1e383000
0c0c383000
1800381800
1800701800
1801e01800
1807e01800
1800f01800
1800381800
1800381800
0c18383000
0c3c383000
0c3c383000
041c782000
060ff06000
0607c06000
030000c000
0180018000
00c0030000
0000000000
0000000000
0000000000
0000000000
0000000000
0000000000
ENDCHAR
STARTCHAR 262e
ENCODING 9774
SWIDTH 1020 0
DWIDTH 34 0
BBX 34 35 0 -4
BITMAP
0000000000
0000000000
0000000000
0000000000
00c0030000
0180018000
030000c000
0600206000
0600606000
0400602000
0c00e03000
0c01e03000
0c01e03000
1803601800
1806601800
180e601800
181c601800
1818601800
1838601800
1870601800
0cfffc3000
0c00603000
0c00603000
0400f02000
0603fc6000
0600006000
030000c000
0180018000
00c0030000
0000000000
0000000000
0000000000
0000000000
0000000000
0000000000
ENDCHAR
ENDFONT
